<svg width="490" height="497" viewBox="0 0 490 497" fill="none" xmlns="http://www.w3.org/2000/svg">
<g clip-path="url(#clip0_114_1008)">
<g opacity="0.21">
<path d="M107.29 402.41C58.41 381.53 35.07 362.33 27.1 328.47C19.13 294.61 28.86 256.66 51.89 231.74C63.98 218.66 79.23 209.16 90.87 195.62C105.97 178.06 113.9 155.06 125.08 134.46C149.29 89.85 182.76 52 229.33 37.75C275.91 23.5 335.07 33.02 377.88 57.13C399.36 69.23 419.73 87.57 425.64 112.62C432.08 139.95 420.05 169.48 427.02 196.67C431.94 215.87 445.59 230.98 454.23 248.63C476.14 293.42 462.31 351.18 430.48 388.69C398.65 426.2 352.33 446.35 305.96 457.43C285.65 462.28 264.62 465.64 244.04 462.27C194.52 454.16 177.93 430.27 107.28 402.41H107.29Z" stroke="#222221" stroke-miterlimit="10"/>
</g>
<path opacity="0.21" d="M214.426 70.1343C214.672 43.0514 192.916 20.8971 165.833 20.6513C138.75 20.4055 116.596 42.1613 116.35 69.2442C116.104 96.3271 137.86 118.481 164.943 118.727C192.026 118.973 214.18 97.2173 214.426 70.1343Z" stroke="#222221" stroke-miterlimit="10"/>
<path opacity="0.21" d="M100.11 34.5199C97.59 34.6899 95.4 32.7799 95.23 30.2599C95.06 27.7399 96.97 25.5499 99.49 25.3799C102.01 25.2099 104.2 27.1199 104.37 29.6399C104.54 32.1599 102.63 34.3499 100.11 34.5199Z" fill="#CCCCCC"/>
<path opacity="0.21" d="M428.539 429.659C434.562 411.088 424.391 391.151 405.82 385.128C387.249 379.104 367.311 389.276 361.288 407.847C355.265 426.418 365.436 446.355 384.007 452.379C402.578 458.402 422.516 448.23 428.539 429.659Z" stroke="#222221" stroke-miterlimit="10"/>
<path opacity="0.21" d="M368.13 461.19C370.43 458.21 374.71 457.66 377.69 459.96C380.67 462.26 381.22 466.54 378.92 469.52C376.62 472.5 372.34 473.05 369.36 470.75C366.38 468.45 365.83 464.17 368.13 461.19Z" fill="#CCCCCC"/>
<path opacity="0.21" d="M435.43 227.429C459.614 219.139 472.499 192.814 464.21 168.63C455.92 144.446 429.595 131.561 405.411 139.851C381.227 148.14 368.342 174.465 376.632 198.649C384.921 222.833 411.246 235.718 435.43 227.429Z" stroke="#222221" stroke-miterlimit="10"/>
<path opacity="0.21" d="M454.76 131.52C452.45 132.13 450.09 130.75 449.48 128.44C448.87 126.13 450.25 123.77 452.56 123.16C454.87 122.55 457.23 123.93 457.84 126.24C458.45 128.55 457.07 130.91 454.76 131.52Z" fill="#CCCCCC"/>
<path opacity="0.21" d="M85.069 394.509C103.146 376.432 103.146 347.123 85.069 329.045C66.9916 310.968 37.6824 310.968 19.605 329.045C1.52765 347.122 1.52766 376.432 19.605 394.509C37.6824 412.586 66.9916 412.586 85.069 394.509Z" stroke="#222221" stroke-miterlimit="10"/>
<path opacity="0.21" d="M110.98 340.49C108.76 339.6 107.69 337.08 108.58 334.86C109.47 332.64 111.99 331.57 114.21 332.46C116.43 333.35 117.5 335.87 116.61 338.09C115.72 340.31 113.2 341.38 110.98 340.49Z" fill="#CCCCCC"/>
<path opacity="0.21" d="M180.757 464.033C201.85 442.941 201.85 408.743 180.757 387.651C159.665 366.559 125.468 366.559 104.376 387.651C83.2834 408.743 83.2834 442.941 104.376 464.033C125.468 485.125 159.665 485.125 180.757 464.033Z" stroke="#222221" stroke-miterlimit="10"/>
<path opacity="0.21" d="M71.2499 464.97C67.7599 463.57 66.0699 459.6 67.4699 456.1C68.8699 452.6 72.8399 450.92 76.3399 452.32C79.8299 453.73 81.5199 457.69 80.1199 461.19C78.7199 464.69 74.7499 466.37 71.2499 464.97Z" fill="#CCCCCC"/>
<path opacity="0.21" d="M109.822 185.748C124.936 159.832 116.179 126.572 90.2639 111.459C64.3487 96.3457 31.0886 105.102 15.9754 131.018C0.862081 156.933 9.61873 190.193 35.5339 205.306C61.449 220.419 94.7092 211.663 109.822 185.748Z" stroke="#222221" stroke-miterlimit="10"/>
<path opacity="0.21" d="M80.43 93.14C78.05 93.34 75.96 91.58 75.76 89.2C75.56 86.82 77.32 84.73 79.7 84.53C82.08 84.33 84.17 86.09 84.37 88.47C84.57 90.85 82.81 92.94 80.43 93.14Z" fill="#CCCCCC"/>
<path opacity="0.21" d="M124.592 322.136C154.019 316.298 173.142 287.711 167.304 258.284C161.467 228.858 132.88 209.735 103.453 215.572C74.0263 221.409 54.9034 249.997 60.7407 279.423C66.578 308.85 95.1652 327.973 124.592 322.136Z" stroke="#222221" stroke-miterlimit="10"/>
<path opacity="0.21" d="M50.8699 292.86C52.4299 294.67 52.2199 297.4 50.4099 298.96C48.5999 300.52 45.8699 300.31 44.3099 298.5C42.7499 296.69 42.9599 293.96 44.7699 292.4C46.5799 290.84 49.3099 291.05 50.8699 292.86Z" fill="#CCCCCC"/>
<path opacity="0.21" d="M401.739 110.833C422.952 89.6194 422.952 55.2259 401.739 34.0126C380.526 12.7993 346.132 12.7993 324.919 34.0126C303.706 55.2259 303.706 89.6194 324.919 110.833C346.132 132.046 380.526 132.046 401.739 110.833Z" stroke="#222221" stroke-miterlimit="10"/>
<path opacity="0.21" d="M431.56 53.55C431.95 49.39 435.63 46.33 439.79 46.72C443.95 47.11 447.01 50.79 446.62 54.95C446.23 59.11 442.55 62.17 438.39 61.78C434.23 61.39 431.17 57.71 431.56 53.55Z" fill="#CCCCCC"/>
<path opacity="0.21" d="M452.806 327.908C458.315 298.418 438.874 270.046 409.384 264.538C379.893 259.03 351.522 278.471 346.013 307.961C340.505 337.451 359.946 365.823 389.436 371.331C418.926 376.84 447.298 357.398 452.806 327.908Z" stroke="#222221" stroke-miterlimit="10"/>
<path opacity="0.21" d="M445.4 264.17C441.38 265.3 437.28 263.21 436.25 259.52C435.22 255.83 437.64 251.92 441.66 250.8C445.68 249.67 449.78 251.76 450.81 255.45C451.84 259.14 449.42 263.05 445.4 264.17Z" fill="#CCCCCC"/>
<path d="M453.35 189.21V178.73C453.35 177.47 452.33 176.45 451.07 176.45H448.57C447.81 176.45 447.14 175.96 446.91 175.24C446.63 174.4 446.32 173.57 445.96 172.77C445.67 172.11 445.81 171.34 446.32 170.82L448.03 169.11C448.92 168.22 448.92 166.78 448.03 165.89L440.62 158.48C439.73 157.59 438.29 157.59 437.4 158.48L435.97 159.91C435.44 160.44 434.62 160.57 433.95 160.23C433.07 159.79 432.16 159.4 431.23 159.07C430.53 158.82 430.07 158.16 430.07 157.42V155.44C430.07 154.18 429.05 153.16 427.79 153.16H417.31C416.05 153.16 415.03 154.18 415.03 155.44V157.42C415.03 158.16 414.56 158.82 413.87 159.07C412.94 159.41 412.03 159.8 411.15 160.23C410.47 160.57 409.66 160.44 409.13 159.91L407.7 158.48C406.81 157.59 405.37 157.59 404.48 158.48L397.07 165.89C396.18 166.78 396.18 168.22 397.07 169.11L398.78 170.82C399.29 171.33 399.43 172.1 399.14 172.77C398.78 173.57 398.46 174.4 398.19 175.24C397.96 175.96 397.29 176.45 396.53 176.45H394.03C392.77 176.45 391.76 177.47 391.76 178.73V189.21C391.76 190.47 392.78 191.49 394.03 191.49H397.09C397.81 191.49 398.45 191.93 398.72 192.6C398.99 193.28 399.28 193.94 399.61 194.59C399.95 195.27 399.82 196.08 399.29 196.61L397.08 198.82C396.19 199.71 396.19 201.15 397.08 202.04L404.49 209.45C405.38 210.34 406.82 210.34 407.71 209.45L410.2 206.96C410.72 206.44 411.49 206.31 412.16 206.6C412.72 206.85 413.3 207.08 413.88 207.3C414.58 207.55 415.05 208.21 415.05 208.95V212.49C415.05 213.75 416.07 214.77 417.33 214.77H427.81C429.07 214.77 430.09 213.75 430.09 212.49V208.95C430.09 208.21 430.55 207.56 431.25 207.31C432.01 207.03 432.76 206.72 433.49 206.38C434.16 206.06 434.95 206.2 435.48 206.72L437.43 208.67C438.32 209.56 439.76 209.56 440.65 208.67L448.06 201.26C448.95 200.37 448.95 198.93 448.06 198.04L446.11 196.09C445.59 195.57 445.45 194.78 445.77 194.11C446 193.61 446.22 193.11 446.42 192.6C446.68 191.93 447.33 191.49 448.05 191.49H451.11C452.37 191.49 453.39 190.47 453.39 189.21H453.35ZM423.38 195.86C415.72 196.34 409.41 190.03 409.89 182.37C410.29 176.05 415.41 170.93 421.73 170.53C429.39 170.05 435.7 176.36 435.22 184.02C434.82 190.34 429.7 195.46 423.38 195.86Z" fill="#F9D400" stroke="black" stroke-miterlimit="10"/>
<path d="M35.54 364.34L38.38 383.01L78.55 345.68L35.54 364.34Z" fill="#F9D400" stroke="black" stroke-linecap="round" stroke-linejoin="round"/>
<path d="M78.55 345.68L41.22 370.83L55.02 383.01L78.55 345.68Z" fill="#F9D400" stroke="black" stroke-linecap="round" stroke-linejoin="round"/>
<path d="M78.55 345.68L35.54 364.34L21.74 355.01L78.55 345.68Z" fill="#F9D400" stroke="black" stroke-linecap="round" stroke-linejoin="round"/>
<path d="M41.22 370.83L38.38 383.01" stroke="black" stroke-linecap="round" stroke-linejoin="round"/>
<path d="M175.05 89.7C176.94 84.78 179.97 80.36 183.97 76.92C188.16 73.31 191.14 68.25 192.05 62.35C194.11 49.07 184.92 36.65 171.57 34.77C158.4 32.91 146.11 42.22 144.31 55.4C143.54 61.05 144.8 66.53 147.54 71.08C150.28 75.64 151.97 80.76 152.28 86.07" fill="#F9D400"/>
<path d="M175.05 89.7C176.94 84.78 179.97 80.36 183.97 76.92C188.16 73.31 191.14 68.25 192.05 62.35C194.11 49.07 184.92 36.65 171.57 34.77C158.4 32.91 146.11 42.22 144.31 55.4C143.54 61.05 144.8 66.53 147.54 71.08C150.28 75.64 151.97 80.76 152.28 86.07" stroke="black" stroke-miterlimit="10"/>
<path d="M175.05 89.7C176.94 84.78 179.97 80.36 183.97 76.92C188.16 73.31 191.14 68.25 192.05 62.35C194.11 49.07 184.92 36.65 171.57 34.77C158.4 32.91 146.11 42.22 144.31 55.4C143.54 61.05 144.8 66.53 147.54 71.08C150.28 75.64 151.97 80.76 152.28 86.07" stroke="black" stroke-miterlimit="10"/>
<path d="M152.283 86.0656L175.1 89.606L173.69 98.6873C173.066 102.709 169.299 105.464 165.278 104.84L157.036 103.561C153.014 102.937 150.259 99.1703 150.883 95.1484L152.292 86.0671L152.283 86.0656Z" stroke="black" stroke-miterlimit="10"/>
<path d="M169.47 88.7301C172.1 81.2301 176.07 69.8101 177.56 64.8001C178.04 63.1901 178.54 59.5301 175.63 58.3601C171.49 56.7001 167.87 65.7201 171.3 66.1901C172.63 66.3701 173.43 64.7901 173.36 62.8401C173.12 56.5601 164.18 55.1701 162.05 61.0801C161.39 62.9101 161.68 64.6601 163 64.9001C166.41 65.5001 165.69 55.7901 161.24 56.1301C158.11 56.3601 157.48 60.0001 157.45 61.6801C157.35 66.9101 157.67 78.9901 157.9 86.9401" stroke="black" stroke-miterlimit="10"/>
<path d="M151.79 89.1901L174.61 92.7301" stroke="black" stroke-miterlimit="10"/>
<path d="M151.49 91.15L174.31 94.69" stroke="black" stroke-miterlimit="10"/>
<path d="M151.19 93.1101L174.01 96.6501" stroke="black" stroke-miterlimit="10"/>
<path d="M150.88 95.0701L173.7 98.6101" stroke="black" stroke-miterlimit="10"/>
<path d="M334.853 54.3379L391.206 45.775C393.658 45.4025 395.959 47.0961 396.331 49.548L401.801 85.5448C402.173 87.9966 400.48 90.2972 398.028 90.6697L341.675 99.2326C339.223 99.6051 336.922 97.9115 336.55 95.4597L331.08 59.4628C330.708 57.011 332.401 54.7105 334.853 54.3379Z" fill="#F9D400" stroke="black" stroke-miterlimit="10"/>
<path d="M332.52 56.3101L363.6 77.4901C365.68 78.9101 368.5 78.4801 370.07 76.5201L393.93 46.7001" stroke="#222221" stroke-linecap="round" stroke-linejoin="round"/>
<path d="M376.82 68.99L400.39 89.19" stroke="#222221" stroke-linecap="round" stroke-linejoin="round"/>
<path d="M355.71 72.2001L339.2 98.4901" stroke="#222221" stroke-linecap="round" stroke-linejoin="round"/>
<path d="M394.76 436.33C394.14 438.3 392.04 439.39 390.08 438.77C388.12 438.15 387.03 436.05 387.65 434.09C388.27 432.13 390.37 431.03 392.33 431.65C394.29 432.27 395.38 434.37 394.76 436.33Z" fill="#F9D400" stroke="black" stroke-miterlimit="10"/>
<path d="M376.83 417.78C376.43 417.69 376.06 417.44 375.83 417.06C375.36 416.3 375.59 415.31 376.34 414.84C383 410.69 391.1 409.65 398.54 412.01C404.59 413.92 409.78 417.96 413.15 423.38C413.62 424.14 413.39 425.13 412.63 425.6C411.87 426.07 410.88 425.84 410.41 425.08C407.45 420.32 402.89 416.77 397.57 415.09C391.02 413.01 383.91 413.93 378.06 417.58C377.68 417.82 377.24 417.88 376.84 417.78H376.83Z" fill="#F9D400" stroke="black" stroke-miterlimit="10"/>
<path d="M371.82 409.72C371.42 409.63 371.05 409.38 370.82 409C370.35 408.24 370.58 407.25 371.33 406.78C380.34 401.16 391.31 399.77 401.4 402.96C409.62 405.56 416.65 411.02 421.2 418.35C421.67 419.11 421.44 420.1 420.68 420.57C419.92 421.04 418.93 420.81 418.46 420.05C414.31 413.38 407.91 408.4 400.43 406.03C391.23 403.11 381.25 404.39 373.04 409.52C372.66 409.76 372.22 409.82 371.82 409.72Z" fill="#F9D400" stroke="black" stroke-miterlimit="10"/>
<path d="M381.84 425.83C381.44 425.74 381.07 425.49 380.84 425.11C380.37 424.35 380.6 423.36 381.35 422.89C385.65 420.21 390.87 419.55 395.68 421.06C399.59 422.3 402.94 424.91 405.11 428.4C405.58 429.16 405.35 430.15 404.59 430.62C403.83 431.09 402.84 430.86 402.37 430.1C400.61 427.26 397.88 425.14 394.71 424.13C390.8 422.9 386.56 423.44 383.06 425.62C382.68 425.86 382.24 425.92 381.84 425.82V425.83Z" fill="#F9D400" stroke="black" stroke-miterlimit="10"/>
<path d="M38.0399 180.93C35.3599 185.16 36.6199 190.75 40.8399 193.43L42.2299 194.31C46.4599 196.99 52.0499 195.73 54.7299 191.51L55.7299 189.93L39.0399 179.36L38.0399 180.94V180.93Z" fill="white" stroke="#222221" stroke-linecap="round" stroke-linejoin="round"/>
<path d="M85.7999 142.47C85.8699 142.36 85.9399 142.23 85.9899 142.11L85.8199 142.18C85.6299 142.26 85.4399 142.31 85.2399 142.34L81.2799 142.82C80.1599 142.96 79.1299 142.19 78.9299 141.08L78.3799 138.01C78.1599 136.8 76.9699 136.02 75.7699 136.32L72.6099 137.11C71.5099 137.38 70.3999 136.75 70.0699 135.67L68.9699 132.1L41.6599 175.2L58.3499 185.77L85.7999 142.44V142.47Z" fill="#F9D400" stroke="black" stroke-miterlimit="10"/>
<path d="M41.6654 175.218L40.3597 177.279L57.0529 187.852L58.3585 185.791L41.6654 175.218Z" fill="white" stroke="#222221" stroke-linecap="round" stroke-linejoin="round"/>
<path d="M40.3458 177.307L39.0398 179.368L55.7311 189.944L57.0371 187.883L40.3458 177.307Z" fill="white" stroke="#222221" stroke-linecap="round" stroke-linejoin="round"/>
<path d="M86.2299 141.01L86.2798 131.12C84.9598 130.9 83.5498 130.38 82.2198 129.54C80.9298 128.72 79.8798 127.71 79.1298 126.64L70.2498 130.89C69.7798 131.11 69.3898 131.46 69.1098 131.9L68.9698 132.12L70.0698 135.69C70.3998 136.77 71.5198 137.4 72.6098 137.13L75.7698 136.34C76.9598 136.04 78.1598 136.82 78.3798 138.03L78.9298 141.1C79.1298 142.21 80.1598 142.97 81.2798 142.84L85.2398 142.36C85.4398 142.34 85.6398 142.28 85.8198 142.2L85.9898 142.13C86.1398 141.78 86.2299 141.41 86.2299 141.03V141.01Z" fill="white" stroke="#222221" stroke-linecap="round" stroke-linejoin="round"/>
<path d="M86.2799 131.12L86.2999 127.6C86.3099 125.57 84.1899 124.22 82.3499 125.1L79.1299 126.64C79.8899 127.71 80.9299 128.72 82.2199 129.54C83.5499 130.38 84.9499 130.91 86.2799 131.12Z" fill="#F9D400" stroke="black" stroke-miterlimit="10"/>
<path d="M70.8899 136.8L45.1499 177.43" stroke="#222221" stroke-linecap="round" stroke-linejoin="round"/>
<path d="M80.0599 142.61L54.3199 183.24" stroke="#222221" stroke-linecap="round" stroke-linejoin="round"/>
<path d="M116.81 396.89L108.57 405.18C106.07 407.7 106.08 411.76 108.6 414.26L154.43 459.82C156.95 462.32 161.01 462.31 163.51 459.79L171.75 451.5C174.25 448.98 174.24 444.92 171.72 442.42L125.89 396.86C123.37 394.36 119.31 394.37 116.81 396.89ZM164.45 452.48C163.63 453.31 162.29 453.31 161.46 452.48C160.63 451.66 160.63 450.32 161.46 449.49C162.28 448.66 163.62 448.66 164.45 449.49C165.28 450.31 165.28 451.65 164.45 452.48Z" fill="white" stroke="#222221" stroke-linecap="round" stroke-linejoin="round"/>
<path d="M124.809 398.817L110.547 413.164L119.072 421.639L133.334 407.291L124.809 398.817Z" fill="#F9D400" stroke="black" stroke-miterlimit="10"/>
<path d="M135.055 408.995L120.793 423.342L129.318 431.816L143.58 417.469L135.055 408.995Z" fill="#F9D400" stroke="black" stroke-miterlimit="10"/>
<path d="M145.308 419.18L131.046 433.527L139.571 442.001L153.833 427.654L145.308 419.18Z" fill="#F9D400" stroke="black" stroke-miterlimit="10"/>
<path d="M155.544 429.371L141.282 443.719L149.807 452.193L164.069 437.846L155.544 429.371Z" fill="#F9D400" stroke="black" stroke-miterlimit="10"/>
<path d="M130.31 387.64L120.36 393.77C117.34 395.63 116.4 399.59 118.26 402.61L152.17 457.61C154.03 460.63 157.99 461.57 161.01 459.71L170.96 453.58C173.98 451.72 174.92 447.76 173.06 444.74L139.15 389.74C137.29 386.72 133.33 385.78 130.31 387.64ZM163.64 452.82C162.65 453.43 161.34 453.12 160.73 452.13C160.12 451.14 160.43 449.83 161.42 449.22C162.41 448.61 163.72 448.92 164.33 449.91C164.94 450.9 164.63 452.21 163.64 452.82Z" fill="white" stroke="#222221" stroke-linecap="round" stroke-linejoin="round"/>
<path d="M137.641 391.371L120.421 401.99L126.73 412.221L143.95 401.603L137.641 391.371Z" fill="#F9D400" stroke="black" stroke-miterlimit="10"/>
<path d="M145.222 403.659L128.002 414.277L134.311 424.508L151.531 413.89L145.222 403.659Z" fill="#F9D400" stroke="black" stroke-miterlimit="10"/>
<path d="M152.81 415.959L135.59 426.578L141.899 436.809L159.119 426.191L152.81 415.959Z" fill="#F9D400" stroke="black" stroke-miterlimit="10"/>
<path d="M160.388 428.26L143.168 438.879L149.477 449.11L166.697 438.491L160.388 428.26Z" fill="#F9D400" stroke="black" stroke-miterlimit="10"/>
<path d="M144.44 382.29L133.43 386.21C130.09 387.4 128.35 391.07 129.53 394.41L151.21 455.28C152.4 458.62 156.07 460.36 159.41 459.18L170.42 455.26C173.76 454.07 175.5 450.4 174.32 447.06L152.64 386.19C151.45 382.85 147.78 381.11 144.44 382.29ZM163.42 453C162.32 453.39 161.11 452.82 160.72 451.72C160.33 450.62 160.9 449.41 162 449.02C163.1 448.63 164.31 449.2 164.7 450.3C165.09 451.4 164.52 452.61 163.42 453Z" fill="white" stroke="#222221" stroke-linecap="round" stroke-linejoin="round"/>
<path d="M150.824 387.483L131.766 394.27L135.798 405.593L154.856 398.807L150.824 387.483Z" fill="#F9D400" stroke="black" stroke-miterlimit="10"/>
<path d="M155.669 401.091L136.611 407.877L140.643 419.201L159.701 412.415L155.669 401.091Z" fill="#F9D400" stroke="black" stroke-miterlimit="10"/>
<path d="M160.513 414.706L141.455 421.492L145.488 432.815L164.545 426.029L160.513 414.706Z" fill="#F9D400" stroke="black" stroke-miterlimit="10"/>
<path d="M165.371 428.32L146.313 435.106L150.345 446.429L169.403 439.643L165.371 428.32Z" fill="#F9D400" stroke="black" stroke-miterlimit="10"/>
<path d="M78.36 247.96C78.36 247.96 89.37 254.83 92.79 267.35C95.69 277.98 98.88 279.59 98.88 279.59L89.19 277.99L78.37 247.97L78.36 247.96Z" fill="white" stroke="#222221" stroke-linecap="round" stroke-linejoin="round"/>
<path d="M92.78 267.34C92.78 267.34 85.04 253.69 74.12 250.21L91.99 287.57" fill="white"/>
<path d="M92.78 267.34C92.78 267.34 85.04 253.69 74.12 250.21L91.99 287.57" stroke="#222221" stroke-linecap="round" stroke-linejoin="round"/>
<path d="M92.78 267.34C92.78 267.34 99.55 241.98 121.58 236.43L136.62 269.6" fill="white"/>
<path d="M92.78 267.34C92.78 267.34 99.55 241.98 121.58 236.43L136.62 269.6" stroke="#222221" stroke-linecap="round" stroke-linejoin="round"/>
<path d="M94.25 266.93C94.25 266.93 101.99 246.81 129 239.02L145.45 291.04C145.45 291.04 118.88 295.32 115.99 310.72" fill="white"/>
<path d="M94.25 266.93C94.25 266.93 101.99 246.81 129 239.02L145.45 291.04C145.45 291.04 118.88 295.32 115.99 310.72" stroke="#222221" stroke-linecap="round" stroke-linejoin="round"/>
<path d="M94.25 266.93C94.25 266.93 106.49 246.58 137.02 244.07L154.64 297.49C154.64 297.49 126.52 298.19 115.99 310.71L94.25 266.93Z" fill="#F9D400" stroke="black" stroke-miterlimit="10"/>
<path d="M94.2499 266.93L115.98 310.71L112.64 312.19L91.3099 267.76L94.2499 266.93Z" fill="white" stroke="#222221" stroke-linecap="round" stroke-linejoin="round"/>
<path d="M91.31 267.76C91.31 267.76 82.5 255.4 71.35 251.89L94.24 301.83C94.24 301.83 103.44 303.5 112.63 312.19L91.3 267.76H91.31Z" fill="#F9D400" stroke="black" stroke-miterlimit="10"/>
<path d="M400.799 318.038L394.347 320.621L398.031 329.821L404.483 327.238L400.799 318.038Z" fill="white" stroke="#222221" stroke-linecap="round" stroke-linejoin="round"/>
<path d="M407.7 327.09C407.27 326.02 406.05 325.5 404.98 325.93L396.73 329.23C395.66 329.66 395.14 330.88 395.57 331.95L396.32 333.82L408.45 328.96L407.7 327.09Z" fill="white" stroke="#222221" stroke-linecap="round" stroke-linejoin="round"/>
<path d="M406.29 358.74C407.23 361.1 409.91 362.24 412.27 361.3L415.87 359.86C418.23 358.92 419.37 356.24 418.43 353.88L409.37 331.24L397.24 336.1L406.3 358.74H406.29Z" fill="white" stroke="#222221" stroke-linecap="round" stroke-linejoin="round"/>
<path d="M408.439 329.012L396.305 333.868L397.215 336.142L409.349 331.287L408.439 329.012Z" fill="white" stroke="#222221" stroke-linecap="round" stroke-linejoin="round"/>
<path d="M394.193 323.609C407.694 321.022 416.541 307.98 413.953 294.479C411.366 280.978 398.323 272.132 384.823 274.719C371.322 277.307 362.475 290.349 365.063 303.849C367.651 317.35 380.693 326.197 394.193 323.609Z" fill="white" stroke="#222221" stroke-linecap="round" stroke-linejoin="round"/>
<path d="M381.7 279.73C370.94 284.04 365.71 296.25 370.02 307C370.32 307.76 370.68 308.48 371.05 309.18L392.9 278.52C389.24 277.91 385.38 278.24 381.69 279.72L381.7 279.73Z" fill="#F9D400" stroke="black" stroke-miterlimit="10"/>
<path d="M392.91 278.53L371.06 309.19C372.51 311.87 374.48 314.11 376.79 315.87L401.11 281.74C398.64 280.1 395.84 279.01 392.91 278.53Z" fill="white" stroke="#222221" stroke-linecap="round" stroke-linejoin="round"/>
<path d="M389.26 320.18C391.93 320.21 394.65 319.74 397.29 318.68C407.8 314.47 413 302.73 409.23 292.17L389.26 320.18Z" fill="#F9D400" stroke="black" stroke-miterlimit="10"/>
<path d="M401.11 281.74L376.79 315.87C378.81 317.41 381.09 318.57 383.51 319.3L406.54 287C405.04 284.91 403.2 283.13 401.12 281.75L401.11 281.74Z" fill="#F9D400" stroke="black" stroke-miterlimit="10"/>
<path d="M408.97 291.41C408.33 289.8 407.49 288.34 406.53 286.99L383.5 319.29C385.36 319.85 387.3 320.15 389.26 320.18L409.23 292.17C409.14 291.92 409.07 291.66 408.97 291.41Z" fill="white" stroke="#222221" stroke-linecap="round" stroke-linejoin="round"/>
<path d="M218.26 367.93C216.34 369.93 214.01 378.14 214.01 378.14C225.57 384.17 256.12 403.82 256.12 403.82C256.65 404.12 257.16 404.4 257.66 404.68C255.89 411.79 253.05 418.36 248.49 423.74C248.3 423.67 248.12 423.61 247.93 423.55C247.93 423.55 184.87 399.72 184.33 394.82C171.57 384.78 178.71 365.54 178.71 365.54L186.12 359.43C200.95 359.46 220.23 365.87 218.26 367.94V367.93Z" fill="black"/>
<path d="M320.96 380.69C340.16 374.04 334.75 395.8 334.75 395.8C334.75 395.8 339.09 430.41 333.19 430.52C327.3 430.63 316.11 400.65 316.11 400.65C314.52 400.88 312.78 401.12 310.94 401.36C312.54 394.51 312.05 387.36 310.37 380.21C317.12 380.51 320.96 380.68 320.96 380.68V380.69Z" fill="white" stroke="black" stroke-linecap="round" stroke-linejoin="round"/>
<path d="M265.96 408.37C286.26 410.36 272.06 427.78 272.06 427.78C272.06 427.78 261.25 460.88 255.84 458.53C250.43 456.17 253.04 424.41 253.04 424.41C251.5 423.96 249.81 423.45 248.03 422.9C252.4 417.37 255.01 410.71 256.53 403.54C262.55 406.62 265.96 408.38 265.96 408.38V408.37Z" fill="white" stroke="black" stroke-linecap="round" stroke-linejoin="round"/>
<path d="M251.32 445.15C251.5 455.66 254.19 460.04 254.19 460.04C254.19 460.04 255.62 460.14 262.35 448.56C259.05 446.2 255.11 444.99 251.32 445.15Z" fill="white" stroke="black" stroke-linecap="round" stroke-linejoin="round"/>
<path d="M264.38 407.06C265.57 421.18 252.31 431.59 252.31 431.59C251.51 436.93 251.26 441.42 251.33 445.15C255.13 445 259.06 446.2 262.36 448.56C264.09 445.57 266.17 441.83 268.68 437.08C280.9 413.94 275.05 410.2 275.05 410.2C269 407.34 264.68 407.28 264.39 407.05L264.38 407.06Z" fill="white" stroke="black" stroke-linecap="round" stroke-linejoin="round"/>
<path d="M275.04 410.21C276.2 410.82 277.39 411.51 278.6 412.33C278.6 412.33 277.96 420.26 269.7 439C260.47 459.94 256.58 461.45 256.58 461.45C256.58 461.45 255.49 461.14 254.18 460.05C268.28 439.71 273.27 420.68 275.03 410.22L275.04 410.21Z" fill="white" stroke="black" stroke-linecap="round" stroke-linejoin="round"/>
<path d="M260.51 439.31C260.51 439.31 260.51 439.33 260.5 439.34C260.42 439.49 260.22 439.55 260.07 439.46C255.44 436.93 251.82 439.41 251.66 439.52C251.52 439.62 251.32 439.59 251.22 439.44C251.12 439.3 251.15 439.1 251.29 439C251.33 438.97 255.39 436.18 260.37 438.91C260.52 438.99 260.57 439.16 260.51 439.31Z" fill="#1C1D27"/>
<path d="M260.43 434.44C260.36 434.6 260.17 434.67 260.01 434.6C254.89 432.35 251.66 434.53 251.62 434.56C251.48 434.66 251.28 434.62 251.18 434.48C251.08 434.34 251.11 434.14 251.25 434.04C251.39 433.94 254.8 431.62 260.26 434.02C260.42 434.09 260.49 434.27 260.42 434.43L260.43 434.44Z" fill="#1C1D27"/>
<path d="M254.54 433.67C254.49 433.78 254.38 433.86 254.25 433.86C253.71 433.86 248.98 433.77 247.85 432.13C247.57 431.72 247.52 431.23 247.73 430.72C247.97 430.09 248.43 429.87 248.76 429.81C250.67 429.45 254.09 432.93 254.47 433.33C254.56 433.42 254.58 433.56 254.53 433.67H254.54ZM248.34 430.9C248.34 430.9 248.33 430.93 248.32 430.95C248.19 431.27 248.21 431.53 248.38 431.78C249.05 432.76 251.8 433.11 253.46 433.21C252.22 432.03 250.02 430.22 248.89 430.43C248.73 430.46 248.5 430.54 248.34 430.91V430.9Z" fill="#1C1D27"/>
<path d="M254.61 433.7C254.56 433.81 254.46 433.88 254.34 433.89C254.21 433.89 254.09 433.83 254.04 433.72C253.8 433.24 251.72 429.02 252.71 427.3C252.96 426.87 253.38 426.61 253.93 426.57C254.62 426.51 255.01 426.82 255.22 427.08C256.41 428.61 254.81 433.17 254.63 433.69C254.63 433.69 254.63 433.7 254.63 433.71L254.61 433.7ZM253.21 427.7C252.73 428.78 253.62 431.26 254.27 432.72C254.77 431.11 255.42 428.36 254.71 427.46C254.61 427.33 254.42 427.15 253.98 427.19C253.63 427.22 253.4 427.35 253.26 427.6C253.24 427.63 253.23 427.66 253.21 427.7Z" fill="#1C1D27"/>
<path d="M241.23 264.88L273.97 274.22C278.08 282.6 283.53 304.14 278.36 324.54C275.48 335.9 272.15 347.93 268.63 360.01C253.95 362.31 239.27 365.09 226.07 371.69L226.5 368.94L231.65 335.73" fill="black"/>
<path d="M231.64 335.73L217.64 369.92L211.82 384.14C200.01 381.51 188.21 378.84 176.52 375.93C176.68 375.14 176.83 374.34 176.99 373.55C182.96 343.39 188.61 315 189.52 310.87C194.77 286.98 215.31 257.49 215.31 257.49L241.23 264.89" fill="black"/>
<path d="M268.63 360.01C267.83 362.74 267.03 365.47 266.22 368.2C265.43 370.85 264.64 373.49 263.84 376.12C276.87 376.35 308.61 380.13 308.61 380.13C309.22 380.16 309.8 380.18 310.37 380.21C312.05 387.36 312.54 394.51 310.94 401.36C310.74 401.39 310.56 401.41 310.35 401.44C310.35 401.44 241.06 409.44 238.33 405.29C223.22 399.56 224.12 384.21 224.12 384.21L226.06 371.69C239.26 365.09 253.94 362.31 268.62 360.01H268.63Z" fill="black"/>
<path d="M251.62 325.62C236.84 323.48 222.29 319.75 208.29 314.54" stroke="white" stroke-width="0.47" stroke-linecap="round" stroke-linejoin="round"/>
<path d="M231.44 337.04L233.23 322.11" stroke="white" stroke-width="0.47" stroke-linecap="round" stroke-linejoin="round"/>
<path d="M311.39 385.58C311.39 385.58 264.31 386.98 257.03 381.37C249.75 375.76 270.99 332.75 271.77 317.14C272.54 301.53 269.79 286.24 269.79 286.24" stroke="white" stroke-width="0.47" stroke-linecap="round" stroke-linejoin="round"/>
<path d="M232.66 312.77L240.04 277.46" stroke="white" stroke-width="0.47" stroke-linecap="round" stroke-linejoin="round"/>
<path d="M271.66 303.32C271.66 303.32 255.85 294.27 257 281.54" stroke="white" stroke-width="0.47" stroke-linecap="round" stroke-linejoin="round"/>
<path d="M220.69 272.33C220.69 272.33 213.04 286.13 199.33 284.79" stroke="white" stroke-width="0.47" stroke-linecap="round" stroke-linejoin="round"/>
<path d="M233.21 310.13C233.21 310.13 227.89 312.35 230.61 298.58C233.33 284.81 234.85 277.53 234.85 277.53" stroke="white" stroke-width="0.47" stroke-linecap="round" stroke-linejoin="round"/>
<path d="M251.62 325.62C236.84 323.48 222.29 319.75 208.29 314.54" stroke="white" stroke-width="0.47" stroke-linecap="round" stroke-linejoin="round"/>
<path d="M231.44 337.04L233.23 322.11" stroke="white" stroke-width="0.47" stroke-linecap="round" stroke-linejoin="round"/>
<path d="M311.39 385.58C311.39 385.58 264.31 386.98 257.03 381.37C249.75 375.76 270.99 332.75 271.77 317.14C272.54 301.53 269.79 286.24 269.79 286.24" stroke="white" stroke-width="0.47" stroke-linecap="round" stroke-linejoin="round"/>
<path d="M232.66 312.77L240.04 277.46" stroke="white" stroke-width="0.47" stroke-linecap="round" stroke-linejoin="round"/>
<path d="M271.66 303.32C271.66 303.32 255.85 294.27 257 281.54" stroke="white" stroke-width="0.47" stroke-linecap="round" stroke-linejoin="round"/>
<path d="M220.69 272.33C220.69 272.33 213.04 286.13 199.33 284.79" stroke="white" stroke-width="0.47" stroke-linecap="round" stroke-linejoin="round"/>
<path d="M233.21 310.13C233.21 310.13 227.89 312.35 230.61 298.58C233.33 284.81 234.85 277.53 234.85 277.53" stroke="white" stroke-width="0.47" stroke-linecap="round" stroke-linejoin="round"/>
<path d="M323.4 420.24C328.04 429.72 332.34 432.59 332.34 432.59C332.34 432.59 333.68 432.09 334.83 418.74C330.84 417.96 326.77 418.51 323.4 420.23V420.24Z" fill="white" stroke="black" stroke-linecap="round" stroke-linejoin="round"/>
<path d="M318.96 380.15C326.06 392.49 318.5 407.5 318.5 407.5C320.05 412.7 321.74 416.88 323.39 420.24C326.76 418.52 330.83 417.97 334.82 418.75C335.12 415.31 335.4 411.04 335.64 405.68C336.83 379.54 329.94 378.58 329.94 378.58C323.25 378.5 319.32 380.24 318.96 380.15Z" fill="white" stroke="black" stroke-linecap="round" stroke-linejoin="round"/>
<path d="M329.95 378.58C331.25 378.65 332.63 378.79 334.07 379.02C334.07 379.02 336.87 386.5 337.39 406.99C337.98 429.88 335.1 432.87 335.1 432.87C335.1 432.87 333.98 433.04 332.33 432.59C336.41 408.21 332.81 388.83 329.94 378.57L329.95 378.58Z" fill="white" stroke="black" stroke-linecap="round" stroke-linejoin="round"/>
<path d="M329.21 411.11C329.21 411.11 329.21 411.13 329.21 411.14C329.2 411.31 329.05 411.44 328.87 411.43C323.61 411.06 321.39 414.82 321.29 414.98C321.2 415.13 321.01 415.18 320.86 415.1C320.71 415.01 320.65 414.82 320.74 414.67C320.76 414.63 323.24 410.4 328.91 410.8C329.08 410.81 329.2 410.95 329.21 411.11Z" fill="#1C1D27"/>
<path d="M327.24 406.53C327.24 406.7 327.11 406.85 326.93 406.85C321.35 406.94 319.35 410.27 319.33 410.3C319.24 410.45 319.05 410.5 318.9 410.41C318.75 410.32 318.69 410.13 318.78 409.98C318.87 409.83 320.96 406.31 326.92 406.21C327.09 406.21 327.24 406.34 327.24 406.52V406.53Z" fill="#1C1D27"/>
<path d="M321.41 408.46C321.41 408.58 321.34 408.7 321.23 408.75C320.74 408.97 316.43 410.86 314.71 409.84C314.28 409.58 314.03 409.16 314 408.61C313.95 407.94 314.27 407.55 314.55 407.35C316.13 406.23 320.7 407.97 321.22 408.17C321.34 408.22 321.42 408.33 321.42 408.45L321.41 408.46ZM314.63 408.53C314.63 408.53 314.63 408.56 314.63 408.58C314.65 408.93 314.78 409.16 315.03 409.31C316.05 409.92 318.69 409.1 320.23 408.49C318.61 407.94 315.85 407.2 314.91 407.87C314.78 407.96 314.61 408.13 314.62 408.53H314.63Z" fill="#1C1D27"/>
<path d="M321.49 408.46C321.49 408.58 321.43 408.69 321.32 408.74C321.21 408.8 321.07 408.79 320.97 408.71C320.55 408.38 316.87 405.4 317.03 403.43C317.07 402.93 317.34 402.53 317.82 402.26C318.42 401.92 318.91 402.03 319.2 402.19C320.93 403.09 321.43 407.9 321.48 408.45C321.48 408.45 321.48 408.46 321.48 408.47L321.49 408.46ZM317.67 403.58C317.7 404.76 319.56 406.64 320.77 407.71C320.54 406.03 319.95 403.27 318.92 402.74C318.77 402.66 318.53 402.58 318.14 402.8C317.84 402.97 317.69 403.18 317.66 403.48C317.66 403.52 317.66 403.55 317.66 403.59L317.67 403.58Z" fill="#1C1D27"/>
<path d="M226.95 395.47C217.95 390.64 210.33 386.1 208.47 383.38C203.94 376.78 228.69 321.24 228.69 321.24" stroke="white" stroke-width="0.47" stroke-linecap="round" stroke-linejoin="round"/>
<path d="M254.85 409.45C254.85 409.45 252.49 408.35 248.82 406.58" stroke="white" stroke-width="0.47" stroke-linecap="round" stroke-linejoin="round"/>
<path d="M227.3 396.27C223.77 390.32 224.13 384.21 224.13 384.21L224.19 383.75" stroke="white" stroke-width="0.47" stroke-linecap="round" stroke-linejoin="round"/>
<path d="M255.91 406.26C246.37 406.7 241.61 406.36 238.33 405.3C232.75 403.18 229.35 399.76 227.29 396.28" stroke="white" stroke-width="0.47" stroke-linecap="round" stroke-linejoin="round"/>
<path d="M272.81 94.97C282.47 92.36 293.1 93.53 301.96 98.19C310.82 102.84 317.82 110.93 321.16 120.36C324.08 128.61 324.23 137.55 324.34 146.31C324.4 151.09 324.47 155.86 324.53 160.64C324.58 164.3 324.64 168.04 325.88 171.49C328.04 177.49 333.47 181.71 339.07 184.75C344.68 187.79 350.76 190.03 355.89 193.82C365.19 200.69 370.47 212.65 369.27 224.16" stroke="#202020" stroke-miterlimit="10"/>
<path d="M283.43 93.99C297.2 91.9 311.27 99.75 319 111.33C326.73 122.91 328.79 137.56 327.35 151.41C327.01 154.66 326.5 157.91 326.69 161.16C327.29 171.19 334.86 179.95 344.13 183.84C347.26 185.16 350.58 186 353.64 187.48C361.47 191.26 367.05 199.32 367.83 207.98" stroke="#202020" stroke-miterlimit="10"/>
<path d="M163.28 208.33C159.31 205.29 155.19 202.01 151.23 198.64L160.74 183.22L146.77 194.75C141.74 190.22 137.23 185.67 134.01 181.47C134.01 181.47 138.32 159.76 157.92 148.46C177.53 137.16 205.67 137.03 218.47 106.94L308.25 104.53C308.25 104.53 324.97 116.2 323.81 138.81C322.64 161.43 322.45 176.94 339.06 185.61C364.05 199.12 364.26 216.03 367.29 230.16C367.29 230.16 351.03 243.06 328.41 245.54L322.9 228.65L322.58 248.44C322.58 248.44 281.47 256.13 239.68 245.82C197.89 235.52 185.71 224.35 185.71 224.35C185.71 224.35 177.17 218.75 166.73 210.94L171.73 201.36L163.28 208.33Z" fill="black"/>
<path d="M276.63 89.05C264.41 77.92 244.22 76.88 230.91 86.68C215.65 97.93 210.85 119.72 195.2 130.42C184.79 137.53 171.29 138.5 160.27 144.64C145.16 153.07 136.83 170.06 132.57 186.83" stroke="#202020" stroke-miterlimit="10"/>
<path d="M267.34 179.05L265.41 186.18C257.37 186.76 249.41 185.54 242.38 182.61L244.14 172.23L267.34 179.05Z" fill="black"/>
<path d="M265.4 186.18L262.46 197.02C262.46 197.02 260.07 202.67 251.08 201.02C241 199.17 240.6 193.01 240.6 193.01L242.37 182.61C249.4 185.54 257.36 186.76 265.4 186.18Z" fill="white" stroke="black" stroke-linecap="round" stroke-linejoin="round"/>
<path d="M238.12 103.56C238.12 103.56 228.87 116.58 223.42 137.67C219.17 154.12 228.14 173.63 247.89 180.12C266.45 186.23 288.04 183.69 300.77 158.73C313.5 133.77 310.61 110.52 288.1 98.4301C265.59 86.3301 247.27 88.4001 238.12 103.56Z" fill="white" stroke="black" stroke-linecap="round" stroke-linejoin="round"/>
<path d="M226.7 134.18C223.11 132.36 214.5 129.42 210.99 140.63C207.06 153.18 218.11 158.33 225.73 154.09" fill="white"/>
<path d="M226.7 134.18C223.11 132.36 214.5 129.42 210.99 140.63C207.06 153.18 218.11 158.33 225.73 154.09" stroke="black" stroke-linecap="round" stroke-linejoin="round"/>
<path d="M223.55 151.25C223.55 151.25 223.47 151.22 223.44 151.19C223.31 151.09 223.29 150.9 223.4 150.77C223.45 150.71 228.36 144.53 224.33 140.02C222.91 138.44 221.33 137.6 219.62 137.53C216.66 137.41 214.29 139.65 214.27 139.67C214.15 139.78 213.96 139.78 213.85 139.67C213.73 139.55 213.74 139.36 213.85 139.24C213.95 139.14 216.43 136.81 219.64 136.93C221.52 137 223.25 137.91 224.78 139.62C229.16 144.51 223.93 151.09 223.87 151.15C223.79 151.24 223.67 151.28 223.56 151.25H223.55Z" fill="black"/>
<path d="M217.85 143.7C217.76 143.68 217.68 143.61 217.65 143.52C217.59 143.37 217.66 143.19 217.82 143.13C217.88 143.11 223.68 140.8 226.37 145.37C226.45 145.51 226.41 145.7 226.26 145.78C226.12 145.86 225.93 145.82 225.85 145.67C223.43 141.55 218.1 143.66 218.04 143.68C217.98 143.7 217.91 143.71 217.85 143.69V143.7Z" fill="black"/>
<path d="M255.44 161.26C259.89 162.41 261.36 158.85 261.37 158.81C261.43 158.66 261.36 158.48 261.2 158.42C261.05 158.36 260.87 158.43 260.81 158.59C260.75 158.73 259.34 162.09 254.79 160.43C254.63 160.38 254.46 160.45 254.4 160.61C254.34 160.77 254.42 160.94 254.58 161C254.88 161.11 255.16 161.2 255.43 161.27L255.44 161.26Z" fill="black"/>
<path d="M299.68 153.03C303.71 153.19 312.62 154.81 310.27 166.29C307.25 181.01 291.8 177.8 289.39 167.37" fill="white"/>
<path d="M299.68 153.03C303.71 153.19 312.62 154.81 310.27 166.29C307.25 181.01 291.8 177.8 289.39 167.37" stroke="black" stroke-linecap="round" stroke-linejoin="round"/>
<path d="M288.3 144.11C288.3 144.11 291.86 142.28 286.57 137.48C281.28 132.68 278.94 132.83 277.53 134.18C276.24 135.41 277.08 137.98 280.11 140.61C283.74 143.77 286.35 145.17 288.3 144.1V144.11Z" fill="black"/>
<path d="M238.27 131.18C238.27 131.18 236.04 127.86 242.99 126.22C249.95 124.58 251.91 125.85 252.49 127.71C253.02 129.41 251.05 131.25 247.12 132.09C242.41 133.1 239.45 133.06 238.26 131.17L238.27 131.18Z" fill="black"/>
<path d="M294.14 169.49C294.14 169.49 294.22 169.5 294.27 169.49C294.43 169.46 294.54 169.31 294.51 169.14C294.5 169.06 293.2 161.27 298.91 159.28C300.92 158.58 302.71 158.62 304.24 159.39C306.88 160.72 307.88 163.83 307.89 163.86C307.94 164.02 308.11 164.11 308.27 164.06C308.43 164.01 308.52 163.84 308.47 163.68C308.43 163.54 307.4 160.3 304.53 158.85C302.85 158 300.9 157.95 298.73 158.71C292.53 160.87 293.92 169.15 293.94 169.24C293.96 169.36 294.05 169.45 294.16 169.48L294.14 169.49Z" fill="black"/>
<path d="M302.78 165.65C302.87 165.67 302.97 165.65 303.04 165.59C303.17 165.49 303.19 165.3 303.09 165.17C303.05 165.12 299.09 160.29 294.52 162.99C294.38 163.07 294.33 163.26 294.41 163.4C294.49 163.54 294.68 163.59 294.82 163.51C298.94 161.08 302.58 165.51 302.61 165.55C302.65 165.6 302.71 165.64 302.77 165.65H302.78Z" fill="black"/>
<path d="M256.26 153.98C256.37 154.01 256.49 153.98 256.57 153.88C256.67 153.75 256.65 153.56 256.53 153.46C256.51 153.44 254.46 151.76 253.96 149.41C253.57 147.56 254.46 145.17 255.82 144.39C256.64 143.92 257.54 144.1 258.42 144.9C258.45 144.93 258.49 144.97 258.55 145.03C261.6 148.04 263.45 147.52 264.48 146.56C266.36 144.79 269.52 127.81 269.87 125.88C269.9 125.72 269.79 125.56 269.63 125.53C269.47 125.5 269.31 125.61 269.28 125.77C268.33 130.96 265.53 144.74 264.07 146.12C262.86 147.26 261.15 146.75 258.98 144.6C258.91 144.53 258.86 144.48 258.83 144.46C257.75 143.48 256.57 143.28 255.52 143.88C253.93 144.79 252.93 147.44 253.37 149.55C253.91 152.11 256.06 153.87 256.15 153.94C256.18 153.97 256.22 153.99 256.26 154V153.98Z" fill="black"/>
<path d="M271.09 150.53C270.61 152.52 271.54 154.46 273.18 154.85C274.81 155.25 276.53 153.95 277.01 151.96C277.49 149.97 276.56 148.03 274.92 147.64C273.29 147.24 271.57 148.54 271.09 150.53Z" fill="#040602"/>
<path d="M248.44 143.52C247.96 145.51 246.24 146.81 244.61 146.41C242.98 146.01 242.04 144.08 242.52 142.09C243 140.1 244.72 138.8 246.35 139.2C247.98 139.6 248.92 141.53 248.44 143.52Z" fill="#040602"/>
<path d="M280.36 91.73C280.36 91.73 336.62 97.09 309.28 156.24C309.28 156.24 307.09 153.51 299.7 152.39C292.32 151.27 289.07 125.47 290.13 117.32C290.13 117.32 247.85 139.49 222.58 133.45C218.7 132.52 215.61 132.51 214.49 133.57C213.36 134.63 210.66 104.07 229.32 91.88C252.26 76.91 270.2 84.95 280.36 91.72V91.73Z" fill="black"/>
<path d="M277.21 89.0301C269.06 84.6401 255.69 82.1001 246.21 83.6101C235.04 85.4001 225.22 93.1301 219.87 103.1C218.01 106.56 216.64 110.29 214.41 113.52C210.56 119.1 204.45 122.75 198.12 125.2C191.79 127.65 185.12 129.07 178.68 131.21C159.2 137.69 141.42 151.97 135.11 171.51" stroke="#202020" stroke-miterlimit="10"/>
<path d="M281.78 95.47C284.98 93.66 287.53 90.73 288.92 87.33C289.32 86.35 288.38 85.33 287.39 85.72C284.76 86.75 282.54 88.83 281.42 91.42C282.1 88.71 282.77 86 283.45 83.29C283.73 82.19 283.95 80.86 283.15 80.04C282.5 79.37 281.36 79.37 280.54 79.81C279.71 80.26 279.14 81.05 278.65 81.85C276.56 85.26 275.53 89.32 275.76 93.32" fill="black"/>
<path d="M294.3 114.1C283.38 123.84 269.39 130.07 254.84 131.66C240.3 133.26 225.28 130.21 212.51 123.07" stroke="#202020" stroke-miterlimit="10"/>
<path d="M324.49 243.23C323.98 239.98 321.82 236.7 315.46 229.81C293.61 203.3 280.89 197.48 274.51 195.06C274.51 195.06 253.97 208.71 277.46 235.75C280.79 239.19 301.1 255.2 309.7 261.6" fill="white"/>
<path d="M324.49 243.23C323.98 239.98 321.82 236.7 315.46 229.81C293.61 203.3 280.89 197.48 274.51 195.06C274.51 195.06 253.97 208.71 277.46 235.75C280.79 239.19 301.1 255.2 309.7 261.6" stroke="black" stroke-linecap="round" stroke-linejoin="round"/>
<path d="M300.96 254.27C304.31 279.55 306.67 299.47 306.67 299.47C306.67 299.47 300.35 311.06 302.28 314.01C304.21 316.96 307.6 310.07 307.6 310.07C307.6 310.07 305.05 326.9 307.94 326.89C310.83 326.88 312.52 313.85 312.52 313.85C312.52 313.85 312.34 330.11 316.15 328.99C318.37 328.24 317.07 314.44 317.07 314.44C317.07 314.44 319.34 328.17 321.74 327.52C324.14 326.87 321.4 313.78 321.4 313.78C321.4 313.78 324.46 324.4 326.88 323.56C329.3 322.72 326.26 307.12 324.4 299.87C324.4 299.87 326.18 269.69 324.48 243.22" fill="white"/>
<path d="M300.96 254.27C304.31 279.55 306.67 299.47 306.67 299.47C306.67 299.47 300.35 311.06 302.28 314.01C304.21 316.96 307.6 310.07 307.6 310.07C307.6 310.07 305.05 326.9 307.94 326.89C310.83 326.88 312.52 313.85 312.52 313.85C312.52 313.85 312.34 330.11 316.15 328.99C318.37 328.24 317.07 314.44 317.07 314.44C317.07 314.44 319.34 328.17 321.74 327.52C324.14 326.87 321.4 313.78 321.4 313.78C321.4 313.78 324.46 324.4 326.88 323.56C329.3 322.72 326.26 307.12 324.4 299.87C324.4 299.87 326.18 269.69 324.48 243.22" stroke="black" stroke-linecap="round" stroke-linejoin="round"/>
<path d="M157.44 155.46C157.14 152.29 156.75 150.66 156.42 149.83C155.99 148.71 155.57 147.59 155.28 146.43C154.93 145.03 154.61 143.42 154.74 140.55C154.82 138.72 155.03 136.53 156.15 135.15C162.37 127.47 171.01 136.64 171.01 136.64C171.01 136.64 170.13 122.2 173.08 122.79C176.03 123.38 175.24 141.52 175.24 141.52C175.35 147.06 173.87 156.79 173.87 156.79" fill="white"/>
<path d="M157.44 155.46C157.14 152.29 156.75 150.66 156.42 149.83C155.99 148.71 155.57 147.59 155.28 146.43C154.93 145.03 154.61 143.42 154.74 140.55C154.82 138.72 155.03 136.53 156.15 135.15C162.37 127.47 171.01 136.64 171.01 136.64C171.01 136.64 170.13 122.2 173.08 122.79C176.03 123.38 175.24 141.52 175.24 141.52C175.35 147.06 173.87 156.79 173.87 156.79" stroke="black" stroke-linecap="round" stroke-linejoin="round"/>
<path d="M171.11 140.53C171.11 140.53 165.77 134.6 164.68 138.1C163.59 141.6 172.99 153.35 172.99 153.35" stroke="black" stroke-linecap="round" stroke-linejoin="round"/>
<path d="M165.89 142.69C165.89 142.69 162.47 143.7 160.35 146.67" stroke="black" stroke-linecap="round" stroke-linejoin="round"/>
<path d="M159.57 132.85C159.57 132.85 156.34 136.47 158.19 141.09C159.11 143.39 161.16 143.56 161.61 141.66" stroke="black" stroke-linecap="round" stroke-linejoin="round"/>
<path d="M163.19 132.46C163.19 132.46 158.76 134.67 160.57 139.93C161.62 142.98 164.89 141.78 163.66 138.21C162.81 135.72 165.53 133.36 165.53 133.36" stroke="black" stroke-linecap="round" stroke-linejoin="round"/>
<path d="M158.81 142.35C158.81 142.35 158.67 143.95 157.37 143.9C155.96 143.85 154.75 141.06 155.31 138.13" stroke="black" stroke-linecap="round" stroke-linejoin="round"/>
<path d="M173.87 156.79C175.18 167 182.35 186.15 182.3 194.82C190 194 207.3 192.34 221.24 192.31C221.36 192.24 236.51 191.77 236.62 191.75L210.64 223.26C192.86 223.85 163.47 225.95 159.58 206.24C159.58 206.24 154.68 181.44 157.43 155.45" fill="white"/>
<path d="M173.87 156.79C175.18 167 182.35 186.15 182.3 194.82C190 194 207.3 192.34 221.24 192.31C221.36 192.24 236.51 191.77 236.62 191.75L210.64 223.26C192.86 223.85 163.47 225.95 159.58 206.24C159.58 206.24 154.68 181.44 157.43 155.45" stroke="black" stroke-linecap="round" stroke-linejoin="round"/>
<path d="M266.47 194.22C266.47 194.22 253.12 197.52 236.62 191.75C236.62 191.75 232.07 191.39 229.39 191.37C226.71 191.35 218.95 195.5 208.3 219.47C203.91 229.35 192.67 272.45 192.67 272.45C192.67 272.45 254.62 294.43 284.89 282.83C283.83 249.36 277.46 235.76 277.46 235.76C277.46 235.76 273.66 226.9 271.74 213.2C270.16 201.96 274.51 195.08 274.51 195.08C274.51 195.08 276.07 194.09 266.47 194.23V194.22Z" fill="white" stroke="black" stroke-linecap="round" stroke-linejoin="round"/>
<path d="M240.91 262.91C241.01 262.91 241.11 262.87 241.17 262.79C241.26 262.66 241.23 262.48 241.1 262.39C231.67 255.9 224.67 246.3 221.36 235.34C221.31 235.19 221.15 235.1 221 235.15C220.85 235.2 220.76 235.36 220.81 235.51C224.15 246.59 231.24 256.31 240.77 262.87C240.81 262.9 240.86 262.92 240.91 262.92V262.91Z" fill="black"/>
<path d="M229.98 272.07C230.05 272.07 230.12 272.06 230.18 272.01C230.3 271.91 230.32 271.73 230.22 271.6C224.71 264.73 220.88 256.53 219.14 247.9C219.11 247.74 218.96 247.64 218.8 247.67C218.64 247.7 218.54 247.85 218.57 248.01C220.33 256.73 224.2 265.02 229.77 271.96C229.82 272.02 229.89 272.06 229.97 272.07H229.98Z" fill="black"/>
<path d="M263.4 218.67C260.43 217.96 256.99 217.35 253.15 217.02C250.47 216.79 247.98 216.73 245.7 216.78C245.8 216.42 245.92 215.86 245.94 215.16C245.98 213.54 245.41 212.85 245.59 211.62C245.66 211.15 245.85 210.46 246.46 209.67C248.61 209.63 250.94 209.68 253.43 209.88C257.45 210.2 261.05 210.83 264.16 211.56C263.85 212.04 263.68 212.48 263.58 212.85C263.18 214.33 263.78 215.23 263.66 217.12C263.62 217.78 263.5 218.31 263.41 218.67H263.4Z" fill="#1C88CB"/>
<path d="M262.69 225.56C259.72 224.85 256.28 224.24 252.44 223.91C249.76 223.68 247.27 223.62 244.99 223.67C245.09 223.31 245.21 222.75 245.23 222.05C245.27 220.43 244.7 219.74 244.88 218.51C244.95 218.04 245.14 217.35 245.75 216.56C247.9 216.52 250.23 216.57 252.72 216.77C256.74 217.09 260.34 217.72 263.45 218.45C263.14 218.93 262.97 219.37 262.87 219.74C262.47 221.22 263.07 222.12 262.95 224.01C262.91 224.67 262.79 225.2 262.7 225.56H262.69Z" fill="#F1E514"/>
</g>
<defs>
<clipPath id="clip0_114_1008">
<rect width="489.84" height="496.08" fill="white"/>
</clipPath>
</defs>
</svg>
