<svg fill="#000000" xmlns="http://www.w3.org/2000/svg"  viewBox="0 0 24 24" width="100px" height="100px"><path d="M 7.0566406 3 C 6.6138644 3 6.2724422 3.2466555 6.0097656 3.5625 A 1.0001 1.0001 0 0 0 5.6542969 4.1328125 L 3.0351562 16.261719 A 1.0001 1.0001 0 0 0 3.0117188 16.476562 C 3.0058033 16.525524 3 16.490878 3 16.560547 C 3 16.581787 3.0224745 16.594194 3.0234375 16.615234 A 1.0001 1.0001 0 0 0 3.2246094 17.089844 C 3.4541689 17.593619 3.8701363 18 4.4433594 18 L 6.7597656 18 L 6.4941406 19.261719 A 1.0001 1.0001 0 0 0 6.4726562 19.460938 A 1.0001 1.0001 0 0 0 6.4726562 19.464844 C 6.4657963 19.516384 6.4609375 19.471147 6.4609375 19.554688 C 6.4609375 19.574938 6.4815569 19.587352 6.4824219 19.607422 A 1.0001 1.0001 0 0 0 6.6835938 20.082031 C 6.9098336 20.588881 7.3217316 21 7.9042969 21 L 11.164062 21 A 1.0001 1.0001 0 0 0 11.552734 20.921875 C 11.944148 20.804953 12.260191 20.532603 12.4375 20.179688 A 1.0001 1.0001 0 0 0 12.572266 19.867188 L 13.478516 16 L 14.871094 16 C 16.253026 16 17.557947 15.780361 18.650391 15.09375 C 19.742834 14.407139 20.533337 13.238582 20.861328 11.705078 C 21.238435 9.9377923 20.743353 8.410405 19.814453 7.4394531 C 19.106208 6.699144 18.204992 6.265351 17.289062 6.0957031 C 17.052164 5.1723951 16.54006 4.4184367 15.886719 3.9160156 C 15.041542 3.266072 14.018793 3 13.044922 3 L 7.0566406 3 z M 7.5136719 5 L 13.044922 5 C 13.643051 5 14.246896 5.1781468 14.667969 5.5019531 C 14.805018 5.6073442 14.810386 5.87351 14.916016 6.0117188 L 10.416016 6.0117188 C 9.9835784 6.0117188 9.6385278 6.2537378 9.3730469 6.5664062 A 1.0001 1.0001 0 0 0 9.0097656 7.1542969 L 7.9492188 12.376953 L 7.1835938 16 L 5.1386719 16 L 7.5136719 5 z M 10.876953 8.0117188 L 15.453125 8.0117188 C 15.449405 8.0647574 15.453941 8.1412589 15.445312 8.1816406 C 15.205829 9.3028826 14.738435 9.9227294 14.068359 10.351562 C 13.398287 10.780397 12.456642 11 11.308594 11 L 10.269531 11 L 10.876953 8.0117188 z M 17.404297 8.4199219 C 17.74259 8.5575289 18.123475 8.5654785 18.369141 8.8222656 C 18.864991 9.3405637 19.170143 10.050395 18.90625 11.287109 C 18.664241 12.418605 18.220994 13.001252 17.585938 13.400391 C 16.950881 13.799529 16.033162 14 14.871094 14 L 13.015625 14 C 12.449458 14 11.961644 14.418284 11.791016 14.716797 C 11.620387 15.01531 11.591797 15.294922 11.591797 15.294922 L 11.609375 15.197266 L 10.720703 19 L 8.59375 19 L 8.9199219 17.457031 A 1.0001 1.0001 0 0 0 9.0117188 17.199219 L 9.8632812 13 L 11.308594 13 C 12.704546 13 14.03681 12.747276 15.146484 12.037109 C 16.256158 11.326943 17.072828 10.142367 17.402344 8.5996094 C 17.418954 8.5218614 17.393397 8.495105 17.404297 8.4199219 z M 10.931641 18.892578 A 1.0001 1.0001 0 0 0 10.828125 19 L 10.808594 19 L 10.931641 18.892578 z M 10.789062 19.048828 A 1.0001 1.0001 0 0 0 10.767578 19.080078 A 1.0001 1.0001 0 0 0 10.765625 19.080078 A 1.0001 1.0001 0 0 0 10.675781 19.125 L 10.789062 19.048828 z"/></svg>