<svg width="285" height="71" viewBox="0 0 285 71" fill="none" xmlns="http://www.w3.org/2000/svg">
<g clip-path="url(#clip0_138_2198)">
<path d="M88.2862 17.9615V17.8136C90.1689 17.151 91.533 16.2547 92.3757 15.1276C93.2183 14.0006 93.6397 12.492 93.6397 10.5988C93.6397 7.88033 92.6556 5.857 90.6904 4.52882C88.7252 3.20359 85.7936 2.53802 81.8956 2.53802H72.0343C71.669 2.53802 71.4893 2.73622 71.4893 3.13556V34.5297C71.4893 34.9291 71.669 35.1273 72.0343 35.1273H81.8956C86.486 35.1273 89.8242 34.3907 91.9072 32.9146C93.9873 31.4385 95.0303 29.075 95.0303 25.8241C95.0303 23.6026 94.4617 21.8366 93.3214 20.5261C92.1783 19.2128 90.5018 18.3579 88.2862 17.9615ZM77.4349 7.46324H81.3506C83.5957 7.46324 85.2161 7.79455 86.2061 8.45716C87.1961 9.11977 87.694 10.1995 87.694 11.6903C87.694 13.2167 87.2226 14.3437 86.2827 15.0744C85.3399 15.805 83.8284 16.1689 81.7483 16.1689H77.4379V7.46324H77.4349ZM87.4465 29.0809C86.3564 29.7938 84.5562 30.1518 82.0459 30.1518H77.4379V20.6977H82.096C84.5414 20.6977 86.3151 21.0793 87.4229 21.8425C88.5307 22.6057 89.0817 23.8155 89.0817 25.475C89.0817 27.1641 88.5366 28.368 87.4465 29.0809Z" fill="#164E5F"/>
<path d="M103.327 7.1142C104.449 7.1142 105.292 6.82431 105.855 6.24452C106.418 5.66474 106.697 4.89268 106.697 3.9313V3.18586C106.697 2.22448 106.418 1.45242 105.855 0.872636C105.292 0.289892 104.449 0 103.327 0C102.204 0 101.353 0.289892 100.775 0.869678C100.198 1.44946 99.9092 2.22152 99.9092 3.1829V3.92834C99.9092 4.88972 100.198 5.66178 100.775 6.24156C101.353 6.82431 102.204 7.1142 103.327 7.1142Z" fill="#164E5F"/>
<path d="M100.949 10.6461C100.587 10.6461 100.404 10.8295 100.404 11.1934V34.5268C100.404 34.9261 100.587 35.1243 100.949 35.1243H105.658C106.055 35.1243 106.253 34.9261 106.253 34.5268V11.1934C106.253 10.8295 106.055 10.6461 105.658 10.6461H100.949Z" fill="#164E5F"/>
<path d="M141.261 16.1452C141.738 16.8256 141.98 17.8461 141.98 19.2039V34.5268C141.98 34.9261 142.177 35.1243 142.575 35.1243H147.233C147.631 35.1243 147.828 34.9261 147.828 34.5268V18.21C147.828 15.456 147.26 13.409 146.119 12.066C144.979 10.7231 143.27 10.0516 140.99 10.0516C139.369 10.0516 137.885 10.4332 136.529 11.1964C135.174 11.9595 133.836 13.0215 132.516 14.3793C132.086 12.9535 131.376 11.8767 130.386 11.1461C129.396 10.4154 128.023 10.0516 126.273 10.0516C124.62 10.0516 123.15 10.4243 121.862 11.1697C120.575 11.9152 119.284 12.9535 117.997 14.2787C117.964 13.7137 117.897 13.1516 117.799 12.5867C117.699 12.0217 117.617 11.5099 117.552 11.0455C117.484 10.7793 117.287 10.6462 116.957 10.6462H112.794C112.331 10.6462 112.134 10.8621 112.199 11.294C112.331 12.1222 112.422 13.0185 112.473 13.9799C112.523 14.9413 112.546 15.9027 112.546 16.867V34.5297C112.546 34.9291 112.729 35.1273 113.091 35.1273H117.799C118.197 35.1273 118.395 34.9291 118.395 34.5297V18.4082C119.517 17.3137 120.534 16.4913 121.441 15.9441C122.349 15.3968 123.265 15.1247 124.19 15.1247C125.248 15.1247 126.023 15.4649 126.521 16.1452C127.016 16.8256 127.263 17.8461 127.263 19.2039V34.5268C127.263 34.9261 127.46 35.1243 127.858 35.1243H132.516C132.914 35.1243 133.111 34.9261 133.111 34.5268V18.4082C134.234 17.3137 135.251 16.4913 136.158 15.9441C137.065 15.3968 137.982 15.1247 138.907 15.1247C139.997 15.1247 140.784 15.4649 141.261 16.1452Z" fill="#164E5F"/>
<path d="M174.964 19.0737C174.964 16.0565 174.351 13.8261 173.131 12.3825C171.909 10.939 170.091 10.2172 167.681 10.2172C166.458 10.2172 165.335 10.4095 164.31 10.7881C163.285 11.1697 162.304 11.7022 161.361 12.3796C160.719 12.844 160.073 13.3676 159.425 13.9474C159.419 13.8527 159.413 13.7521 159.405 13.6486C159.372 13.2167 159.322 12.7878 159.257 12.3559C159.189 11.924 159.125 11.5779 159.06 11.3117C158.992 10.9804 158.78 10.8148 158.415 10.8148H154.251C153.821 10.8148 153.624 11.0307 153.656 11.4626C153.756 12.2583 153.839 13.1221 153.904 14.0509C153.969 14.9797 154.004 15.876 154.004 16.7368V43.901C154.004 44.3003 154.187 44.4985 154.549 44.4985H159.257C159.655 44.4985 159.852 44.3003 159.852 43.901V34.5416C160.598 34.8936 161.464 35.1864 162.454 35.4172C163.792 35.7307 165.038 35.8905 166.196 35.8905C169.036 35.8905 171.207 35.0622 172.713 33.4027C174.216 31.7432 174.967 29.2229 174.967 25.8389V19.0737H174.964ZM169.119 25.2443C169.119 27.1345 168.756 28.5603 168.028 29.5217C167.301 30.4831 166.146 30.9652 164.561 30.9652C163.7 30.9652 162.778 30.841 161.785 30.5925C161.11 30.4239 160.468 30.1902 159.852 29.9062V18.2129C160.848 17.364 161.732 16.7073 162.504 16.2399C163.544 15.6098 164.593 15.2933 165.651 15.2933C166.841 15.2933 167.716 15.6749 168.276 16.4381C168.839 17.2013 169.119 18.3963 169.119 20.0203V25.2443Z" fill="#164E5F"/>
<path d="M198.944 12.7553C197.061 11.0632 194.368 10.2172 190.865 10.2172C187.329 10.2172 184.622 11.0632 182.739 12.7553C180.856 14.4473 179.914 16.9853 179.914 20.3664V25.7413C179.914 29.1253 180.862 31.6604 182.763 33.3524C184.663 35.0444 187.362 35.8905 190.865 35.8905C194.401 35.8905 197.099 35.0444 198.967 33.3524C200.832 31.6604 201.766 29.1224 201.766 25.7413V20.3694C201.769 16.9853 200.827 14.4473 198.944 12.7553ZM195.921 25.194C195.921 27.1523 195.523 28.5869 194.731 29.498C193.938 30.4091 192.65 30.8647 190.865 30.8647C189.08 30.8647 187.783 30.4091 186.976 29.498C186.166 28.5869 185.762 27.1523 185.762 25.194V20.9166C185.762 18.9613 186.166 17.5267 186.976 16.6126C187.786 15.7015 189.083 15.243 190.865 15.243C192.648 15.243 193.938 15.6986 194.731 16.6126C195.523 17.5237 195.921 18.9584 195.921 20.9166V25.194Z" fill="#164E5F"/>
<path d="M227.735 34.5978L219.459 11.4626C219.294 11.0307 219.014 10.8148 218.616 10.8148H213.513C213.118 10.8148 212.836 11.0307 212.671 11.4626L204.394 34.5978C204.229 35.0622 204.377 35.2929 204.839 35.2929H209.845C210.175 35.2929 210.39 35.1273 210.49 34.796L214.306 22.9045C214.636 21.878 214.933 20.8989 215.199 19.97C215.464 19.0412 215.726 18.0621 215.991 17.0356H216.091C216.356 18.0295 216.636 18.9998 216.934 19.9464C217.232 20.893 217.529 21.8632 217.827 22.8571L221.592 34.7989C221.692 35.1302 221.904 35.2959 222.237 35.2959H227.34C227.768 35.2929 227.9 35.0622 227.735 34.5978Z" fill="#164E5F"/>
<path d="M252.266 25.7413V20.3694C252.266 16.9853 251.324 14.4502 249.441 12.7582C247.558 11.0662 244.865 10.2202 241.362 10.2202C237.827 10.2202 235.119 11.0662 233.236 12.7582C231.353 14.4502 230.411 16.9883 230.411 20.3694V25.7442C230.411 29.1283 231.359 31.6634 233.26 33.3554C235.16 35.0474 237.859 35.8934 241.362 35.8934C244.898 35.8934 247.596 35.0474 249.464 33.3554C251.332 31.6634 252.266 29.1253 252.266 25.7413ZM246.418 25.194C246.418 27.1523 246.02 28.5869 245.228 29.498C244.435 30.4091 243.148 30.8647 241.362 30.8647C239.577 30.8647 238.28 30.4091 237.473 29.498C236.663 28.5869 236.259 27.1523 236.259 25.194V20.9166C236.259 18.9613 236.663 17.5267 237.473 16.6126C238.283 15.7015 239.58 15.243 241.362 15.243C243.145 15.243 244.435 15.6986 245.228 16.6126C246.02 17.5237 246.418 18.9584 246.418 20.9166V25.194Z" fill="#164E5F"/>
<path d="M276.924 21.7123C277.337 20.8841 277.725 20.0529 278.088 19.2246H278.235C278.203 19.8221 278.161 20.4847 278.111 21.2154C278.061 21.946 278.02 22.6589 277.988 23.3541C277.955 24.0492 277.938 24.6468 277.938 25.1437L278.038 34.6954C278.038 35.0947 278.235 35.2929 278.633 35.2929H282.943C283.306 35.2929 283.488 35.0947 283.488 34.6954L283.091 11.362C283.091 10.9982 282.893 10.8148 282.495 10.8148H277.69C277.425 10.8148 277.21 10.9627 277.045 11.2614L270.454 24.2977L263.913 11.2614C263.748 10.9627 263.515 10.8148 263.221 10.8148H258.462C258.065 10.8148 257.867 10.9982 257.867 11.362L257.422 34.6954C257.422 35.0947 257.62 35.2929 258.018 35.2929H262.328C262.69 35.2929 262.873 35.0947 262.873 34.6954L262.976 25.1437C262.976 24.6468 262.958 24.0492 262.926 23.3541C262.894 22.6589 262.858 21.946 262.826 21.2154C262.793 20.4877 262.743 19.8221 262.679 19.2246H262.826C263.224 20.0529 263.61 20.8841 263.99 21.7123C264.37 22.5406 264.759 23.2713 265.153 23.9013L269.862 32.3585C269.962 32.4591 270.059 32.533 270.159 32.5833C270.259 32.6336 270.357 32.6573 270.457 32.6573C270.722 32.6573 270.919 32.5567 271.052 32.3585L275.81 23.9013C276.14 23.2713 276.512 22.5406 276.924 21.7123Z" fill="#164E5F"/>
<path d="M164.254 54.0442C164.852 54.0442 165.394 53.9407 165.881 53.7336C166.367 53.5266 166.697 53.3639 166.868 53.2426C166.947 53.1746 166.988 53.0947 166.988 53.003V51.8996C166.988 51.8198 166.968 51.7665 166.929 51.7399C166.888 51.7133 166.835 51.7192 166.77 51.7606C166.517 51.8937 166.16 52.0712 165.704 52.2931C165.244 52.512 164.761 52.6244 164.257 52.6244C163.75 52.6244 163.27 52.5149 162.811 52.2931C162.351 52.0712 161.994 51.8967 161.741 51.7606C161.673 51.7192 161.62 51.7133 161.582 51.7399C161.541 51.7665 161.523 51.8198 161.523 51.8996V53.003C161.523 53.0977 161.564 53.1775 161.644 53.2426C161.818 53.3639 162.145 53.5266 162.631 53.7336C163.111 53.9407 163.653 54.0442 164.254 54.0442Z" fill="#164E5F"/>
<path d="M209.713 54.0442C210.311 54.0442 210.853 53.9407 211.339 53.7336C211.825 53.5266 212.155 53.3639 212.326 53.2426C212.406 53.1746 212.447 53.0947 212.447 53.003V51.8996C212.447 51.8198 212.426 51.7665 212.388 51.7399C212.347 51.7133 212.294 51.7192 212.229 51.7606C211.975 51.8937 211.619 52.0712 211.159 52.2931C210.7 52.512 210.217 52.6244 209.713 52.6244C209.206 52.6244 208.726 52.5149 208.266 52.2931C207.806 52.0712 207.45 51.8967 207.197 51.7606C207.129 51.7192 207.076 51.7133 207.037 51.7399C206.999 51.7665 206.979 51.8198 206.979 51.8996V53.003C206.979 53.0977 207.02 53.1775 207.099 53.2426C207.273 53.3639 207.603 53.5266 208.086 53.7336C208.57 53.9407 209.112 54.0442 209.713 54.0442Z" fill="#164E5F"/>
<path d="M78.9758 61.3211C78.1627 60.6674 76.9665 60.339 75.3813 60.339H73.1863V56.8101H78.5781C78.7107 56.8101 78.7784 56.742 78.7784 56.6089V55.4671C78.7784 55.334 78.7107 55.2659 78.5781 55.2659H71.6896C71.557 55.2659 71.4893 55.334 71.4893 55.4671V68.1957C71.4893 68.3288 71.557 68.3969 71.6896 68.3969H75.3224C76.9075 68.3969 78.1155 68.0419 78.9464 67.3349C79.7772 66.6279 80.1956 65.6044 80.1956 64.2674C80.1927 62.957 79.7861 61.9749 78.9758 61.3211ZM77.6971 66.2818C77.1639 66.7285 76.3448 66.9533 75.2429 66.9533H73.1863V61.7826H75.3018C76.4184 61.7826 77.2316 61.9778 77.7384 62.3624C78.2452 62.7499 78.4956 63.377 78.4956 64.2467C78.4956 65.1548 78.2304 65.8322 77.6971 66.2818Z" fill="#164E5F"/>
<path d="M89.833 55.4257C89.7918 55.3192 89.7122 55.2659 89.5944 55.2659H87.8178C87.697 55.2659 87.6174 55.3192 87.5791 55.4257L83.2274 68.175C83.1862 68.3229 83.2392 68.3969 83.3865 68.3969H84.7241C84.8449 68.3969 84.9245 68.3436 84.9628 68.2371L87.8973 59.1765C88.0299 58.789 88.1566 58.3956 88.2774 57.9933C88.3982 57.591 88.5249 57.1976 88.6575 56.8101H88.6781C88.8107 57.2094 88.9433 57.6117 89.0788 58.014C89.2114 58.4163 89.344 58.8156 89.4795 59.2179L92.4346 68.2371C92.4759 68.3436 92.5554 68.3969 92.6733 68.3969H94.0905C94.2378 68.3969 94.2908 68.3229 94.2496 68.175L89.833 55.4257Z" fill="#164E5F"/>
<path d="M103.943 55.4257C103.902 55.3192 103.822 55.2659 103.704 55.2659H101.927C101.807 55.2659 101.727 55.3192 101.689 55.4257L97.2753 68.175C97.234 68.3229 97.287 68.3969 97.4344 68.3969H98.772C98.8928 68.3969 98.9723 68.3436 99.0106 68.2371L99.9564 65.3293H105.631L106.597 68.2371C106.639 68.3436 106.718 68.3969 106.836 68.3969H108.253C108.401 68.3969 108.454 68.3229 108.412 68.175L103.943 55.4257ZM100.44 63.8444L101.966 59.1529C102.098 58.7653 102.231 58.3749 102.366 57.9815C102.499 57.588 102.632 57.1976 102.767 56.8101H102.788C102.935 57.2094 103.074 57.6117 103.206 58.014C103.339 58.4163 103.471 58.8156 103.604 59.2179L105.142 63.8473H100.44V63.8444Z" fill="#164E5F"/>
<path d="M119.544 55.2659H112.756C112.623 55.2659 112.555 55.334 112.555 55.4671V68.1957C112.555 68.3288 112.623 68.3969 112.756 68.3969H114.052C114.184 68.3969 114.252 68.3288 114.252 68.1957V56.8101H119.544C119.676 56.8101 119.744 56.742 119.744 56.6089V55.4671C119.744 55.334 119.676 55.2659 119.544 55.2659Z" fill="#164E5F"/>
<path d="M128.217 55.0263C126.553 55.0263 125.312 55.4345 124.493 56.248C123.674 57.0644 123.265 58.227 123.265 59.7356V63.9242C123.265 65.421 123.674 66.5806 124.493 67.403C125.312 68.2253 126.553 68.6365 128.217 68.6365C129.882 68.6365 131.122 68.2253 131.942 67.403C132.761 66.5806 133.17 65.421 133.17 63.9242V59.7356C133.17 58.227 132.761 57.0644 131.942 56.248C131.122 55.4345 129.879 55.0263 128.217 55.0263ZM131.47 63.9065C131.47 64.9625 131.193 65.7642 130.642 66.3114C130.088 66.8587 129.281 67.1338 128.217 67.1338C127.166 67.1338 126.361 66.8587 125.801 66.3114C125.242 65.7642 124.962 64.9625 124.962 63.9065V59.7563C124.962 58.6884 125.242 57.8809 125.801 57.3395C126.361 56.7982 127.166 56.529 128.217 56.529C129.281 56.529 130.091 56.7982 130.642 57.3395C131.193 57.8809 131.47 58.6855 131.47 59.7563V63.9065Z" fill="#164E5F"/>
<path d="M148.344 66.8528H147.463L143.65 55.4286C143.609 55.3221 143.53 55.2689 143.412 55.2689H141.635C141.514 55.2689 141.435 55.3221 141.396 55.4286L137.619 66.8528H136.762C136.709 66.8528 136.662 66.8705 136.623 66.903C136.582 66.9356 136.564 66.9859 136.564 67.0539V70.8018C136.564 70.8551 136.585 70.9024 136.623 70.9408C136.665 70.9823 136.709 71 136.762 71H138.058C138.126 71 138.173 70.9793 138.208 70.9408C138.241 70.9024 138.259 70.8551 138.259 70.8018V68.3969H146.844V70.8018C146.844 70.8551 146.865 70.9024 146.903 70.9408C146.944 70.9823 146.989 71 147.042 71H148.338C148.406 71 148.453 70.9793 148.488 70.9408C148.521 70.9024 148.538 70.8551 148.538 70.8018V67.0539C148.538 66.9859 148.521 66.9356 148.488 66.903C148.459 66.8676 148.409 66.8528 148.344 66.8528ZM141.355 60.3361C141.541 59.7474 141.726 59.1617 141.915 58.5731C142.101 57.9844 142.286 57.3987 142.475 56.8101H142.495C142.681 57.3839 142.873 57.9608 143.064 58.5346C143.256 59.1085 143.441 59.6853 143.612 60.2592L145.692 66.8528H139.313L141.355 60.3361Z" fill="#164E5F"/>
<path d="M153.733 55.2659H152.436C152.304 55.2659 152.236 55.334 152.236 55.4671V68.1957C152.236 68.3288 152.304 68.3969 152.436 68.3969H153.733C153.865 68.3969 153.933 68.3288 153.933 68.1957V55.4671C153.933 55.334 153.865 55.2659 153.733 55.2659Z" fill="#164E5F"/>
<path d="M168.868 55.2659H167.409C167.315 55.2659 167.236 55.3133 167.171 55.405L163.397 61.7175C162.89 62.5606 162.486 63.2468 162.18 63.7823C161.873 64.3177 161.626 64.7584 161.44 65.1045C161.255 65.4536 161.075 65.779 160.901 66.0866H160.86C160.872 65.779 160.889 65.4477 160.91 65.0956C160.93 64.7407 160.945 64.297 160.96 63.7616C160.972 63.2261 160.981 62.5458 160.981 61.7175V55.4641C160.981 55.331 160.913 55.263 160.78 55.263H159.522C159.39 55.263 159.322 55.331 159.322 55.4641V68.1928C159.322 68.3259 159.39 68.3939 159.522 68.3939H160.981C161.075 68.3939 161.154 68.3466 161.219 68.2549L164.852 62.1819C165.424 61.2324 165.874 60.4751 166.198 59.9072C166.526 59.3392 166.785 58.8777 166.976 58.5228C167.168 58.1678 167.345 57.8454 167.507 57.5496H167.548C167.521 58.0051 167.492 58.6352 167.459 59.4427C167.427 60.2503 167.409 61.1644 167.409 62.179V68.1928C167.409 68.3259 167.477 68.3939 167.61 68.3939H168.868C169 68.3939 169.068 68.3259 169.068 68.1928V55.4641C169.065 55.334 169 55.2659 168.868 55.2659Z" fill="#164E5F"/>
<path d="M184.059 55.2659H182.76C182.627 55.2659 182.559 55.334 182.559 55.4671V60.8804H176.151V55.4671C176.151 55.334 176.083 55.2659 175.951 55.2659H174.654C174.522 55.2659 174.454 55.334 174.454 55.4671V68.1957C174.454 68.3288 174.522 68.3969 174.654 68.3969H175.951C176.083 68.3969 176.151 68.3288 176.151 68.1957V62.3624H182.559V68.1957C182.559 68.3288 182.627 68.3969 182.76 68.3969H184.059C184.192 68.3969 184.259 68.3288 184.259 68.1957V55.4671C184.259 55.334 184.192 55.2659 184.059 55.2659Z" fill="#164E5F"/>
<path d="M199.192 55.2659H197.733C197.639 55.2659 197.559 55.3133 197.494 55.405L193.72 61.7175C193.213 62.5606 192.81 63.2468 192.503 63.7823C192.197 64.3177 191.95 64.7584 191.764 65.1045C191.578 65.4536 191.399 65.779 191.225 66.0866H191.186C191.198 65.779 191.216 65.4477 191.237 65.0956C191.257 64.7407 191.272 64.297 191.287 63.7616C191.298 63.2261 191.307 62.5458 191.307 61.7175V55.4641C191.307 55.331 191.239 55.263 191.107 55.263H189.849C189.716 55.263 189.648 55.331 189.648 55.4641V68.1928C189.648 68.3259 189.716 68.3939 189.849 68.3939H191.307C191.401 68.3939 191.481 68.3466 191.546 68.2549L195.179 62.1819C195.75 61.2324 196.201 60.4751 196.525 59.9072C196.852 59.3392 197.111 58.8777 197.303 58.5228C197.497 58.1678 197.671 57.8454 197.833 57.5496H197.875C197.848 58.0051 197.819 58.6352 197.783 59.4427C197.751 60.2503 197.733 61.1644 197.733 62.179V68.1928C197.733 68.3259 197.798 68.3939 197.933 68.3939H199.192C199.324 68.3939 199.392 68.3259 199.392 68.1928V55.4641C199.392 55.334 199.327 55.2659 199.192 55.2659Z" fill="#164E5F"/>
<path d="M214.327 55.2659H212.868C212.774 55.2659 212.695 55.3133 212.63 55.405L208.856 61.7175C208.349 62.5606 207.945 63.2468 207.639 63.7823C207.332 64.3177 207.085 64.7584 206.899 65.1045C206.714 65.4536 206.534 65.779 206.36 66.0866H206.322C206.333 65.779 206.351 65.4477 206.372 65.0956C206.392 64.7407 206.407 64.297 206.422 63.7616C206.434 63.2261 206.442 62.5458 206.442 61.7175V55.4641C206.442 55.331 206.375 55.263 206.242 55.263H204.984C204.851 55.263 204.784 55.331 204.784 55.4641V68.1928C204.784 68.3259 204.851 68.3939 204.984 68.3939H206.442C206.537 68.3939 206.616 68.3466 206.681 68.2549L210.314 62.1819C210.886 61.2324 211.336 60.4751 211.66 59.9072C211.987 59.3392 212.247 58.8777 212.438 58.5228C212.63 58.1678 212.807 57.8454 212.969 57.5496H213.01C212.983 58.0051 212.954 58.6352 212.918 59.4427C212.886 60.2503 212.868 61.1644 212.868 62.179V68.1928C212.868 68.3259 212.933 68.3939 213.069 68.3939H214.327C214.459 68.3939 214.527 68.3259 214.527 68.1928V55.4641C214.527 55.334 214.459 55.2659 214.327 55.2659Z" fill="#164E5F"/>
<path d="M236.665 55.5558C235.773 55.2245 234.733 55.0589 233.551 55.047V54.0413C233.551 53.9082 233.483 53.8401 233.351 53.8401H232.052C231.919 53.8401 231.851 53.9082 231.851 54.0413V55.047C230.679 55.0589 229.644 55.2245 228.758 55.5529C227.838 55.893 227.128 56.4344 226.621 57.1769C226.115 57.9193 225.861 58.8837 225.861 60.0728V63.6018C225.861 64.7791 226.112 65.7376 226.61 66.4771C227.108 67.2196 227.812 67.7639 228.716 68.1099C229.612 68.4531 230.658 68.6247 231.851 68.6306V69.6156C231.851 69.7487 231.919 69.8168 232.052 69.8168H233.351C233.483 69.8168 233.551 69.7487 233.551 69.6156V68.6335C234.753 68.6306 235.805 68.459 236.707 68.1129C237.611 67.7668 238.312 67.2196 238.813 66.48C239.311 65.7376 239.562 64.7791 239.562 63.6048V60.0758C239.562 58.8866 239.308 57.9223 238.804 57.1798C238.298 56.4403 237.585 55.896 236.665 55.5558ZM228.092 65.6192C227.738 65.0779 227.564 64.3739 227.564 63.5042V60.1764C227.564 59.3067 227.741 58.6027 228.092 58.0613C228.445 57.52 228.946 57.1236 229.6 56.8692C230.237 56.6207 231.006 56.4965 231.895 56.4906V67.19C231.017 67.1841 230.254 67.0598 229.609 66.8113C228.949 66.557 228.442 66.1606 228.092 65.6192ZM237.865 63.5042C237.865 64.3739 237.688 65.0779 237.334 65.6192C236.981 66.1606 236.48 66.557 235.829 66.8113C235.186 67.0628 234.414 67.187 233.513 67.19V56.4876C234.414 56.4906 235.189 56.6178 235.838 56.8663C236.498 57.1207 236.998 57.517 237.346 58.0584C237.691 58.5997 237.865 59.3037 237.865 60.1734V63.5042Z" fill="#164E5F"/>
<path d="M249.591 55.0263C247.926 55.0263 246.686 55.4345 245.867 56.248C245.048 57.0644 244.638 58.227 244.638 59.7356V63.9242C244.638 65.421 245.048 66.5806 245.867 67.403C246.686 68.2253 247.926 68.6365 249.591 68.6365C251.256 68.6365 252.496 68.2253 253.315 67.403C254.134 66.5806 254.544 65.421 254.544 63.9242V59.7356C254.544 58.227 254.134 57.0644 253.315 56.248C252.496 55.4345 251.256 55.0263 249.591 55.0263ZM252.844 63.9065C252.844 64.9625 252.567 65.7642 252.016 66.3114C251.465 66.8587 250.655 67.1338 249.591 67.1338C248.539 67.1338 247.735 66.8587 247.175 66.3114C246.615 65.7642 246.335 64.9625 246.335 63.9065V59.7563C246.335 58.6884 246.615 57.8809 247.175 57.3395C247.735 56.7982 248.539 56.529 249.591 56.529C250.655 56.529 251.465 56.7982 252.016 57.3395C252.567 57.8809 252.844 58.6855 252.844 59.7563V63.9065Z" fill="#164E5F"/>
<path d="M269.128 55.2659H267.832C267.699 55.2659 267.631 55.334 267.631 55.4671V60.8804H261.223V55.4671C261.223 55.334 261.155 55.2659 261.023 55.2659H259.726C259.594 55.2659 259.526 55.334 259.526 55.4671V68.1957C259.526 68.3288 259.594 68.3969 259.726 68.3969H261.023C261.155 68.3969 261.223 68.3288 261.223 68.1957V62.3624H267.631V68.1957C267.631 68.3288 267.699 68.3969 267.832 68.3969H269.128C269.261 68.3969 269.328 68.3288 269.328 68.1957V55.4671C269.328 55.334 269.261 55.2659 269.128 55.2659Z" fill="#164E5F"/>
<path d="M284.95 66.903C284.917 66.8705 284.867 66.8528 284.799 66.8528H283.918L280.106 55.4286C280.065 55.3221 279.985 55.2689 279.867 55.2689H278.091C277.97 55.2689 277.89 55.3221 277.852 55.4286L274.078 66.8528H273.22C273.167 66.8528 273.12 66.8705 273.082 66.903C273.041 66.9356 273.023 66.9859 273.023 67.0539V70.8018C273.023 70.8551 273.044 70.9024 273.082 70.9408C273.123 70.9823 273.167 71 273.22 71H274.52C274.587 71 274.635 70.9793 274.67 70.9408C274.702 70.9024 274.72 70.8551 274.72 70.8018V68.3969H283.306V70.8018C283.306 70.8551 283.326 70.9024 283.365 70.9408C283.406 70.9823 283.45 71 283.503 71H284.799C284.867 71 284.917 70.9793 284.95 70.9408C284.982 70.9024 285 70.8551 285 70.8018V67.0539C285 66.9859 284.985 66.9356 284.95 66.903ZM277.814 60.3361C277.999 59.7474 278.185 59.1617 278.373 58.5731C278.559 57.9844 278.745 57.3987 278.933 56.8101H278.954C279.14 57.3839 279.331 57.9608 279.523 58.5346C279.714 59.1085 279.9 59.6853 280.071 60.2592L282.151 66.8528H275.772L277.814 60.3361Z" fill="#164E5F"/>
<path d="M47.3737 13.5126C47.3737 7.45144 42.4799 2.5351 36.4399 2.5351V31.8054H47.3737V13.5126Z" fill="#164E5F"/>
<path d="M18.2202 57.4194C18.2202 63.4805 23.114 68.3969 29.154 68.3969V39.1266H18.2202V57.4194Z" fill="#164E5F"/>
<path d="M0 31.8083H29.1538V20.8308H10.9338C4.89383 20.8308 0 25.7442 0 31.8083Z" fill="#164E5F"/>
<path d="M36.4429 50.1011H54.6629C60.6999 50.1011 65.5967 45.1877 65.5967 39.1237H36.4429V50.1011Z" fill="#164E5F"/>
</g>
<defs>
<clipPath id="clip0_138_2198">
<rect width="285" height="71" fill="white"/>
</clipPath>
</defs>
</svg>
