<svg width="464" height="464" viewBox="0 0 464 464" fill="none" xmlns="http://www.w3.org/2000/svg">
<g clip-path="url(#clip0_110_405)">
<g opacity="0.21">
<path d="M91.9101 432.78C91.4301 432.63 90.9601 432.47 90.4901 432.3" stroke="#222221" stroke-miterlimit="10"/>
<path d="M87.67 431.28C62.33 421.55 41.34 399.97 32.44 373.62C22.19 343.26 28.36 307.62 48.16 282.77C58.56 269.72 72.23 259.68 82.17 246.26C95.06 228.84 100.73 207.06 109.66 187.2C129 144.19 157.66 106.56 200.61 89.44C243.56 72.32 300.33 75.9 342.79 94.29C364.09 103.51 384.85 118.56 392.44 141.02C400.73 165.53 391.7 193.65 400.48 217.98C406.67 235.15 420.8 247.83 430.39 263.26C454.72 302.42 446.24 356.6 419.12 393.77C408.52 408.29 395.62 420.58 381.26 431" stroke="#222221" stroke-miterlimit="10"/>
<path d="M380.04 431.86C379.63 432.15 379.23 432.44 378.82 432.73" stroke="#222221" stroke-miterlimit="10"/>
</g>
<path d="M21.44 432.88H464.31" stroke="black" stroke-width="2" stroke-miterlimit="10"/>
<path d="M282.3 250.02C286.31 231.47 294.65 214.08 306.95 199.64C319.86 184.49 327.65 164.85 327.65 143.38C327.65 95.03 288.12 55.92 239.62 56.59C191.78 57.26 153.21 97.14 154.07 144.98C154.44 165.51 161.94 184.29 174.19 198.97C186.46 213.67 195.29 230.94 199.33 249.65" fill="white"/>
<path d="M282.3 250.02C286.31 231.47 294.65 214.08 306.95 199.64C319.86 184.49 327.65 164.85 327.65 143.38C327.65 95.03 288.12 55.92 239.62 56.59C191.78 57.26 153.21 97.14 154.07 144.98C154.44 165.51 161.94 184.29 174.19 198.97C186.46 213.67 195.29 230.94 199.33 249.65" stroke="black" stroke-miterlimit="10"/>
<path d="M199.31 249.66H282.41V282.73C282.41 297.38 270.52 309.27 255.87 309.27H225.84C211.19 309.27 199.3 297.38 199.3 282.73V249.66H199.31Z" stroke="black" stroke-miterlimit="10"/>
<path d="M261.92 249.66C267.15 221.53 274.93 178.75 277.47 160.09C278.29 154.1 278.06 140.82 267.06 138.26C251.44 134.62 243.51 168.73 255.98 168.49C260.82 168.4 262.8 162.33 261.46 155.45C257.15 133.25 224.57 133.25 220.27 155.45C218.93 162.34 220.91 168.4 225.75 168.49C238.21 168.73 230.29 134.62 214.67 138.26C203.67 140.82 203.44 154.1 204.26 160.09C206.8 178.75 214.58 221.52 219.81 249.66" stroke="black" stroke-width="2" stroke-miterlimit="10"/>
<path d="M199.31 261.04H282.41" stroke="black" stroke-miterlimit="10"/>
<path d="M199.31 268.18H282.41" stroke="black" stroke-miterlimit="10"/>
<path d="M199.31 275.32H282.41" stroke="black" stroke-miterlimit="10"/>
<path d="M199.31 282.46H282.41" stroke="black" stroke-miterlimit="10"/>
<path opacity="0.21" d="M441.19 71.11C453.97 82.96 454.67 102.87 442.74 115.58C430.82 128.29 410.79 128.98 398 117.12C385.22 105.27 384.52 85.36 396.45 72.65C408.37 59.94 428.4 59.25 441.19 71.11Z" stroke="#222221" stroke-miterlimit="10"/>
<path opacity="0.16" d="M394.52 40.11C396.41 41.86 396.51 44.8 394.75 46.68C392.99 48.56 390.03 48.66 388.14 46.91C386.25 45.16 386.15 42.22 387.91 40.34C389.67 38.46 392.63 38.36 394.52 40.11Z" fill="#F9D400"/>
<path opacity="0.16" d="M449.33 190.93C450.37 191.89 450.28 193.67 449.14 194.89C447.99 196.11 446.22 196.32 445.18 195.36C444.14 194.4 444.23 192.62 445.37 191.4C446.52 190.18 448.29 189.97 449.33 190.93Z" fill="#F9D400"/>
<path opacity="0.16" d="M334.86 176.74C336.09 177.88 336.16 179.8 335.01 181.02C333.86 182.24 331.94 182.31 330.71 181.17C329.48 180.03 329.41 178.11 330.56 176.89C331.71 175.67 333.63 175.6 334.86 176.74Z" fill="#F9D400"/>
<path opacity="0.16" d="M267.33 27.84C268.56 28.98 268.63 30.9 267.48 32.12C266.33 33.34 264.41 33.41 263.18 32.27C261.95 31.13 261.88 29.21 263.03 27.99C264.18 26.77 266.1 26.7 267.33 27.84Z" fill="#F9D400"/>
<path opacity="0.16" d="M181.54 45.27C184.35 47.88 184.5 52.26 181.88 55.05C179.26 57.84 174.85 58 172.04 55.39C169.23 52.78 169.08 48.4 171.7 45.61C174.32 42.82 178.73 42.66 181.54 45.27Z" fill="#F9D400"/>
<path opacity="0.16" d="M266.19 394.89C267.42 396.03 267.49 397.95 266.34 399.17C265.19 400.39 263.27 400.46 262.04 399.32C260.81 398.18 260.74 396.26 261.89 395.04C263.04 393.82 264.96 393.75 266.19 394.89Z" fill="#F9D400"/>
<path opacity="0.16" d="M140.44 305.67C141.67 306.81 141.74 308.73 140.59 309.95C139.44 311.17 137.52 311.24 136.29 310.1C135.06 308.96 134.99 307.04 136.14 305.82C137.29 304.6 139.21 304.53 140.44 305.67Z" fill="#F9D400"/>
<path opacity="0.16" d="M146.53 166.56C147.76 167.7 147.83 169.62 146.68 170.84C145.53 172.06 143.61 172.13 142.38 170.99C141.15 169.85 141.08 167.93 142.23 166.71C143.38 165.49 145.3 165.42 146.53 166.56Z" fill="#F9D400"/>
<path opacity="0.21" d="M421.86 387.58C439.34 387.58 453.51 373.495 453.51 356.12C453.51 338.745 439.34 324.66 421.86 324.66C404.38 324.66 390.21 338.745 390.21 356.12C390.21 373.495 404.38 387.58 421.86 387.58Z" stroke="#222221" stroke-miterlimit="10"/>
<path opacity="0.16" d="M442.16 410.95C439.54 408.34 439.54 404.12 442.16 401.51C444.78 398.9 449.03 398.9 451.66 401.51C454.28 404.12 454.28 408.34 451.66 410.95C449.04 413.56 444.79 413.56 442.16 410.95Z" fill="#F9D400"/>
<path opacity="0.21" d="M46.43 414.85C63.9098 414.85 78.08 400.765 78.08 383.39C78.08 366.015 63.9098 351.93 46.43 351.93C28.9502 351.93 14.78 366.015 14.78 383.39C14.78 400.765 28.9502 414.85 46.43 414.85Z" stroke="#222221" stroke-miterlimit="10"/>
<path opacity="0.16" d="M13.95 348.33C11.97 349.79 9.17003 349.39 7.70003 347.42C6.23003 345.45 6.64003 342.67 8.62003 341.2C10.6 339.74 13.4 340.14 14.87 342.11C16.34 344.08 15.93 346.86 13.95 348.33Z" fill="#F9D400"/>
<path opacity="0.21" d="M65.43 166.96C82.9098 166.96 97.08 152.875 97.08 135.5C97.08 118.125 82.9098 104.04 65.43 104.04C47.9502 104.04 33.78 118.125 33.78 135.5C33.78 152.875 47.9502 166.96 65.43 166.96Z" stroke="#222221" stroke-miterlimit="10"/>
<path opacity="0.16" d="M20.94 173.68C22.47 170.32 26.45 168.84 29.83 170.36C33.21 171.88 34.7 175.84 33.17 179.2C31.64 182.56 27.66 184.04 24.28 182.52C20.9 181 19.41 177.04 20.94 173.68Z" fill="#F9D400"/>
<path d="M387.59 93.21V83.01C387.59 81.79 386.6 80.79 385.37 80.79H382.94C382.2 80.79 381.55 80.31 381.32 79.61C381.05 78.79 380.74 77.98 380.39 77.2C380.1 76.56 380.24 75.8 380.74 75.31L382.41 73.64C383.28 72.77 383.28 71.37 382.41 70.51L375.19 63.29C374.32 62.42 372.92 62.42 372.06 63.29L370.67 64.68C370.15 65.2 369.36 65.32 368.7 65C367.84 64.57 366.96 64.19 366.05 63.87C365.37 63.63 364.92 62.99 364.92 62.27V60.34C364.92 59.12 363.93 58.12 362.7 58.12H352.5C351.28 58.12 350.28 59.11 350.28 60.34V62.27C350.28 62.99 349.83 63.63 349.15 63.87C348.24 64.2 347.36 64.58 346.5 65C345.84 65.33 345.05 65.21 344.53 64.68L343.14 63.29C342.27 62.42 340.87 62.42 340.01 63.29L332.79 70.51C331.92 71.38 331.92 72.78 332.79 73.64L334.46 75.31C334.96 75.81 335.1 76.56 334.81 77.2C334.46 77.98 334.15 78.79 333.88 79.61C333.65 80.31 333 80.79 332.26 80.79H329.83C328.61 80.79 327.61 81.78 327.61 83.01V93.21C327.61 94.43 328.6 95.43 329.83 95.43H332.81C333.51 95.43 334.14 95.86 334.39 96.51C334.65 97.17 334.94 97.82 335.25 98.45C335.58 99.11 335.45 99.9 334.93 100.42L332.78 102.57C331.91 103.44 331.91 104.84 332.78 105.7L340 112.92C340.87 113.79 342.27 113.79 343.13 112.92L345.55 110.5C346.05 110 346.81 109.86 347.46 110.15C348.01 110.4 348.57 110.62 349.14 110.83C349.82 111.08 350.28 111.71 350.28 112.44V115.88C350.28 117.1 351.27 118.1 352.5 118.1H362.7C363.92 118.1 364.92 117.11 364.92 115.88V112.43C364.92 111.71 365.37 111.07 366.05 110.83C366.79 110.56 367.52 110.26 368.23 109.92C368.88 109.61 369.65 109.74 370.16 110.25L372.06 112.15C372.93 113.02 374.33 113.02 375.19 112.15L382.41 104.93C383.28 104.06 383.28 102.66 382.41 101.8L380.51 99.9C380 99.39 379.87 98.62 380.18 97.97C380.41 97.49 380.62 97 380.82 96.5C381.08 95.85 381.7 95.42 382.4 95.42H385.38C386.6 95.42 387.6 94.43 387.6 93.2L387.59 93.21ZM358.41 99.68C350.95 100.15 344.8 94 345.27 86.54C345.66 80.39 350.65 75.4 356.8 75.01C364.26 74.54 370.41 80.69 369.94 88.15C369.55 94.3 364.56 99.29 358.41 99.68Z" fill="white"/>
<path d="M386.59 91.22V81.02C386.59 79.8 385.6 78.8 384.37 78.8H381.94C381.2 78.8 380.55 78.32 380.32 77.62C380.05 76.8 379.74 75.99 379.39 75.21C379.1 74.57 379.24 73.81 379.74 73.32L381.41 71.65C382.28 70.78 382.28 69.38 381.41 68.52L374.19 61.3C373.32 60.43 371.92 60.43 371.06 61.3L369.67 62.69C369.15 63.21 368.36 63.33 367.7 63.01C366.84 62.58 365.96 62.2 365.05 61.88C364.37 61.64 363.92 61 363.92 60.28V58.35C363.92 57.13 362.93 56.13 361.7 56.13H351.5C350.28 56.13 349.28 57.12 349.28 58.35V60.28C349.28 61 348.83 61.64 348.15 61.88C347.24 62.21 346.36 62.59 345.5 63.01C344.84 63.34 344.05 63.22 343.53 62.69L342.14 61.3C341.27 60.43 339.87 60.43 339.01 61.3L331.79 68.52C330.92 69.39 330.92 70.79 331.79 71.65L333.46 73.32C333.96 73.82 334.1 74.57 333.81 75.21C333.46 75.99 333.15 76.8 332.88 77.62C332.65 78.32 332 78.8 331.26 78.8H328.83C327.61 78.8 326.61 79.79 326.61 81.02V91.22C326.61 92.44 327.6 93.44 328.83 93.44H331.81C332.51 93.44 333.14 93.87 333.39 94.52C333.65 95.18 333.94 95.83 334.25 96.46C334.58 97.12 334.45 97.91 333.93 98.43L331.78 100.58C330.91 101.45 330.91 102.85 331.78 103.71L339 110.93C339.87 111.8 341.27 111.8 342.13 110.93L344.55 108.51C345.05 108.01 345.81 107.87 346.46 108.16C347.01 108.41 347.57 108.63 348.14 108.84C348.82 109.09 349.28 109.72 349.28 110.45V113.89C349.28 115.11 350.27 116.11 351.5 116.11H361.7C362.92 116.11 363.92 115.12 363.92 113.89V110.44C363.92 109.72 364.37 109.08 365.05 108.84C365.79 108.57 366.52 108.27 367.23 107.93C367.88 107.62 368.65 107.75 369.16 108.26L371.06 110.16C371.93 111.03 373.33 111.03 374.19 110.16L381.41 102.94C382.28 102.07 382.28 100.67 381.41 99.81L379.51 97.91C379 97.4 378.87 96.63 379.18 95.98C379.41 95.5 379.62 95.01 379.82 94.51C380.08 93.86 380.7 93.43 381.4 93.43H384.38C385.6 93.43 386.6 92.44 386.6 91.21L386.59 91.22ZM357.41 97.69C349.95 98.16 343.8 92.01 344.27 84.55C344.66 78.4 349.65 73.41 355.8 73.02C363.26 72.55 369.41 78.7 368.94 86.16C368.55 92.31 363.56 97.3 357.41 97.69Z" stroke="black" stroke-width="1.12" stroke-linecap="round" stroke-linejoin="round"/>
<path d="M163.29 239.39C168.476 239.39 172.68 235.186 172.68 230C172.68 224.814 168.476 220.61 163.29 220.61C158.104 220.61 153.9 224.814 153.9 230C153.9 235.186 158.104 239.39 163.29 239.39Z" fill="white" stroke="black" stroke-width="1.12" stroke-linecap="round" stroke-linejoin="round"/>
<path d="M167.81 235.25C167.65 235.26 167.49 235.21 167.37 235.09L158.44 225.65C158.24 225.44 158.25 225.1 158.46 224.9C158.67 224.7 159.01 224.71 159.21 224.92L168.14 234.35C168.34 234.56 168.33 234.9 168.12 235.1C168.03 235.18 167.92 235.23 167.8 235.24L167.81 235.25Z" fill="black"/>
<path d="M158.04 234.52C158.03 234.36 158.08 234.2 158.2 234.08L167.64 225.15C167.85 224.95 168.19 224.96 168.39 225.17C168.59 225.38 168.58 225.72 168.37 225.92L158.94 234.85C158.73 235.05 158.39 235.04 158.19 234.83C158.11 234.74 158.06 234.63 158.05 234.51L158.04 234.52Z" fill="black"/>
<path d="M145.92 218.69C152.139 218.69 157.18 213.649 157.18 207.43C157.18 201.211 152.139 196.17 145.92 196.17C139.701 196.17 134.66 201.211 134.66 207.43C134.66 213.649 139.701 218.69 145.92 218.69Z" fill="#040504"/>
<path d="M144.43 213.38C144.38 213.38 144.32 213.39 144.27 213.39C143.93 213.39 143.6 213.26 143.37 213.01L139.27 208.61C138.82 208.13 138.84 207.37 139.33 206.92C139.81 206.47 140.57 206.49 141.02 206.98L144.22 210.4L150.79 202.25C151.22 201.76 151.99 201.7 152.48 202.13C152.98 202.57 153.03 203.32 152.6 203.82L145.15 212.97C144.96 213.19 144.7 213.32 144.43 213.37V213.38Z" fill="white"/>
<path d="M325.64 371.49C318.99 364.84 309.34 363.07 301.06 366.13C297.99 367.26 295.1 369.04 292.63 371.51C286.31 377.83 284.37 386.88 286.82 394.87C287.9 398.4 289.83 401.73 292.62 404.52C295.41 407.31 298.75 409.24 302.28 410.32C310.27 412.76 319.31 410.83 325.63 404.5C330.44 399.69 332.69 393.31 332.43 387.01C332.2 381.37 329.95 375.79 325.65 371.48L325.64 371.49ZM315.99 394.87C313.22 397.64 309.19 398.38 305.74 397.11C304.47 396.64 303.27 395.9 302.25 394.88C300.91 393.54 300.06 391.91 299.66 390.2C298.94 387.05 299.79 383.6 302.25 381.14C303.22 380.17 304.35 379.45 305.56 378.97C309.05 377.59 313.18 378.31 316 381.13C317.65 382.78 318.58 384.87 318.79 387.02C319.07 389.82 318.14 392.72 315.99 394.87Z" fill="white"/>
<path d="M311.68 322.41H256.48C252.38 322.41 249.05 325.74 249.05 329.84V365.02C249.05 369.12 252.38 372.45 256.48 372.45H265.06L264.57 377.38C264.44 378.73 266.02 379.54 267.04 378.64L273.99 372.46H311.69C315.79 372.46 319.12 369.13 319.12 365.03V329.85C319.12 325.75 315.79 322.42 311.69 322.42L311.68 322.41Z" fill="white"/>
<path d="M308.87 320.62H253.67C249.57 320.62 246.24 323.95 246.24 328.05V363.23C246.24 367.33 249.57 370.66 253.67 370.66H262.25L261.76 375.59C261.63 376.94 263.21 377.75 264.23 376.85L271.18 370.67H308.88C312.98 370.67 316.31 367.34 316.31 363.24V328.06C316.31 323.96 312.98 320.63 308.88 320.63L308.87 320.62Z" stroke="#222221" stroke-linecap="round" stroke-linejoin="round"/>
<path d="M310.7 331.28H253.67V333.77H310.7V331.28Z" fill="#F9D400"/>
<path d="M298.9 337.46H253.67V339.95H298.9V337.46Z" fill="#F9D400"/>
<path d="M310.7 343.64H253.67V346.13H310.7V343.64Z" fill="#F9D400"/>
<path d="M288.58 358.59H253.67V361.08H288.58V358.59Z" fill="#F9D400"/>
<path d="M279.24 352.84H253.67V355.33H279.24V352.84Z" fill="#F9D400"/>
<g opacity="0.21">
<path d="M315.99 394.87C318.14 392.72 319.07 389.82 318.79 387.02H332.42C332.68 393.31 330.43 399.69 325.62 404.5C319.3 410.82 310.26 412.76 302.27 410.32L305.74 397.11C309.19 398.39 313.22 397.65 315.99 394.87Z" stroke="#222221" stroke-miterlimit="10"/>
<path d="M302.25 394.88C303.27 395.9 304.47 396.64 305.74 397.11L302.27 410.32C298.73 409.24 295.4 407.31 292.61 404.52C289.82 401.73 287.89 398.4 286.81 394.87L299.66 390.2C300.05 391.92 300.91 393.55 302.25 394.88V394.88Z" stroke="#222221" stroke-miterlimit="10"/>
<path d="M325.64 371.49C329.95 375.8 332.19 381.37 332.42 387.02H318.79C318.57 384.87 317.65 382.78 316 381.13C313.18 378.31 309.05 377.59 305.56 378.97L301.05 366.13C309.33 363.08 318.99 364.85 325.63 371.49H325.64Z" stroke="#222221" stroke-miterlimit="10"/>
<path d="M302.26 381.14C299.8 383.6 298.94 387.05 299.67 390.2L286.82 394.87C284.38 386.88 286.31 377.83 292.63 371.51C295.1 369.04 297.99 367.26 301.06 366.13L305.57 378.97C304.37 379.44 303.24 380.16 302.26 381.14Z" stroke="#222221" stroke-miterlimit="10"/>
<path d="M315.99 394.87C318.14 392.72 319.07 389.82 318.79 387.02H332.42C332.68 393.31 330.43 399.69 325.62 404.5C319.3 410.82 310.26 412.76 302.27 410.32L305.74 397.11C309.19 398.39 313.22 397.65 315.99 394.87Z" stroke="#222221" stroke-miterlimit="10"/>
<path d="M302.25 394.88C303.27 395.9 304.47 396.64 305.74 397.11L302.27 410.32C298.73 409.24 295.4 407.31 292.61 404.52C289.82 401.73 287.89 398.4 286.81 394.87L299.66 390.2C300.05 391.92 300.91 393.55 302.25 394.88V394.88Z" stroke="#222221" stroke-miterlimit="10"/>
<path d="M325.64 371.49C329.95 375.8 332.19 381.37 332.42 387.02H318.79C318.57 384.87 317.65 382.78 316 381.13C313.18 378.31 309.05 377.59 305.56 378.97L301.05 366.13C309.33 363.08 318.99 364.85 325.63 371.49H325.64Z" stroke="#222221" stroke-miterlimit="10"/>
<path d="M302.26 381.14C299.8 383.6 298.94 387.05 299.67 390.2L286.82 394.87C284.38 386.88 286.31 377.83 292.63 371.51C295.1 369.04 297.99 367.26 301.06 366.13L305.57 378.97C304.37 379.44 303.24 380.16 302.26 381.14Z" stroke="#222221" stroke-miterlimit="10"/>
</g>
<path d="M146.617 91.7929C147.794 76.7338 136.563 63.5735 121.532 62.3984C106.5 61.2233 93.3603 72.4785 92.1831 87.5375C91.0059 102.597 102.237 115.757 117.268 116.932C132.3 118.107 145.44 106.852 146.617 91.7929Z" stroke="#F9D400" stroke-miterlimit="10"/>
<path d="M140.75 91.344C141.682 79.5232 132.873 69.1861 121.074 68.2554C109.276 67.3247 98.955 76.153 98.0226 87.9738C97.0902 99.7946 105.899 110.132 117.698 111.062C129.497 111.993 139.817 103.165 140.75 91.344Z" stroke="#F9D400" stroke-miterlimit="10"/>
<path d="M134.91 90.88C134.24 99.46 126.75 105.88 118.18 105.21C109.61 104.54 103.21 97.04 103.89 88.45C104.56 79.87 112.05 73.45 120.62 74.12C129.19 74.79 135.59 82.29 134.91 90.88Z" stroke="#F9D400" stroke-miterlimit="10"/>
<path d="M129.06 90.42C128.64 95.77 123.98 99.76 118.64 99.34C113.3 98.92 109.32 94.25 109.74 88.9C110.16 83.55 114.82 79.56 120.16 79.98C125.5 80.4 129.48 85.07 129.06 90.42Z" stroke="#F9D400" stroke-miterlimit="10"/>
<path d="M123.21 89.9601C123.04 92.0701 121.2 93.6401 119.1 93.4801C117 93.3101 115.42 91.4701 115.59 89.3601C115.76 87.2501 117.6 85.6801 119.7 85.8401C121.8 86.0101 123.38 87.8501 123.21 89.9601Z" fill="#F9D400"/>
<path d="M119.4 89.66L91.7001 64.7" stroke="black" stroke-miterlimit="10" stroke-linecap="round"/>
<path d="M114.24 89.79L119.01 84.62L120.75 91.35L114.24 89.79Z" fill="black"/>
<path d="M94.3101 67.06L90.7801 68.13L87.0101 64.97L91.1301 64.12L94.3101 67.06Z" fill="black"/>
<path d="M94.26 67.08L95.07 63.49L91.66 59.95L91.11 64.13L94.26 67.08Z" fill="black"/>
<path d="M436.17 153.91H432.98V167.48H436.17V153.91Z" fill="#F9D400"/>
<path d="M446.44 153.91H443.25V167.48H446.44V153.91Z" fill="#F9D400"/>
<path d="M451.58 143.72H448.39V167.48H451.58V143.72Z" fill="#F9D400"/>
<path d="M441.3 148.36H438.11V167.48H441.3V148.36Z" fill="#F9D400"/>
<path d="M430.42 141.88V169.33" stroke="black" stroke-width="1.12" stroke-linecap="round" stroke-linejoin="round"/>
<path d="M453.83 167.48H426.39" stroke="black" stroke-width="1.12" stroke-linecap="round" stroke-linejoin="round"/>
<path d="M24.3801 220.97L25.9801 231.49L48.6201 210.46L24.3801 220.97Z" fill="white" stroke="#222221" stroke-linecap="round" stroke-linejoin="round"/>
<path d="M48.6201 210.46L27.5801 224.63L35.3601 231.49L48.6201 210.46Z" fill="white" stroke="#222221" stroke-linecap="round" stroke-linejoin="round"/>
<path d="M48.62 210.46L24.38 220.97L16.61 215.71L48.62 210.46Z" fill="white" stroke="#222221" stroke-linecap="round" stroke-linejoin="round"/>
<path d="M27.58 224.63L25.98 231.49" stroke="#222221" stroke-linecap="round" stroke-linejoin="round"/>
<path d="M184.33 350.77C184.33 350.77 169.1 337.73 156.25 348.57C143.4 359.41 149.89 374.65 148.12 380.28C146.35 385.91 135.3 386.8 137.63 396.14C139.43 403.75 147.53 399.33 147.53 399.33C147.53 399.33 140.52 408.45 148.6 413.16C156.68 417.87 159.78 412.8 170.26 398.25C194.93 363.99 184.34 350.77 184.34 350.77H184.33Z" fill="black"/>
<path d="M185.77 360.48C183.44 364.56 175.57 364.46 168.2 360.25C160.83 356.04 156.75 349.31 159.08 345.23C161.41 341.15 169.28 341.25 176.65 345.46C184.02 349.67 188.1 356.4 185.77 360.48Z" fill="white" stroke="black" stroke-linecap="round" stroke-linejoin="round"/>
<path d="M169.12 294.66C155.79 299.71 146.58 312.42 152.47 333.33C153.4 336.62 153.21 335.23 154.81 339.42C159.1 350.66 170.6 364.62 190.04 359.13C223.49 349.7 222.13 341.9 220.39 321.85C218.65 301.8 205.85 290.18 183.25 294.2C178.19 295.1 173.15 293.13 169.12 294.66Z" fill="black"/>
<path d="M183.48 293.52C183.57 290.91 182.74 288.28 181.2 286.17C180.75 285.56 179.79 285.75 179.66 286.5C179.31 288.47 179.74 290.59 180.89 292.23C179.5 290.81 178.11 289.4 176.72 287.98C176.15 287.4 175.43 286.78 174.64 286.95C173.99 287.1 173.57 287.78 173.53 288.45C173.49 289.12 173.76 289.76 174.06 290.35C175.35 292.88 177.42 295.01 179.93 296.36" fill="black"/>
<path d="M196.28 360.59C196.28 360.59 208.38 360.86 215.23 364.41C220.47 367.13 227.86 379.18 230.44 389.05C230.44 389.05 224.12 394.21 215.59 394.48C215.59 394.48 215.59 415.29 213.99 421.43C212.39 427.57 172.36 429.17 163.56 421.96L165.16 396.34C165.16 396.34 154.4 396.25 149.15 389.4C149.15 389.4 155.55 365.38 168.1 361.91C180.64 358.44 196.3 360.58 196.3 360.58L196.28 360.59Z" fill="white" stroke="black" stroke-linecap="round" stroke-linejoin="round"/>
<path d="M230.44 389.05L229.49 386.33C224.1 389.92 219.45 390.41 219.45 390.41L220.33 393.72C220.33 393.72 226.29 392.41 230.44 389.05Z" fill="white" stroke="#222221" stroke-linecap="round" stroke-linejoin="round"/>
<path d="M209.66 362.65C209.49 362.03 190.63 359.07 179.61 360.29C179.61 360.29 182.1 370.27 195.13 371.48C206.15 372.51 209.66 362.65 209.66 362.65Z" fill="white" stroke="#222221" stroke-linecap="round" stroke-linejoin="round"/>
<path d="M206.78 363.52C206.65 363.12 191.17 361.39 183.83 361.52C183.83 361.52 184.76 368.47 195.17 369.26C203.98 369.93 206.78 363.52 206.78 363.52Z" fill="white" stroke="black" stroke-linecap="round" stroke-linejoin="round"/>
<path d="M206.78 363.52C206.65 363.12 191.17 361.39 183.83 361.52C183.83 361.52 184.76 368.47 195.17 369.26C203.98 369.93 206.78 363.52 206.78 363.52V363.52Z" stroke="black" stroke-miterlimit="10"/>
<path d="M203.52 365.41C203.59 365.24 203.61 365.14 203.61 365.14L203.71 357.68L203.73 355.96C198.92 358.07 191.17 358.86 187.38 359.13L187.88 365.14" fill="white"/>
<path d="M203.52 365.41C203.59 365.24 203.61 365.14 203.61 365.14L203.71 357.68L203.73 355.96C198.92 358.07 191.17 358.86 187.38 359.13L187.88 365.14" stroke="black" stroke-linecap="round" stroke-linejoin="round"/>
<path d="M203.52 365.41C203.59 365.24 203.61 365.14 203.61 365.14L203.71 357.68L203.73 355.96C198.92 358.07 191.17 358.86 187.38 359.13L187.88 365.14" stroke="black" stroke-miterlimit="10"/>
<path d="M203.81 350.23L186.79 352.02L187.23 357.23L187.39 359.14C191.18 358.87 198.93 358.08 203.74 355.97L203.81 350.24V350.23Z" fill="black" stroke="black" stroke-miterlimit="10"/>
<path d="M213.29 322.26C213.29 322.26 222.77 316.65 225.26 326.99C227.34 335.65 219.52 338.67 214.35 335.98" fill="white"/>
<path d="M213.29 322.26C213.29 322.26 222.77 316.65 225.26 326.99C227.34 335.65 219.52 338.67 214.35 335.98" stroke="black" stroke-linecap="round" stroke-linejoin="round"/>
<path d="M213.29 322.26C213.29 322.26 222.77 316.65 225.26 326.99C227.34 335.65 219.52 338.67 214.35 335.98" stroke="black" stroke-miterlimit="10"/>
<path d="M215.88 333.89C215.88 333.89 215.94 333.87 215.96 333.86C216.06 333.79 216.08 333.66 216.01 333.56C215.98 333.51 212.8 328.92 215.87 325.92C216.95 324.87 218.1 324.35 219.32 324.39C221.41 324.45 222.98 326.14 223 326.16C223.08 326.25 223.21 326.25 223.3 326.17C223.39 326.09 223.39 325.96 223.31 325.87C223.24 325.79 221.61 324.03 219.33 323.96C218 323.92 216.73 324.48 215.57 325.61C212.25 328.85 215.63 333.75 215.66 333.8C215.71 333.87 215.79 333.9 215.87 333.89H215.88Z" fill="black"/>
<path d="M220.27 328.83C220.33 328.82 220.39 328.78 220.42 328.71C220.47 328.6 220.42 328.48 220.32 328.43C220.28 328.41 216.29 326.51 214.18 329.6C214.11 329.7 214.14 329.83 214.24 329.9C214.34 329.97 214.47 329.94 214.54 329.84C216.45 327.05 220.11 328.79 220.15 328.81C220.19 328.83 220.24 328.84 220.28 328.83H220.27Z" fill="black"/>
<path d="M219.28 346.23C216.71 346.23 214.37 344.61 213.47 342.21C212.96 340.85 212.94 339.35 213.42 337.99C213.46 337.89 213.55 337.82 213.66 337.82C213.69 337.82 213.72 337.82 213.74 337.83L214.63 338.14C214.76 338.19 214.83 338.33 214.78 338.46C214.41 339.51 214.43 340.66 214.82 341.7C215.51 343.54 217.3 344.78 219.28 344.78C219.85 344.78 220.41 344.68 220.95 344.48C222.14 344.03 223.08 343.15 223.61 341.99C224.14 340.83 224.18 339.54 223.73 338.35C223.06 336.56 221.38 335.35 219.47 335.27C219.4 335.27 219.34 335.24 219.3 335.19C219.26 335.14 219.23 335.08 219.23 335.01L219.27 334.06C219.27 333.93 219.39 333.82 219.52 333.82H219.53C222.03 333.92 224.21 335.5 225.08 337.84C225.66 339.39 225.6 341.07 224.92 342.58C224.24 344.09 223 345.24 221.46 345.82C220.76 346.08 220.03 346.22 219.29 346.22L219.28 346.23Z" fill="white"/>
<path d="M219.51 334.08C221.91 334.18 224 335.69 224.84 337.94C225.99 341.01 224.43 344.45 221.36 345.6C220.67 345.86 219.97 345.98 219.27 345.98C216.86 345.98 214.59 344.51 213.69 342.12C213.2 340.82 213.18 339.38 213.64 338.07L214.53 338.38C214.14 339.48 214.16 340.69 214.57 341.79C215.32 343.8 217.24 345.04 219.26 345.04C219.84 345.04 220.44 344.94 221.01 344.72C223.59 343.75 224.91 340.86 223.94 338.27C223.23 336.38 221.47 335.11 219.46 335.03L219.5 334.08M219.5 333.58C219.37 333.58 219.25 333.63 219.16 333.71C219.06 333.8 219 333.92 219 334.06L218.96 335.01C218.95 335.29 219.16 335.52 219.44 335.53C221.25 335.6 222.84 336.75 223.48 338.45C224.35 340.78 223.17 343.38 220.85 344.25C220.34 344.44 219.81 344.54 219.27 344.54C217.4 344.54 215.7 343.37 215.05 341.62C214.68 340.63 214.67 339.54 215.01 338.55C215.1 338.29 214.96 338 214.7 337.91L213.81 337.6C213.76 337.58 213.7 337.57 213.64 337.57C213.43 337.57 213.24 337.7 213.17 337.9C212.67 339.32 212.69 340.88 213.22 342.29C214.16 344.79 216.59 346.47 219.27 346.47C220.04 346.47 220.8 346.33 221.53 346.06C224.86 344.81 226.55 341.08 225.3 337.75C224.39 335.32 222.12 333.68 219.52 333.57C219.52 333.57 219.51 333.57 219.5 333.57V333.58Z" fill="black"/>
<path d="M161.85 316.3C161.85 316.3 165.65 325.25 171.54 339.49C176.14 350.6 185.62 358.75 199.96 355.42C213.67 352.24 224.18 340.35 220.75 320.82C217.32 301.29 205.8 289.38 187.92 292.12C170.05 294.86 160.57 303.83 161.85 316.29V316.3Z" fill="white" stroke="black" stroke-linecap="round" stroke-linejoin="round"/>
<path d="M161.85 316.3C161.85 316.3 165.65 325.25 171.54 339.49C176.14 350.6 185.62 358.75 199.96 355.42C213.67 352.24 224.18 340.35 220.75 320.82C217.32 301.29 205.8 289.38 187.92 292.12C170.05 294.86 160.57 303.83 161.85 316.29V316.3Z" stroke="black" stroke-miterlimit="10"/>
<path d="M173.49 333.48C173.49 333.48 162.48 333.48 165.61 343.65C168.15 351.9 175.82 350.9 179.09 346.36" fill="white"/>
<path d="M173.49 333.48C173.49 333.48 162.48 333.48 165.61 343.65C168.15 351.9 175.82 350.9 179.09 346.36" stroke="black" stroke-linecap="round" stroke-linejoin="round"/>
<path d="M173.49 333.48C173.49 333.48 162.48 333.48 165.61 343.65C168.15 351.9 175.82 350.9 179.09 346.36" stroke="black" stroke-miterlimit="10"/>
<path d="M177.19 344.8C177.19 344.8 177.13 344.81 177.1 344.81C176.98 344.81 176.9 344.7 176.9 344.58C176.9 344.52 177.29 338.95 173.13 337.94C171.67 337.58 170.41 337.73 169.38 338.38C167.61 339.5 167.12 341.75 167.12 341.78C167.1 341.9 166.98 341.97 166.87 341.95C166.75 341.93 166.68 341.81 166.7 341.7C166.72 341.6 167.23 339.25 169.15 338.03C170.28 337.32 171.65 337.15 173.23 337.54C177.74 338.64 177.33 344.57 177.32 344.63C177.32 344.72 177.26 344.79 177.18 344.81L177.19 344.8Z" fill="black"/>
<path d="M170.84 342.69C170.78 342.71 170.71 342.71 170.65 342.67C170.55 342.61 170.52 342.47 170.59 342.37C170.61 342.33 173.08 338.66 176.47 340.25C176.58 340.3 176.62 340.43 176.57 340.53C176.52 340.64 176.39 340.68 176.29 340.63C173.22 339.2 170.96 342.57 170.94 342.6C170.91 342.64 170.88 342.67 170.83 342.68L170.84 342.69Z" fill="black"/>
<path d="M200.83 340.48C197.7 341.35 196.61 338.84 196.6 338.82C196.55 338.71 196.6 338.59 196.71 338.54C196.81 338.49 196.94 338.54 196.99 338.65C197.03 338.75 198.07 341.11 201.27 339.88C201.38 339.85 201.5 339.89 201.55 340C201.59 340.11 201.54 340.23 201.43 340.28C201.22 340.36 201.02 340.43 200.83 340.48Z" fill="black"/>
<path d="M214.64 318.42C214.64 318.42 216.18 316.04 211.24 314.97C206.3 313.9 204.92 314.82 204.54 316.14C204.19 317.35 205.61 318.63 208.39 319.17C211.74 319.83 213.83 319.76 214.65 318.41L214.64 318.42Z" fill="black"/>
<path d="M208.29 327.63C208.68 329.03 209.92 329.9 211.06 329.58C212.2 329.26 212.82 327.87 212.43 326.48C212.04 325.08 210.8 324.21 209.66 324.53C208.52 324.85 207.9 326.23 208.29 327.63Z" fill="black"/>
<path d="M179.41 328.18C179.41 328.18 176.87 326.93 180.55 323.47C184.24 320.01 185.89 320.09 186.9 321.03C187.82 321.89 187.27 323.71 185.16 325.61C182.63 327.89 180.8 328.91 179.41 328.18Z" fill="black"/>
<path d="M190.5 332.56C190.89 333.95 190.27 335.34 189.13 335.66C187.99 335.98 186.74 335.1 186.36 333.71C185.97 332.31 186.59 330.93 187.73 330.61C188.87 330.29 190.12 331.17 190.5 332.56Z" fill="black"/>
<path d="M201.32 335.15C201.24 335.16 201.16 335.13 201.11 335.06C201.05 334.96 201.07 334.83 201.17 334.77C201.19 334.76 202.74 333.71 203.25 332.09C203.65 330.81 203.18 329.07 202.27 328.43C201.72 328.05 201.08 328.11 200.4 328.61C200.38 328.63 200.34 328.65 200.3 328.69C197.95 330.61 196.68 330.12 196.02 329.37C194.82 328 193.72 315.82 193.59 314.44C193.59 314.32 193.67 314.22 193.78 314.21C193.9 314.2 194 314.29 194.01 314.4C194.34 318.12 195.39 328.01 196.33 329.09C197.1 329.97 198.35 329.73 200.02 328.36C200.07 328.32 200.11 328.29 200.13 328.27C200.96 327.65 201.8 327.59 202.5 328.08C203.56 328.83 204.09 330.76 203.64 332.22C203.09 333.99 201.46 335.09 201.39 335.13C201.36 335.15 201.34 335.16 201.31 335.16L201.32 335.15Z" fill="black"/>
<path d="M179.95 292.78C179.95 292.78 224.87 273.42 220.41 319.81C220.41 319.81 225.22 317.58 220.41 319.81C215.6 322.04 200.21 310.44 197.65 305.19C197.65 305.19 186.42 329.73 166.14 337.62C163.5 338.65 161.23 340.84 160.97 341.91C160.72 342.98 147.15 325.93 153.43 311.4C161.16 293.55 177.32 291.98 179.94 292.77L179.95 292.78Z" fill="black"/>
<path d="M197.66 305.2C197.66 305.2 186.43 329.74 166.15 337.63" stroke="black" stroke-linecap="round" stroke-linejoin="round"/>
<path d="M220.41 319.82C215.6 322.05 200.21 310.45 197.65 305.2" stroke="black" stroke-linecap="round" stroke-linejoin="round"/>
<path d="M198.14 305.38C196.34 310.37 193.9 315.08 190.98 318.91C184.67 327.16 175.07 334.44 165.14 337.5" stroke="black" stroke-linecap="round" stroke-linejoin="round"/>
<path d="M175.89 357.39C173.66 357.39 171.6 356.21 170.51 354.31C169.79 353.05 169.53 351.57 169.8 350.13C169.82 350.01 169.93 349.92 170.05 349.92C170.07 349.92 170.08 349.92 170.1 349.92L171.03 350.09C171.09 350.1 171.15 350.14 171.19 350.19C171.23 350.24 171.24 350.31 171.23 350.38C171.03 351.48 171.23 352.61 171.77 353.57C172.61 355.02 174.19 355.92 175.9 355.92C176.76 355.92 177.61 355.69 178.36 355.26C180.68 353.92 181.51 350.98 180.2 348.71C179.36 347.26 177.79 346.35 176.08 346.35C175.87 346.35 175.66 346.36 175.44 346.39C175.43 346.39 175.42 346.39 175.41 346.39C175.29 346.39 175.18 346.3 175.16 346.17L175.04 345.23C175.04 345.16 175.04 345.1 175.09 345.05C175.14 345 175.19 344.96 175.26 344.95C175.54 344.91 175.81 344.9 176.09 344.9C178.31 344.9 180.36 346.08 181.46 347.98C183.17 350.94 182.11 354.77 179.09 356.5C178.12 357.06 177.02 357.35 175.91 357.35L175.89 357.39Z" fill="white"/>
<path d="M176.07 345.19C178.19 345.19 180.16 346.3 181.22 348.14C182.86 350.98 181.84 354.65 178.94 356.32C177.97 356.88 176.92 357.14 175.89 357.14C173.82 357.14 171.82 356.08 170.72 354.19C170.02 352.98 169.78 351.56 170.04 350.18L170.97 350.35C170.76 351.51 170.97 352.7 171.54 353.71C172.46 355.3 174.14 356.19 175.89 356.19C176.77 356.19 177.66 355.97 178.47 355.5C180.91 354.09 181.78 351 180.4 348.61C179.51 347.06 177.85 346.13 176.07 346.13C175.85 346.13 175.62 346.14 175.4 346.17L175.28 345.23C175.55 345.2 175.81 345.18 176.07 345.18M176.07 344.68C175.78 344.68 175.5 344.7 175.21 344.74C175.08 344.76 174.96 344.83 174.88 344.93C174.8 345.03 174.76 345.17 174.78 345.3L174.9 346.24C174.93 346.49 175.15 346.68 175.4 346.68C175.42 346.68 175.44 346.68 175.47 346.68C175.67 346.65 175.88 346.64 176.08 346.64C177.69 346.64 179.19 347.49 179.98 348.87C181.22 351.02 180.44 353.81 178.23 355.08C177.52 355.49 176.71 355.71 175.9 355.71C174.28 355.71 172.78 354.86 171.99 353.48C171.47 352.57 171.28 351.5 171.47 350.46C171.52 350.19 171.34 349.93 171.07 349.88L170.14 349.71C170.14 349.71 170.08 349.71 170.05 349.71C169.95 349.71 169.85 349.74 169.77 349.8C169.66 349.88 169.59 349.99 169.56 350.12C169.28 351.61 169.55 353.16 170.3 354.47C171.44 356.45 173.58 357.67 175.9 357.67C177.05 357.67 178.2 357.36 179.2 356.78C180.71 355.91 181.8 354.5 182.27 352.83C182.74 351.15 182.52 349.41 181.66 347.91C180.52 345.93 178.38 344.71 176.07 344.71V344.68Z" fill="black"/>
<path d="M210.88 365.76C210.88 365.76 217.9 375.56 219.37 389.6" stroke="black" stroke-width="0.5" stroke-miterlimit="10"/>
<path d="M212.67 395.28C212.67 395.28 223.58 394.84 228.92 390.21C228.92 390.21 229.39 392.28 230.04 395.24C224.62 397.9 218.77 398.76 212.82 398.85L212.67 395.29V395.28Z" fill="#202020" stroke="#202020" stroke-miterlimit="10"/>
<path d="M213.47 413.69L212.82 398.84C218.77 398.75 224.62 397.89 230.04 395.23C231.47 401.72 233.77 412.49 233.89 415.06C234.07 418.8 228.41 426.27 219.69 428.05C210.97 429.83 196.38 424.36 196.38 424.36L196.2 414.4C196.2 414.4 204.65 412.09 213.46 413.69H213.47Z" fill="white" stroke="black" stroke-linecap="round" stroke-linejoin="round"/>
<path d="M213.47 413.69L212.82 398.84C218.77 398.75 224.62 397.89 230.04 395.23C231.47 401.72 233.77 412.49 233.89 415.06C234.07 418.8 228.41 426.27 219.69 428.05C210.97 429.83 196.38 424.36 196.38 424.36L196.2 414.4C196.2 414.4 204.65 412.09 213.46 413.69H213.47Z" stroke="black" stroke-miterlimit="10"/>
<path d="M226.66 426.5L181.56 428.23L181.89 396.83C181.93 393 185.03 389.91 188.85 389.88L221 389.6C224.47 389.57 227.27 392.4 227.21 395.87L226.66 426.5Z" fill="white" stroke="black" stroke-linecap="round" stroke-linejoin="round"/>
<path d="M209.82 410.12C209.75 411.79 208.34 413.09 206.66 413.02C204.99 412.95 203.69 411.54 203.76 409.86C203.83 408.19 205.24 406.89 206.92 406.96C208.59 407.03 209.89 408.44 209.82 410.12Z" fill="white" stroke="black" stroke-linecap="round" stroke-linejoin="round"/>
<path d="M298.49 440.64L306.81 441.03C310.23 451.79 305.46 456.53 305.46 456.53L298.51 455.86C299.27 450.83 299.11 445.67 298.48 440.64H298.49Z" fill="white" stroke="black" stroke-linecap="round" stroke-linejoin="round"/>
<path d="M298.49 440.64L306.81 441.03C310.23 451.79 305.46 456.53 305.46 456.53L298.51 455.86C299.27 450.83 299.11 445.67 298.48 440.64H298.49Z" stroke="#222221" stroke-linecap="round" stroke-linejoin="round"/>
<path d="M295.64 440.51L298.49 440.64C299.11 445.67 299.27 450.83 298.52 455.86L294.13 455.44L295.65 440.51H295.64Z" fill="black" stroke="black" stroke-linecap="round" stroke-linejoin="round"/>
<path d="M320.29 425.74L322.52 425.95C322.52 425.95 324.87 444.58 319.13 457.01L316.71 457.22L320.3 425.74H320.29Z" fill="white" stroke="black" stroke-linecap="round" stroke-linejoin="round"/>
<path d="M306.82 453.44C307.43 451.07 307.82 447.15 306.82 441.03C306.82 441.03 309.21 436.11 312.28 431.84C314.39 433.9 317.43 434.95 320.36 435.46C320.22 440.75 319.74 447.23 318.43 452.38C314.51 451.32 310.44 451.31 306.82 453.43V453.44Z" fill="white" stroke="black" stroke-linecap="round" stroke-linejoin="round"/>
<path d="M320.29 425.74C320.29 425.74 320.5 429.95 320.35 435.46C317.42 434.94 314.38 433.9 312.27 431.84C314.8 428.33 317.78 425.26 320.28 425.74H320.29Z" fill="white" stroke="black" stroke-linecap="round" stroke-linejoin="round"/>
<path d="M305.47 456.53C305.47 456.53 306.25 455.67 306.82 453.44C310.43 451.32 314.51 451.33 318.43 452.39C317.97 454.2 317.4 455.86 316.71 457.22C316.71 457.22 312.68 458.55 305.47 456.53Z" fill="white" stroke="black" stroke-linecap="round" stroke-linejoin="round"/>
<path d="M308.77 437.15C308.77 437.15 309.66 439.78 313.82 441.75L308.77 437.15Z" fill="white"/>
<path d="M308.77 437.15C308.77 437.15 309.66 439.78 313.82 441.75" stroke="black" stroke-linecap="round" stroke-linejoin="round"/>
<path d="M307.54 439.54C307.54 439.54 308.43 442.17 312.59 444.14L307.54 439.54Z" fill="white"/>
<path d="M307.54 439.54C307.54 439.54 308.43 442.17 312.59 444.14" stroke="black" stroke-linecap="round" stroke-linejoin="round"/>
<path d="M308.04 441.01C306.23 440.04 304.17 439.52 302.12 439.54C301.58 439.54 300.91 439.69 300.79 440.21C300.72 440.53 300.91 440.86 301.18 441.04C301.45 441.23 301.78 441.3 302.1 441.35C304.09 441.68 306.16 441.57 308.1 441.02C306.46 441.36 304.86 441.91 303.36 442.66C302.75 442.97 302.06 443.47 302.14 444.15C302.19 444.59 302.57 444.94 302.99 445.06C303.41 445.19 303.87 445.13 304.3 445.02C306.26 444.55 307.99 443.16 308.86 441.34" stroke="#222221" stroke-linecap="round" stroke-linejoin="round"/>
<path d="M160.08 420.1C160.08 420.1 155.28 430.51 157.41 436.38C161.94 448.83 186.76 459.6 201.97 456.66C217.18 453.72 220.92 426.77 220.92 426.77L160.08 420.1Z" fill="black"/>
<path d="M160.08 420.1C160.08 420.1 155.28 430.51 157.41 436.38C161.94 448.83 186.76 459.6 201.97 456.66C217.18 453.72 220.92 426.77 220.92 426.77L160.08 420.1V420.1Z" stroke="#222221" stroke-linecap="round" stroke-linejoin="round"/>
<path d="M297.06 437.18C297.06 437.18 297.42 450.7 294.93 457.46C294.93 457.46 243.26 457.01 210.4 456.65C217 448.78 221.1 438.56 224.15 428.71C250.72 430.86 284.89 434.08 297.06 437.17V437.18Z" fill="black"/>
<path d="M297.06 437.18C297.06 437.18 297.42 450.7 294.93 457.46C294.93 457.46 243.26 457.01 210.4 456.65C217 448.78 221.1 438.56 224.15 428.71C250.72 430.86 284.89 434.08 297.06 437.17V437.18Z" stroke="black" stroke-linecap="round" stroke-linejoin="round"/>
<path d="M189.61 426.15C189.61 426.15 204.88 427.16 224.15 428.72C221.1 438.56 217 448.79 210.4 456.66C201.73 456.56 194.36 456.47 189.61 456.4V426.16V426.15Z" fill="black" stroke="black" stroke-linecap="round" stroke-linejoin="round"/>
<path d="M296.43 449.68L212.34 447.43" stroke="white" stroke-width="0.5" stroke-linecap="round" stroke-linejoin="round"/>
<path d="M297.17 447.72L214.63 445.52" stroke="white" stroke-width="0.5" stroke-linecap="round" stroke-linejoin="round"/>
<path d="M254.37 451L250.27 446.79L261.08 436.38L264.28 439.36C261.94 443.96 258.48 447.95 254.37 451Z" fill="black" stroke="black" stroke-linecap="round" stroke-linejoin="round"/>
<path d="M264.28 439.35L269.27 443.99C264.92 454.41 258.21 454.94 258.21 454.94L254.36 450.99C258.47 447.94 261.93 443.94 264.27 439.35H264.28Z" fill="white" stroke="black" stroke-linecap="round" stroke-linejoin="round"/>
<path d="M264.28 439.35L269.27 443.99C264.92 454.41 258.21 454.94 258.21 454.94L254.36 450.99C258.47 447.94 261.93 443.94 264.27 439.35H264.28Z" stroke="#222221" stroke-linecap="round" stroke-linejoin="round"/>
<path d="M289.43 441.05L291 442.65C291 442.65 280.75 458.38 268.33 464.15L266.34 462.75L289.43 441.06V441.05Z" fill="white" stroke="black" stroke-linecap="round" stroke-linejoin="round"/>
<path d="M261.25 453.47C263.25 452.06 266.08 449.31 269.27 444C269.27 444 274.27 441.79 279.37 440.52C279.64 443.46 281.29 446.22 283.19 448.51C279.66 452.45 275.11 457.09 270.78 460.17C268.47 456.83 265.37 454.19 261.25 453.47Z" fill="white" stroke="black" stroke-linecap="round" stroke-linejoin="round"/>
<path d="M289.43 441.05C289.43 441.05 286.87 444.4 283.19 448.51C281.29 446.22 279.64 443.46 279.37 440.52C283.57 439.48 287.83 439.06 289.43 441.05Z" fill="white" stroke="black" stroke-linecap="round" stroke-linejoin="round"/>
<path d="M258.22 454.95C258.22 454.95 259.36 454.8 261.25 453.47C265.38 454.19 268.48 456.83 270.78 460.17C269.25 461.25 267.75 462.15 266.34 462.74C266.34 462.74 262.4 461.15 258.21 454.95H258.22Z" fill="white" stroke="black" stroke-linecap="round" stroke-linejoin="round"/>
<path d="M273.27 442.3C273.27 442.3 272.25 444.88 274.15 449.07L273.27 442.3Z" fill="white"/>
<path d="M273.27 442.3C273.27 442.3 272.25 444.88 274.15 449.07" stroke="black" stroke-linecap="round" stroke-linejoin="round"/>
<path d="M270.79 443.33C270.79 443.33 269.77 445.91 271.67 450.1L270.79 443.33Z" fill="white"/>
<path d="M270.79 443.33C270.79 443.33 269.77 445.91 271.67 450.1" stroke="black" stroke-linecap="round" stroke-linejoin="round"/>
<path d="M270.21 444.77C269.46 442.86 268.22 441.14 266.64 439.82C266.23 439.48 265.62 439.15 265.19 439.48C264.93 439.68 264.86 440.05 264.95 440.37C265.03 440.68 265.24 440.95 265.45 441.2C266.75 442.74 268.4 443.99 270.24 444.83C268.77 444.02 267.19 443.41 265.56 443.01C264.89 442.85 264.05 442.79 263.66 443.35C263.41 443.72 263.48 444.23 263.72 444.6C263.96 444.97 264.35 445.22 264.74 445.42C266.54 446.33 268.76 446.39 270.6 445.56" stroke="#222221" stroke-linecap="round" stroke-linejoin="round"/>
<path d="M177.69 430.24C177.69 430.24 205.44 399.82 219.32 400.89C233.2 401.96 256.15 426.77 263.62 436.65C263.62 436.65 257.75 447.32 250.01 449.73C250.01 449.73 231.6 443.33 220.39 431.32C220.39 431.32 213.99 459.07 188.37 459.34C162.75 459.61 157.42 436.39 157.42 436.39" fill="black"/>
<path d="M164.35 414.76C173.16 413.16 181.61 415.47 181.61 415.47L181.43 425.43C181.43 425.43 166.84 430.9 158.13 429.12C149.41 427.34 148.43 420.36 148.61 416.62C148.75 413.7 149.81 399.35 150.27 393.2C154.76 396.31 159.7 398.75 164.98 400.47L164.36 414.76H164.35Z" fill="white" stroke="black" stroke-linecap="round" stroke-linejoin="round"/>
<path d="M164.35 414.76C173.16 413.16 181.61 415.47 181.61 415.47L181.43 425.43C181.43 425.43 166.84 430.9 158.13 429.12C149.41 427.34 148.43 420.36 148.61 416.62C148.75 413.7 149.81 399.35 150.27 393.2C154.76 396.31 159.7 398.75 164.98 400.47L164.36 414.76H164.35Z" stroke="black" stroke-miterlimit="10"/>
<path d="M165.15 396.35L164.97 400.47C159.69 398.75 154.75 396.31 150.26 393.2C150.39 391.47 150.59 390.9 150.59 390.9C155.93 395.53 165.15 396.34 165.15 396.34V396.35Z" fill="#202020" stroke="#202020" stroke-miterlimit="10"/>
<path d="M256.27 445.6C256.27 445.6 222.99 424.72 218.06 420.78C216.43 419.47 210.06 437.76 197.16 446.09C187.94 452.04 164.67 450.34 163.36 429.6" stroke="white" stroke-width="0.5" stroke-linecap="round" stroke-linejoin="round"/>
<path d="M216.46 425.68C216.46 425.68 218.7 429.81 221.74 432.72" stroke="white" stroke-linecap="round" stroke-linejoin="round"/>
<path d="M258.06 444.29C258.06 444.29 219.37 418.49 217.57 417.19C215.77 415.88 213.16 421.43 209.24 427.31C204.22 434.85 198.3 446.41 184.75 445.76C171.2 445.11 166.63 438.09 166.3 428.94" stroke="white" stroke-width="0.5" stroke-linecap="round" stroke-linejoin="round"/>
<path d="M177.41 362C177.41 362 168.27 371.14 165.98 392.53" stroke="black" stroke-width="0.5" stroke-miterlimit="10"/>
<path d="M165.15 396.35L165.47 393.54C165.47 393.54 153.57 392.38 150.14 386.34L149.06 389.63C149.06 389.63 152.64 395.44 165.15 396.36V396.35Z" fill="white" stroke="#222221" stroke-linecap="round" stroke-linejoin="round"/>
<path d="M177.69 430.24C177.69 430.24 205.44 399.82 219.32 400.89C233.2 401.96 256.15 426.77 263.62 436.65C263.62 436.65 257.75 447.32 250.01 449.73C250.01 449.73 231.6 443.33 220.39 431.32C220.39 431.32 216.79 446.93 204.18 454.85" stroke="white" stroke-linecap="round" stroke-linejoin="round"/>
<path d="M418.25 309.53C429.49 304.52 423.87 278.4 420.05 264.06C418.73 259.09 415.44 254.8 410.85 252.48C406.85 250.46 404.25 251.08 404.25 251.08L402.16 271.13C402.16 271.26 402.16 271.38 402.18 271.52C402.65 278.17 404.06 292.2 404.06 292.2" fill="white"/>
<path d="M418.25 309.53C429.49 304.52 423.87 278.4 420.05 264.06C418.73 259.09 415.44 254.8 410.85 252.48C406.85 250.46 404.25 251.08 404.25 251.08L402.16 271.13C402.16 271.26 402.16 271.38 402.18 271.52C402.65 278.17 404.06 292.2 404.06 292.2" stroke="black" stroke-width="1.12" stroke-linecap="round" stroke-linejoin="round"/>
<path d="M436.76 244.33C440.54 231.98 437.64 217.59 429.37 207.67C428.58 206.72 427.71 205.76 426.88 204.84C423.69 201.32 420.39 197.68 419.99 193.08L419.39 193.13C419.81 197.93 423.18 201.65 426.44 205.24C427.27 206.16 428.13 207.11 428.92 208.05C437.07 217.82 439.92 231.99 436.2 244.15L436.78 244.33H436.76Z" fill="black"/>
<path d="M353.18 185.62L352.73 185.56C352.42 187.94 351.38 190.03 349.99 191.96H350.55C351.89 190.05 352.87 187.98 353.18 185.62Z" fill="black"/>
<path d="M422.03 194.83C422.19 197.12 422.72 199.4 423.6 201.53C422.87 199.04 422.36 196.64 422.03 194.83Z" fill="black"/>
<path d="M347.16 191.97C347.16 191.97 347.66 193.13 346.22 196.23C347.59 194.87 348.9 193.47 349.99 191.96H347.15L347.16 191.97Z" fill="black"/>
<path d="M350.55 191.96H349.99C348.9 193.47 347.59 194.87 346.22 196.23C346.04 196.62 345.83 197.03 345.58 197.49C347.39 195.74 349.16 193.95 350.55 191.96Z" fill="black"/>
<path d="M333.02 231.37C332.79 229.7 332.55 227.97 332.45 226.28C331.92 217.47 335.01 208.67 340.93 202.13C342.09 200.85 343.4 199.59 344.67 198.37C344.97 198.08 345.28 197.79 345.58 197.49C345.83 197.04 346.04 196.62 346.22 196.23C345.61 196.84 344.98 197.44 344.36 198.03C343.09 199.25 341.77 200.52 340.59 201.81C334.58 208.44 331.45 217.36 331.99 226.29C332.09 228 332.33 229.74 332.56 231.42C332.7 232.47 332.85 233.54 332.96 234.6C333.12 234.64 333.27 234.68 333.43 234.72C333.31 233.59 333.16 232.47 333.01 231.36L333.02 231.37Z" fill="black"/>
<path d="M434.02 239.26C438.79 226.68 431.21 215.98 427.08 209.7C426.1 208.2 425.27 206.39 424.57 204.51C422.35 200.77 421.28 196.3 421.56 191.96C421.54 191.84 421.53 191.77 421.53 191.77L350.54 191.98C349.15 193.96 347.38 195.76 345.57 197.51C344.54 199.41 342.88 201.87 340.24 205.01C329.47 217.86 334.96 227.57 335.1 235.15C336.38 235.44 337.81 235.75 339.37 236.06L341.5 227.92L342.2 236.6C344.63 237.05 347.34 237.51 350.38 237.99C351.9 230.48 347.25 222.07 351.56 215.57C354.08 211.47 359.89 210.55 364.28 209.51C377.57 204.95 390.42 197.45 405.06 201.68C415.51 204.8 424.52 215.74 419.8 228.3C418.2 232.41 417.15 237.95 416.57 244.14C418.94 244.16 421.13 244.14 423.24 244.11L426.08 235.69L426.82 244.02C428.93 243.94 430.94 243.85 432.77 243.72C433.07 242.23 433.45 240.75 434 239.28L434.02 239.26Z" fill="black"/>
<path d="M419.81 228.29C424.54 215.72 415.52 204.79 405.07 201.67C390.43 197.44 377.58 204.94 364.29 209.5C359.9 210.54 354.1 211.46 351.57 215.56C347.25 222.06 351.91 230.46 350.39 237.98C359.86 239.46 372.45 241.04 388.96 242.6C399.58 243.6 408.62 244.05 416.29 244.13C417.06 237.9 418.22 232.35 419.81 228.29Z" fill="black"/>
<path d="M419.81 228.29C418.22 232.35 417.06 237.9 416.29 244.13C416.38 244.13 416.48 244.13 416.58 244.13C417.16 237.94 418.2 232.39 419.81 228.29Z" fill="black"/>
<path d="M422.29 189.8L421.84 189.72C421.71 190.46 421.62 191.2 421.57 191.95C421.62 192.36 421.77 193.4 422.03 194.83C421.91 193.14 421.99 191.45 422.28 189.8H422.29Z" fill="black"/>
<path d="M424.58 204.51C424.22 203.53 423.89 202.52 423.6 201.53C422.73 199.4 422.19 197.13 422.03 194.83C421.77 193.4 421.62 192.36 421.57 191.95C421.28 196.29 422.36 200.76 424.58 204.5V204.51Z" fill="black"/>
<path d="M371.55 421.37L371.47 415.19L371.19 392.26L350.58 392.71L352.65 415.01L353.02 418.99C353.02 418.99 329.05 428.35 329.39 433.06C329.73 437.78 359.56 433.04 359.56 433.04C359.56 433.04 377.76 436.5 371.55 421.37Z" fill="white" stroke="black" stroke-width="1.12" stroke-linecap="round" stroke-linejoin="round"/>
<path d="M373 428.57C373 429.62 372.94 430.72 372.82 431.89C372.82 431.89 366.88 434.41 350.29 435.61C331.76 436.95 329.21 434.76 329.21 434.76C329.21 434.76 329.02 433.87 329.32 432.53C349.25 434.88 364.81 431.26 373 428.57Z" fill="black"/>
<path d="M358.3 433.21C358.3 433.21 354.63 423.43 350.25 419.97L346.08 421.95C346.08 421.95 351.38 428.3 352.21 433.84L358.29 433.2L358.3 433.21Z" fill="black"/>
<path d="M348.03 433.95C348.03 433.95 346.26 427.29 341.88 423.84L338.05 425.77C338.05 425.77 341.11 429.05 341.94 434.59L348.02 433.95H348.03Z" fill="black"/>
<path d="M426.98 413.48L426.06 410.23L422.22 374.19L402.44 380.01L408.47 416.03C408.47 416.03 408.41 416.07 408.32 416.14C406.54 417.47 387.85 431.54 389.34 435.79C390.9 440.25 418.46 427.89 418.46 427.89C418.46 427.89 436.93 426.47 426.98 413.49V413.48Z" fill="white" stroke="black" stroke-width="1.12" stroke-linecap="round" stroke-linejoin="round"/>
<path d="M430.26 420.05C430.53 421.06 430.77 422.14 430.95 423.3C430.95 423.3 425.87 427.29 410.17 432.78C392.63 438.91 389.6 437.46 389.6 437.46C389.6 437.46 389.19 436.65 389.12 435.28C408.97 432.34 423.05 424.78 430.25 420.05H430.26Z" fill="black"/>
<path d="M417.28 428.37C417.28 428.37 411.18 419.89 406.05 417.69L402.54 420.69C402.54 420.69 409.32 425.44 411.57 430.57L417.27 428.37H417.28Z" fill="black"/>
<path d="M407.57 431.77C407.57 431.77 404.12 425.81 398.99 423.61L395.8 426.47C395.8 426.47 399.62 428.84 401.86 433.97L407.56 431.77H407.57Z" fill="black"/>
<path d="M405.34 298.27L381.21 303.79L353.72 303.06C353.72 303.06 339.27 347.46 340.54 407.55C340.54 407.55 355.71 412.73 378.97 407.5C378.97 407.5 384.45 359.97 383.85 334.54C383.85 334.54 389.42 406.61 394.76 407.21C417.92 409.82 432.54 400.19 432.54 400.19C422.89 327.37 405.33 298.28 405.33 298.28L405.34 298.27Z" fill="black"/>
<path d="M405.78 307.91C405.78 307.91 417.85 323.67 429.92 401.64" stroke="white" stroke-linecap="round" stroke-linejoin="round"/>
<path d="M370.39 334.15C370.39 334.15 381.4 335.81 390.63 334.15" stroke="white" stroke-linecap="round" stroke-linejoin="round"/>
<path d="M383.34 334.88C383.34 334.88 379.59 337.38 374.89 339.18" stroke="white" stroke-linecap="round" stroke-linejoin="round"/>
<path d="M346.22 252.72C338.08 259.92 327.74 269.64 327.74 269.64L318.39 242.43L318.44 240.72C314.77 241.23 311.16 241.87 307.7 242.8C307.5 250.36 307.18 284.29 316.64 292.86C327.31 302.51 353.67 275.33 353.67 275.33L346.22 252.72Z" fill="white" stroke="black" stroke-width="1.12" stroke-linecap="round" stroke-linejoin="round"/>
<path d="M371.6 247.05C371.6 247.05 376.59 252.35 370.14 261.96C363.69 271.57 354.97 275.67 354.97 275.67C354.97 275.67 340.35 264.08 338.11 255.69L339.68 253.65C339.68 253.65 356.77 229.77 371.6 247.06V247.05Z" fill="white" stroke="black" stroke-width="1.12" stroke-linecap="round" stroke-linejoin="round"/>
<path d="M358.7 240.72C358.7 240.72 379.44 237.48 398.61 238.87C398.61 238.87 411.72 289.15 411.91 298.07C411.91 298.07 390.29 313.45 351.59 304.53C351.59 304.53 352.54 290.94 354.09 275.37" fill="white"/>
<path d="M358.7 240.72C358.7 240.72 379.44 237.48 398.61 238.87C398.61 238.87 411.72 289.15 411.91 298.07C411.91 298.07 390.29 313.45 351.59 304.53C351.59 304.53 352.54 290.94 354.09 275.37" stroke="black" stroke-width="1.12" stroke-linecap="round" stroke-linejoin="round"/>
<path d="M375.11 240.43C375.11 240.43 367.43 240.07 362.41 241.27C362.41 241.27 363.97 246.99 372.69 248.6C374.09 248.86 375.52 248.86 376.94 248.76C381.54 248.43 387.33 247.34 389.62 240.78C389.62 240.78 382.72 240.57 375.12 240.44L375.11 240.43Z" fill="white" stroke="black" stroke-width="1.12" stroke-linecap="round" stroke-linejoin="round"/>
<path d="M403.86 277.81C403.86 277.81 416.51 277.47 426.31 267.11C426.31 267.11 417.99 237.37 398.13 239.2" fill="white"/>
<path d="M403.86 277.81C403.86 277.81 416.51 277.47 426.31 267.11C426.31 267.11 417.99 237.37 398.13 239.2" stroke="black" stroke-width="1.12" stroke-linecap="round" stroke-linejoin="round"/>
<path d="M351.61 302.41C351.61 302.41 385.4 310.32 409.57 296.9" stroke="black" stroke-width="0.43" stroke-linecap="round" stroke-linejoin="round"/>
<path d="M367.27 295.85C378.39 287.81 388.09 277.81 395.8 266.46" stroke="black" stroke-width="0.43" stroke-linecap="round" stroke-linejoin="round"/>
<path d="M381.74 299.38C387.91 294.31 392.9 287.81 396.19 280.53" stroke="black" stroke-width="0.43" stroke-linecap="round" stroke-linejoin="round"/>
<path d="M398.12 239.2C398.12 239.2 393.68 254.77 403.85 277.81" stroke="black" stroke-width="0.43" stroke-linecap="round" stroke-linejoin="round"/>
<path d="M358.7 240.72C358.7 240.72 354.26 252.01 353.92 277.13" stroke="black" stroke-width="0.43" stroke-linecap="round" stroke-linejoin="round"/>
<path d="M358.51 211.01L358.7 199.35C358.7 199.35 349.95 192.79 346.38 202.73C342.81 212.67 353.26 216.39 358.51 211.01Z" fill="white" stroke="black" stroke-width="1.12" stroke-linecap="round" stroke-linejoin="round"/>
<path d="M354.88 210.55C354.88 210.55 354.83 210.53 354.8 210.51C354.71 210.43 354.7 210.3 354.78 210.21C354.82 210.17 358.45 205.97 355.74 202.69C354.79 201.54 353.7 200.9 352.5 200.81C350.43 200.64 348.7 202.14 348.68 202.16C348.59 202.24 348.46 202.23 348.38 202.14C348.3 202.05 348.31 201.92 348.4 201.84C348.48 201.77 350.28 200.21 352.53 200.39C353.85 200.5 355.04 201.18 356.06 202.43C358.99 205.99 355.13 210.46 355.09 210.5C355.03 210.56 354.95 210.59 354.87 210.56L354.88 210.55Z" fill="black"/>
<path d="M351.1 205.09C351.04 205.07 350.99 205.03 350.96 204.96C350.92 204.85 350.98 204.73 351.09 204.69C351.13 204.67 355.28 203.23 357.03 206.51C357.09 206.61 357.05 206.74 356.94 206.8C356.84 206.86 356.71 206.82 356.65 206.71C355.07 203.75 351.27 205.07 351.23 205.09C351.19 205.11 351.14 205.11 351.1 205.09Z" fill="black"/>
<path d="M366.34 242.15L365.91 232.07C372.74 235.01 380.6 235.88 387.68 234.78L386.44 242.68" fill="white"/>
<path d="M366.34 242.15L365.91 232.07C372.74 235.01 380.6 235.88 387.68 234.78L386.44 242.68" stroke="black" stroke-width="1.12" stroke-linecap="round" stroke-linejoin="round"/>
<path d="M389.32 225.59L387.68 234.78C380.6 235.88 372.74 235.01 365.91 232.07L365.69 223.58L389.32 225.59Z" fill="black"/>
<path d="M358.2 178.61C358.2 178.61 352.82 188.46 350.75 203.62C349.14 215.45 357 228.32 371.32 231.23C384.78 233.96 399.63 230.42 406.46 211.95C413.29 193.48 409.36 177.5 392.66 170.91C375.96 164.32 363.34 167.27 358.2 178.61Z" fill="white" stroke="black" stroke-width="1.12" stroke-linecap="round" stroke-linejoin="round"/>
<path d="M395.62 202.65C395.62 202.65 397.96 201.08 393.87 198.17C389.78 195.26 388.16 195.55 387.29 196.61C386.49 197.58 387.29 199.3 389.62 200.89C392.42 202.8 394.35 203.56 395.62 202.65Z" fill="black"/>
<path d="M354.67 196.17C354.67 196.17 353.38 193.82 358.5 192.89C363.62 191.95 364.91 192.88 365.15 194.17C365.37 195.36 363.8 196.57 360.92 197.04C357.46 197.61 355.36 197.5 354.68 196.17H354.67Z" fill="black"/>
<path d="M382.66 207.66C382.47 209.08 383.26 210.37 384.42 210.53C385.59 210.69 386.69 209.66 386.89 208.24C387.08 206.82 386.29 205.53 385.13 205.37C383.96 205.21 382.86 206.24 382.66 207.66Z" fill="black"/>
<path d="M359.14 205.07C358.95 206.49 359.74 207.78 360.9 207.94C362.07 208.1 363.17 207.07 363.37 205.65C363.56 204.23 362.77 202.94 361.61 202.78C360.44 202.62 359.34 203.65 359.14 205.07Z" fill="black"/>
<path d="M369.66 211.57C369.74 211.58 369.82 211.55 369.87 211.47C369.93 211.37 369.9 211.24 369.8 211.18C369.78 211.17 368.21 210.17 367.68 208.57C367.26 207.31 367.68 205.57 368.57 204.91C369.1 204.52 369.74 204.56 370.43 205.05C370.45 205.07 370.49 205.09 370.53 205.13C372.9 206.98 374.16 206.46 374.79 205.71C375.95 204.32 376.76 192.21 376.85 190.83C376.85 190.71 376.77 190.61 376.65 190.61C376.53 190.61 376.43 190.69 376.43 190.81C376.19 194.51 375.38 204.36 374.47 205.44C373.72 206.33 372.48 206.12 370.79 204.8C370.74 204.76 370.7 204.73 370.67 204.71C369.83 204.12 369 204.07 368.31 204.58C367.28 205.35 366.79 207.28 367.28 208.71C367.87 210.46 369.51 211.5 369.58 211.55C369.61 211.57 369.63 211.58 369.66 211.58V211.57Z" fill="black" stroke="black" stroke-width="0.25" stroke-miterlimit="10"/>
<path d="M409.64 210.47C409.64 210.47 384.31 198.99 381.34 176.61C381.34 176.61 354.51 201.68 346.93 192.12C346.93 192.12 346.25 169.34 364.87 163.72C375.09 160.64 382.5 163.45 382.5 163.45C395.89 162.87 405.7 160.48 418.41 174.11C431.5 188.15 423.57 218.55 409.63 210.47H409.64Z" fill="black"/>
<path d="M410.08 210.4C404.03 208.37 398.38 205.12 393.66 200.85C385.31 193.29 379.86 182.53 378.71 171.32L379.16 171.27C380.3 182.37 385.7 193.02 393.97 200.51C402.24 208 413.38 212.31 424.53 212.35V212.8C419.63 212.78 414.74 211.95 410.09 210.4H410.08Z" fill="black"/>
<path d="M348.75 195.55L348.69 195.1C365.71 192.94 381.12 181.37 387.94 165.62L388.36 165.8C381.48 181.69 365.93 193.37 348.75 195.55Z" fill="black"/>
<path d="M371.5 216.91C371.23 216.91 370.95 216.88 370.65 216.81C370.54 216.78 370.47 216.67 370.49 216.56C370.52 216.45 370.63 216.38 370.74 216.4C372.96 216.91 374.39 215.03 374.41 215.01C374.48 214.92 374.61 214.9 374.7 214.97C374.79 215.04 374.81 215.17 374.74 215.26C374.73 215.28 373.48 216.9 371.49 216.9L371.5 216.91Z" fill="black" stroke="black" stroke-width="0.25" stroke-miterlimit="10"/>
<path d="M404.37 207.09C406.88 206.8 414.05 206.73 413.31 215.43C412.51 224.86 403.54 225.06 399.87 219.89" fill="white"/>
<path d="M404.37 207.09C406.88 206.8 414.05 206.73 413.31 215.43C412.51 224.86 403.54 225.06 399.87 219.89" stroke="black" stroke-width="1.12" stroke-linecap="round" stroke-linejoin="round"/>
<path d="M402.32 218.99C402.32 218.99 402.38 218.99 402.41 218.99C402.52 218.96 402.59 218.84 402.55 218.73C402.53 218.68 400.99 213.35 404.81 211.49C406.15 210.84 407.41 210.72 408.54 211.13C410.49 211.84 411.44 213.93 411.45 213.95C411.5 214.06 411.62 214.1 411.73 214.06C411.84 214.01 411.88 213.89 411.84 213.78C411.8 213.69 410.81 211.51 408.69 210.74C407.45 210.29 406.08 210.41 404.63 211.12C400.48 213.14 402.13 218.8 402.15 218.86C402.17 218.94 402.24 219 402.32 219.01V218.99Z" fill="black"/>
<path d="M408.04 215.6C408.1 215.6 408.17 215.59 408.22 215.54C408.3 215.46 408.3 215.32 408.22 215.24C408.19 215.21 405.03 212.17 402.06 214.42C401.97 214.49 401.95 214.62 402.02 214.72C402.09 214.81 402.22 214.83 402.32 214.76C404.99 212.73 407.9 215.52 407.93 215.54C407.96 215.57 408.01 215.59 408.05 215.6H408.04Z" fill="black"/>
<path d="M307.87 245.95C307.19 241.84 306.07 240 306.07 240C305.71 238.43 305.03 237.58 304.95 234.57C304.92 233.37 304.95 231.94 305.62 230.99C309.31 225.7 315.37 231.27 315.37 231.27C315.37 231.27 314.12 221.91 316.07 222.15C318.02 222.4 318.35 234.25 318.35 234.25C318.68 237.86 318.48 243.1 318.48 243.1L319.37 246.23" fill="white"/>
<path d="M307.87 245.95C307.19 241.84 306.07 240 306.07 240C305.71 238.43 305.03 237.58 304.95 234.57C304.92 233.37 304.95 231.94 305.62 230.99C309.31 225.7 315.37 231.27 315.37 231.27C315.37 231.27 314.12 221.91 316.07 222.15C318.02 222.4 318.35 234.25 318.35 234.25C318.68 237.86 318.48 243.1 318.48 243.1L319.37 246.23" stroke="black" stroke-width="1.12" stroke-linecap="round" stroke-linejoin="round"/>
<path d="M315.61 233.79C315.61 233.79 311.85 230.18 311.31 232.51C310.76 234.84 317.44 242.05 317.44 242.05" stroke="black" stroke-width="1.12" stroke-linecap="round" stroke-linejoin="round"/>
<path d="M312.31 235.45C312.31 235.45 310.13 236.27 308.89 238.3" stroke="black" stroke-width="1.12" stroke-linecap="round" stroke-linejoin="round"/>
<path d="M307.74 229.33C307.74 229.33 305.81 231.84 307.23 234.76C307.94 236.22 309.28 236.23 309.48 234.97" stroke="black" stroke-width="1.12" stroke-linecap="round" stroke-linejoin="round"/>
<path d="M310.08 228.91C310.08 228.91 307.3 230.56 308.72 233.9C309.55 235.84 311.62 234.9 310.65 232.64C309.98 231.06 311.64 229.39 311.64 229.39" stroke="black" stroke-width="1.12" stroke-linecap="round" stroke-linejoin="round"/>
<path d="M307.69 235.55C307.69 235.55 307.67 236.6 306.82 236.63C305.9 236.67 304.98 234.91 305.21 232.97" stroke="black" stroke-width="1.12" stroke-linecap="round" stroke-linejoin="round"/>
<path d="M366.54 311.46C365.7 303.24 363.37 281.81 362.44 273.34C362.23 271.39 363.62 269.64 365.57 269.41L396.4 265.77C398.4 265.53 400.2 267 400.38 269.01L403.93 310.3C404.11 312.36 402.5 314.14 400.43 314.17L370.16 314.65C368.31 314.68 366.74 313.29 366.55 311.45L366.54 311.46Z" fill="white" stroke="black" stroke-width="1.12" stroke-linecap="round" stroke-linejoin="round"/>
<path d="M366.47 311.59C365.69 303.71 363.5 283.15 362.64 275.04C362.44 273.17 363.75 271.49 365.57 271.27L394.4 267.78C396.27 267.55 397.96 268.96 398.12 270.89L401.44 310.48C401.61 312.46 400.1 314.16 398.17 314.2L369.86 314.66C368.13 314.69 366.66 313.36 366.49 311.59H366.47Z" fill="white" stroke="black" stroke-width="1.12" stroke-linecap="round" stroke-linejoin="round"/>
<path d="M372.56 280.61C372.78 281.94 371.87 283.2 370.54 283.41C369.21 283.63 367.95 282.72 367.74 281.39C367.52 280.06 368.43 278.8 369.76 278.59C371.09 278.37 372.35 279.28 372.56 280.61Z" fill="#F9D400"/>
<path d="M373.96 289.2C374.18 290.53 373.27 291.79 371.94 292C370.61 292.22 369.35 291.31 369.14 289.98C368.92 288.65 369.83 287.39 371.16 287.18C372.49 286.96 373.75 287.87 373.96 289.2Z" fill="#F9D400"/>
<path d="M375.36 297.8C375.58 299.13 374.67 300.39 373.34 300.6C372.01 300.82 370.75 299.91 370.54 298.58C370.32 297.25 371.23 295.99 372.56 295.78C373.89 295.56 375.15 296.47 375.36 297.8Z" fill="#F9D400"/>
<path d="M376.5 307.63C376.72 308.96 375.81 310.22 374.48 310.43C373.15 310.65 371.89 309.74 371.68 308.41C371.46 307.08 372.37 305.82 373.7 305.61C375.03 305.4 376.29 306.3 376.5 307.63Z" fill="#F9D400"/>
<path d="M372.56 280.61C372.78 281.94 371.87 283.2 370.54 283.41C369.21 283.63 367.95 282.72 367.74 281.39C367.52 280.06 368.43 278.8 369.76 278.59C371.09 278.37 372.35 279.28 372.56 280.61Z" stroke="black" stroke-width="0.43" stroke-linecap="round" stroke-linejoin="round"/>
<path d="M373.96 289.2C374.18 290.53 373.27 291.79 371.94 292C370.61 292.22 369.35 291.31 369.14 289.98C368.92 288.65 369.83 287.39 371.16 287.18C372.49 286.96 373.75 287.87 373.96 289.2Z" stroke="black" stroke-width="0.43" stroke-linecap="round" stroke-linejoin="round"/>
<path d="M375.36 297.8C375.58 299.13 374.67 300.39 373.34 300.6C372.01 300.82 370.75 299.91 370.54 298.58C370.32 297.25 371.23 295.99 372.56 295.78C373.89 295.56 375.15 296.47 375.36 297.8Z" stroke="black" stroke-width="0.43" stroke-linecap="round" stroke-linejoin="round"/>
<path d="M375.18 282.31L393.6 279.3" stroke="#222221" stroke-width="0.5" stroke-linecap="round" stroke-linejoin="round"/>
<path d="M376.58 290.9L395 287.9" stroke="#222221" stroke-width="0.5" stroke-linecap="round" stroke-linejoin="round"/>
<path d="M377.98 299.49L396.41 296.49" stroke="#222221" stroke-width="0.5" stroke-linecap="round" stroke-linejoin="round"/>
<path d="M376.52 301.71C376.4 301.73 376.28 301.7 376.19 301.61L369.14 295.12C368.98 294.97 368.97 294.72 369.12 294.56C369.27 294.4 369.52 294.39 369.68 294.54L376.73 301.03C376.89 301.18 376.9 301.43 376.75 301.59C376.69 301.66 376.61 301.7 376.52 301.71Z" fill="#040504"/>
<path d="M370.84 301.47C370.74 301.49 370.63 301.47 370.54 301.4C370.37 301.27 370.33 301.02 370.46 300.85L376.24 293.22C376.37 293.05 376.62 293.01 376.79 293.14C376.96 293.27 377 293.52 376.87 293.69L371.09 301.32C371.03 301.4 370.94 301.45 370.84 301.47Z" fill="#040504"/>
<path d="M371.65 291.01C371.65 291.01 371.61 291.01 371.6 291.01C371.49 291.01 371.38 290.97 371.3 290.89L369.94 289.46C369.79 289.3 369.8 289.05 369.95 288.9C370.11 288.75 370.36 288.76 370.51 288.91L371.57 290.02L375.08 285.92C375.22 285.76 375.47 285.74 375.63 285.88C375.8 286.02 375.81 286.27 375.67 286.43L371.88 290.87C371.82 290.94 371.74 290.99 371.64 291L371.65 291.01Z" fill="#040504"/>
<path d="M370.5 282.34C370.5 282.34 370.46 282.34 370.45 282.34C370.34 282.34 370.23 282.3 370.15 282.22L368.79 280.79C368.64 280.63 368.65 280.38 368.8 280.23C368.96 280.08 369.21 280.09 369.36 280.24L370.42 281.35L373.92 277.25C374.06 277.09 374.31 277.07 374.47 277.21C374.64 277.35 374.65 277.6 374.51 277.76L370.72 282.2C370.66 282.27 370.58 282.32 370.48 282.33L370.5 282.34Z" fill="#040504"/>
<path d="M376.23 281.28C377.26 280.72 378.11 279.83 378.62 278.77C378.79 278.43 378.92 278.05 378.87 277.67C378.82 277.29 378.55 276.92 378.17 276.86C377.71 276.8 377.29 277.25 377.26 277.72C377.23 278.19 377.48 278.63 377.79 278.98C378.59 279.89 379.86 280.37 381.06 280.22C382.26 280.07 383.37 279.3 383.93 278.22C384.15 277.79 384.29 277.3 384.18 276.83C384.07 276.36 383.65 275.95 383.17 275.97C382.69 275.99 382.3 276.44 382.23 276.92C382.16 277.4 382.35 277.88 382.61 278.28C383.27 279.3 384.46 279.96 385.68 279.99C386.9 280.01 388.11 279.39 388.81 278.39C389.18 277.86 389.41 277.18 389.21 276.57C389.02 275.95 388.29 275.5 387.7 275.77C387.23 275.99 387.02 276.59 387.13 277.1C387.25 277.61 387.62 278.02 388.04 278.33C389.63 279.47 392.08 279.15 393.31 277.63" stroke="#222221" stroke-width="0.5" stroke-linecap="round" stroke-linejoin="round"/>
<path d="M377.86 289.69C378.85 288.8 379.64 287.69 380.14 286.46C380.27 286.14 380.38 285.81 380.36 285.46C380.34 285.12 380.15 284.77 379.83 284.64C379.42 284.47 378.92 284.75 378.74 285.15C378.55 285.55 378.61 286.03 378.75 286.45C379.2 287.75 380.55 288.69 381.93 288.66C383.31 288.63 384.62 287.65 385.02 286.33C385.15 285.92 385.19 285.46 385 285.07C384.81 284.68 384.34 284.41 383.94 284.56C383.57 284.69 383.37 285.13 383.41 285.53C383.45 285.92 383.68 286.27 383.95 286.57C384.76 287.46 385.97 287.96 387.17 287.92C388.37 287.87 389.54 287.28 390.28 286.33C390.78 285.69 391.09 284.84 390.85 284.07C390.61 283.3 389.69 282.73 388.96 283.06C388.43 283.3 388.15 283.94 388.21 284.52C388.27 285.1 388.61 285.62 389.04 286.02C389.82 286.74 390.92 287.1 391.97 286.99C393.03 286.88 394.02 286.29 394.64 285.43" stroke="#222221" stroke-width="0.5" stroke-linecap="round" stroke-linejoin="round"/>
<path d="M379.07 297.91C380.13 297.51 381.01 296.65 381.43 295.6C381.64 295.08 381.67 294.37 381.18 294.11C380.73 293.87 380.14 294.28 380.03 294.78C379.93 295.28 380.18 295.79 380.51 296.19C381.39 297.26 382.87 297.8 384.23 297.53C385.59 297.27 386.76 296.22 387.18 294.9C387.38 294.27 387.27 293.39 386.63 293.23C386.18 293.12 385.73 293.49 385.6 293.93C385.48 294.37 385.62 294.85 385.84 295.25C386.61 296.67 388.44 297.42 389.99 296.94C391.54 296.46 392.63 294.82 392.48 293.21C392.43 292.64 392.14 292.01 391.59 291.9C391.02 291.78 390.47 292.34 390.44 292.93C390.41 293.52 390.77 294.05 391.21 294.43C392.56 295.58 394.84 295.41 396 294.06" stroke="#222221" stroke-width="0.5" stroke-linecap="round" stroke-linejoin="round"/>
<path d="M376.5 307.63C376.72 308.96 375.81 310.22 374.48 310.43C373.15 310.65 371.89 309.74 371.68 308.41C371.46 307.08 372.37 305.82 373.7 305.61C375.03 305.4 376.29 306.3 376.5 307.63Z" stroke="black" stroke-width="0.43" stroke-linecap="round" stroke-linejoin="round"/>
<path d="M379.11 309.33L397.54 306.32" stroke="#222221" stroke-width="0.5" stroke-linecap="round" stroke-linejoin="round"/>
<path d="M377.65 311.54C377.53 311.56 377.41 311.53 377.32 311.44L370.27 304.95C370.11 304.8 370.1 304.55 370.25 304.39C370.4 304.23 370.65 304.22 370.81 304.37L377.86 310.86C378.02 311.01 378.03 311.26 377.88 311.42C377.82 311.49 377.74 311.53 377.65 311.54Z" fill="#040504"/>
<path d="M371.97 311.3C371.87 311.32 371.76 311.3 371.67 311.23C371.5 311.1 371.46 310.85 371.59 310.68L377.37 303.05C377.5 302.88 377.75 302.84 377.92 302.97C378.09 303.1 378.13 303.35 378 303.52L372.22 311.15C372.16 311.23 372.07 311.28 371.97 311.3Z" fill="#040504"/>
<path d="M380.2 307.74C381.26 307.34 382.14 306.48 382.56 305.43C382.77 304.92 382.8 304.2 382.31 303.94C381.86 303.7 381.27 304.11 381.16 304.61C381.06 305.11 381.31 305.62 381.64 306.02C382.52 307.09 384 307.63 385.36 307.36C386.72 307.1 387.89 306.05 388.31 304.73C388.51 304.1 388.4 303.22 387.76 303.06C387.31 302.95 386.86 303.32 386.73 303.76C386.61 304.2 386.75 304.68 386.97 305.08C387.74 306.5 389.57 307.25 391.12 306.77C392.67 306.3 393.76 304.65 393.61 303.04C393.56 302.47 393.27 301.84 392.72 301.73C392.15 301.61 391.6 302.17 391.57 302.76C391.54 303.34 391.9 303.88 392.34 304.26C393.69 305.41 395.97 305.24 397.13 303.89" stroke="#222221" stroke-width="0.5" stroke-linecap="round" stroke-linejoin="round"/>
<path d="M412.66 289.93L385.94 296.68L378.43 298.54C378.43 298.54 373.99 292.88 365.65 290.88C363.06 290.26 364.9 293.72 364.9 293.72C364.9 293.72 361.76 293.57 363.55 303.74C363.89 305.65 363.67 308.19 373.85 308.54C373.85 308.54 377.76 309.65 383.52 310.68C393 312.37 407.52 313.82 417.93 309.67C418.04 309.63 418.15 309.58 418.25 309.53" fill="white"/>
<path d="M412.66 289.93L385.94 296.68L378.43 298.54C378.43 298.54 373.99 292.88 365.65 290.88C363.06 290.26 364.9 293.72 364.9 293.72C364.9 293.72 361.76 293.57 363.55 303.74C363.89 305.65 363.67 308.19 373.85 308.54C373.85 308.54 377.76 309.65 383.52 310.68C393 312.37 407.52 313.82 417.93 309.67C418.04 309.63 418.15 309.58 418.25 309.53" stroke="black" stroke-width="1.12" stroke-linecap="round" stroke-linejoin="round"/>
<path d="M384.551 265.189L373.977 266.275C372.801 266.395 371.946 267.446 372.066 268.622L372.27 270.601C372.39 271.777 373.441 272.632 374.617 272.512L385.191 271.426C386.367 271.306 387.222 270.255 387.102 269.079L386.898 267.1C386.778 265.924 385.727 265.069 384.551 265.189Z" fill="white" stroke="black" stroke-width="1.12" stroke-linecap="round" stroke-linejoin="round"/>
<path d="M402.95 275.69C402.95 275.69 415.32 274.59 425.54 264.76" stroke="black" stroke-width="0.43" stroke-linecap="round" stroke-linejoin="round"/>
<path d="M339.69 253.64C339.69 253.64 342.18 260.74 354.06 271.83" stroke="black" stroke-width="0.43" stroke-linecap="round" stroke-linejoin="round"/>
<path d="M114.6 230.37C114.6 230.37 123.79 234.07 128.65 242.11C133.5 250.16 140.56 275.02 140.56 275.02C140.56 275.02 133.79 283.38 124.18 285.05" fill="white"/>
<path d="M114.6 230.37C114.6 230.37 123.79 234.07 128.65 242.11C133.5 250.16 140.56 275.02 140.56 275.02C140.56 275.02 133.79 283.38 124.18 285.05" stroke="black" stroke-width="1.12" stroke-linecap="round" stroke-linejoin="round"/>
<path d="M163.6 262.35C165.38 260.38 167.63 258.84 170.12 257.9C170.84 257.63 171.9 257.55 172.14 258.28C172.31 258.78 171.93 259.29 171.57 259.68C169.79 261.66 168.01 263.64 166.23 265.61" fill="white"/>
<path d="M163.6 262.35C165.38 260.38 167.63 258.84 170.12 257.9C170.84 257.63 171.9 257.55 172.14 258.28C172.31 258.78 171.93 259.29 171.57 259.68C169.79 261.66 168.01 263.64 166.23 265.61" stroke="black" stroke-width="1.12" stroke-linecap="round" stroke-linejoin="round"/>
<path d="M171.59 267.49C171.11 267.61 170.81 267.7 170.81 267.7C170.81 267.7 171.11 267.63 171.59 267.49Z" fill="white" stroke="black" stroke-width="1.12" stroke-linecap="round" stroke-linejoin="round"/>
<path d="M172.21 269.73C174.28 269.29 179.56 268.22 179.21 267C178.86 265.77 173.61 266.98 171.59 267.49C171.11 267.62 170.81 267.7 170.81 267.7C170.81 267.7 171.11 267.62 171.59 267.49C173.59 266.94 178.74 265.39 178.87 263.88C179.02 262.14 170.32 264.54 169.22 264.95C170.25 264.57 177.9 262.19 177.57 261.09C177.22 259.9 167.88 262.29 167.88 262.29C163.94 258.24 157.33 261.15 157.33 261.15L157.12 261.22C156.88 261.25 154.57 262.32 151.33 263.98C153.12 267.62 155.43 270.88 158.13 273.71C158.51 273.26 158.8 272.9 158.97 272.68C158.97 272.68 167.98 273.33 171.03 272.63C174.08 271.93 178.66 270.54 178.66 270.54C180.5 268.32 174.54 269.29 172.23 269.74L172.21 269.73Z" fill="white" stroke="black" stroke-width="1.12" stroke-linecap="round" stroke-linejoin="round"/>
<path d="M122.37 281.37C124.72 293.76 132.42 294.68 137.19 293.67C144.29 292.18 154.34 278.2 158.11 273.7C155.41 270.87 153.11 266.75 151.32 263.11C144.71 265.04 137.47 268.92 132.27 272.81" fill="white"/>
<path d="M122.37 281.37C124.72 293.76 132.42 294.68 137.19 293.67C144.29 292.18 154.34 278.2 158.11 273.7C155.41 270.87 153.11 266.75 151.32 263.11C144.71 265.04 137.47 268.92 132.27 272.81" stroke="black" stroke-width="1.12" stroke-linecap="round" stroke-linejoin="round"/>
<path d="M157.52 272.4L151.19 275.69C151.19 275.69 147.37 270.77 146.87 264.52L152.57 262.15C152.57 262.15 154.5 268.17 157.51 272.4H157.52Z" fill="white" stroke="black" stroke-width="1.12" stroke-linecap="round" stroke-linejoin="round"/>
<path d="M157.52 272.4L153.52 277.84C153.52 277.84 155.04 278.72 156.1 278.79L159.2 273.88C159.2 273.88 158.21 273.32 157.52 272.4Z" fill="white" stroke="black" stroke-width="1.12" stroke-linecap="round" stroke-linejoin="round"/>
<path d="M53.8101 187.78C53.8101 187.78 48.3401 202.73 57.8901 208.25C60.8801 211.07 65.7701 209.5 65.7701 209.5C65.7701 209.5 65.9201 222.49 88.8401 218.75L65.8201 172.66L53.8201 187.79L53.8101 187.78Z" fill="black"/>
<path d="M97.2601 431.14L91.4501 324.38L121.98 320.69C121.98 320.69 115.55 400.86 111.05 428.02C111.05 428.02 132.21 436.07 132.06 440.07C131.91 444.07 107.47 440.64 107.47 440.64C107.47 440.64 92.4401 444.12 97.2601 431.14Z" fill="white" stroke="black" stroke-width="1.12" stroke-linecap="round" stroke-linejoin="round"/>
<path d="M61.64 434.28C61.64 434.28 60.5 360 60.32 306.01C60.29 297.96 89.42 319.53 89.42 319.53C89.42 319.53 79.93 404 75.43 431.16C75.43 431.16 95.89 439.02 95.74 443.03C95.59 447.03 71.85 443.78 71.85 443.78C71.85 443.78 56.82 447.27 61.64 434.28Z" fill="white" stroke="black" stroke-width="1.12" stroke-linecap="round" stroke-linejoin="round"/>
<path d="M88.8001 436.28C95.2601 439.52 97.1701 442.46 97.1701 442.46C97.1701 442.46 96.8101 443.37 87.6201 444.03C87.1401 441.31 87.5701 438.55 88.8001 436.28Z" fill="white" stroke="black" stroke-width="1.12" stroke-linecap="round" stroke-linejoin="round"/>
<path d="M61.3001 432.92C69.6901 437.85 80.1001 432.85 80.1001 432.85C83.6501 433.95 86.5101 435.14 88.8001 436.28C87.5701 438.55 87.1401 441.31 87.6201 444.03C85.2501 444.2 82.3101 444.35 78.6201 444.47C60.6401 445.05 60.0701 440.36 60.0701 440.36C60.1001 435.81 61.3501 433.16 61.2901 432.91L61.3001 432.92Z" fill="white" stroke="black" stroke-width="1.12" stroke-linecap="round" stroke-linejoin="round"/>
<path d="M60.0701 440.37C60.1001 441.26 60.1801 442.19 60.3201 443.18C60.3201 443.18 65.4201 445.15 79.5001 445.68C95.2301 446.28 97.3201 444.35 97.3201 444.35C97.3201 444.35 97.4501 443.59 97.1701 442.47C80.3601 445.03 67.0801 442.41 60.0701 440.37Z" fill="white" stroke="black" stroke-width="1.12" stroke-linecap="round" stroke-linejoin="round"/>
<path d="M82.45 440.26C82.28 440.26 82.14 440.13 82.13 439.96C81.92 436.04 84.83 434.41 84.95 434.35C85.1 434.26 85.3 434.32 85.38 434.48C85.46 434.63 85.41 434.83 85.25 434.91C85.14 434.97 82.58 436.42 82.76 439.93C82.76 440.11 82.63 440.26 82.46 440.27H82.44L82.45 440.26Z" fill="black"/>
<path d="M79.3801 439.09H79.3701C79.1901 439.09 79.0601 438.94 79.0601 438.76C79.2001 434.65 81.7001 433.23 81.8101 433.18C81.9601 433.1 82.1601 433.15 82.2401 433.31C82.3201 433.46 82.2701 433.66 82.1201 433.74C82.0301 433.79 79.8301 435.06 79.7001 438.79C79.7001 438.96 79.5501 439.1 79.3801 439.1V439.09Z" fill="black"/>
<path d="M80.7301 434.94H80.7201C80.5901 434.94 80.4801 434.85 80.4301 434.73C80.3001 434.37 79.1401 431.2 79.9701 430.09C80.1201 429.89 80.4101 429.65 80.9301 429.69C81.3401 429.72 81.6601 429.91 81.8501 430.23C82.5601 431.45 81.1801 434.42 81.0201 434.75C80.9701 434.86 80.8501 434.93 80.7301 434.93V434.94ZM80.8201 430.33C80.6201 430.33 80.5301 430.41 80.4801 430.48C80.1001 430.99 80.4001 432.52 80.7701 433.73C81.2201 432.59 81.6301 431.13 81.3001 430.56C81.2401 430.46 81.1501 430.35 80.8901 430.33C80.8701 430.33 80.8501 430.33 80.8301 430.33H80.8201Z" fill="black"/>
<path d="M80.7301 434.99C80.7301 434.99 80.7101 434.99 80.7001 434.99C80.3201 434.95 76.9701 434.57 76.3501 433.33C76.2401 433.1 76.1501 432.74 76.4201 432.29C76.6301 431.94 76.9401 431.74 77.3201 431.71C77.3401 431.71 77.3701 431.71 77.3901 431.71C78.8001 431.71 80.7601 434.19 80.9901 434.48C81.0701 434.58 81.0801 434.72 81.0201 434.83C80.9601 434.93 80.8601 434.99 80.7401 434.99H80.7301ZM77.3901 432.35C77.3901 432.35 77.3601 432.35 77.3501 432.35C77.2401 432.35 77.0901 432.39 76.9601 432.62C76.8301 432.83 76.8701 432.96 76.9101 433.05C77.1901 433.62 78.7001 434.04 79.9501 434.25C79.1501 433.35 78.0501 432.36 77.3901 432.36V432.35Z" fill="black"/>
<path d="M124.29 307.01L115.12 428.49C115.12 428.49 105.61 429.94 93.3401 427.66L91.8201 331.66L79.7701 430.91C79.7701 430.91 63.6301 432.54 58.6801 429.08C58.6801 429.08 55.9601 348.85 58.9301 303.77L124.29 307.01Z" fill="black"/>
<path d="M79.3001 333.6C79.1901 333.6 79.0901 333.5 79.0901 333.39C79.0901 333.27 79.1801 333.17 79.3001 333.17C89.3501 333.01 103.67 330.32 103.82 330.29C103.94 330.27 104.05 330.34 104.07 330.46C104.09 330.58 104.02 330.69 103.9 330.71C103.76 330.74 89.3901 333.44 79.3101 333.59C79.3101 333.59 79.3101 333.59 79.3001 333.59V333.6Z" fill="white"/>
<path d="M61.6801 428.8C61.5701 428.8 61.4801 428.71 61.4701 428.59C61.4701 428.52 61.2401 419.95 61.7701 312.71C61.7701 312.59 61.8701 312.49 61.9901 312.49C62.1201 312.48 62.2101 312.59 62.2001 312.71C61.6701 419.87 61.9001 428.5 61.9001 428.57C61.9001 428.69 61.8101 428.79 61.6901 428.79C61.6901 428.79 61.6901 428.79 61.6701 428.79L61.6801 428.8Z" fill="white"/>
<path d="M96.3501 426.99C96.2301 426.99 96.1401 426.89 96.1401 426.77L96.2701 332.13C96.2701 332.01 96.3701 331.91 96.4901 331.92C96.6101 331.92 96.7101 332.02 96.7001 332.14L96.5701 426.78C96.5701 426.9 96.4701 427 96.3501 426.99Z" fill="white"/>
<path d="M93.9101 327.88C93.7901 327.88 93.7001 327.78 93.7001 327.66L94.3101 311.7C94.3101 311.58 94.4101 311.49 94.5301 311.49C94.6501 311.49 94.7401 311.59 94.7401 311.71L94.1301 327.67C94.1301 327.79 94.0301 327.88 93.9101 327.88Z" fill="white"/>
<path d="M62.3501 327.14C62.3001 327.14 62.2401 327.12 62.2001 327.07C62.1201 326.98 62.1201 326.85 62.2001 326.77C68.2801 320.96 71.7101 312.47 71.3701 304.06C71.3701 303.94 71.4601 303.84 71.5801 303.84C71.7001 303.84 71.8001 303.93 71.8001 304.05C72.1501 312.58 68.6701 321.19 62.5001 327.09C62.4601 327.13 62.4001 327.15 62.3401 327.15L62.3501 327.14Z" fill="white"/>
<path d="M121.9 327.26C121.9 327.26 121.86 327.26 121.84 327.25C118.48 326.07 115.69 322.84 114.55 318.81C113.39 314.71 113.94 310.35 114.45 307.43C114.47 307.31 114.57 307.24 114.7 307.25C114.82 307.27 114.9 307.38 114.88 307.5C114.37 310.38 113.83 314.67 114.97 318.69C116.07 322.59 118.76 325.71 121.98 326.84C122.09 326.88 122.15 327 122.11 327.11C122.08 327.2 121.99 327.26 121.9 327.25V327.26Z" fill="white"/>
<path d="M93.9401 327.07C93.8201 327.07 90.9901 326.89 90.5101 321.16C90.0501 315.61 90.1901 308.12 90.1901 308.04C90.1901 307.92 90.2901 307.83 90.4101 307.83C90.5301 307.85 90.6201 307.93 90.6201 308.05C90.6201 308.13 90.4801 315.59 90.9401 321.12C91.3801 326.44 93.9301 326.63 93.9601 326.63C94.0801 326.63 94.1701 326.74 94.1601 326.86C94.1601 326.98 94.0601 327.07 93.9401 327.07Z" fill="white"/>
<path d="M124.69 433.15C131.15 436.39 133.06 439.33 133.06 439.33C133.06 439.33 132.7 440.24 123.51 440.9C123.03 438.18 123.46 435.42 124.69 433.15Z" fill="white" stroke="black" stroke-width="1.12" stroke-linecap="round" stroke-linejoin="round"/>
<path d="M97.1901 429.79C105.58 434.72 115.99 429.72 115.99 429.72C119.54 430.82 122.4 432.01 124.69 433.15C123.46 435.42 123.03 438.18 123.51 440.9C121.14 441.07 118.2 441.22 114.51 441.34C96.5301 441.92 95.9601 437.23 95.9601 437.23C95.9901 432.68 97.2401 430.03 97.1801 429.78L97.1901 429.79Z" fill="white" stroke="black" stroke-width="1.12" stroke-linecap="round" stroke-linejoin="round"/>
<path d="M95.9701 437.24C96.0001 438.13 96.0801 439.06 96.2201 440.05C96.2201 440.05 101.32 442.02 115.4 442.55C131.13 443.15 133.22 441.22 133.22 441.22C133.22 441.22 133.35 440.46 133.07 439.34C116.26 441.9 102.98 439.28 95.9701 437.24Z" fill="white" stroke="black" stroke-width="1.12" stroke-linecap="round" stroke-linejoin="round"/>
<path d="M118.35 437.13C118.18 437.13 118.04 437 118.03 436.83C117.82 432.91 120.73 431.28 120.85 431.22C121 431.13 121.2 431.19 121.28 431.35C121.36 431.5 121.31 431.7 121.15 431.78C121.04 431.84 118.48 433.29 118.66 436.8C118.66 436.98 118.53 437.13 118.36 437.14H118.34L118.35 437.13Z" fill="black"/>
<path d="M115.28 435.96H115.27C115.09 435.96 114.96 435.81 114.96 435.63C115.1 431.52 117.6 430.11 117.71 430.05C117.86 429.97 118.06 430.02 118.14 430.18C118.22 430.33 118.17 430.53 118.02 430.61C117.93 430.66 115.73 431.93 115.6 435.66C115.6 435.83 115.45 435.97 115.28 435.97V435.96Z" fill="black"/>
<path d="M116.63 431.81H116.62C116.49 431.81 116.38 431.72 116.33 431.6C116.2 431.24 115.04 428.07 115.87 426.97C116.02 426.77 116.31 426.52 116.83 426.57C117.24 426.6 117.56 426.79 117.75 427.11C118.46 428.33 117.08 431.3 116.92 431.63C116.87 431.74 116.75 431.81 116.63 431.81ZM116.72 427.2C116.52 427.2 116.43 427.28 116.38 427.35C116 427.86 116.3 429.39 116.67 430.6C117.12 429.46 117.53 428 117.2 427.43C117.14 427.33 117.05 427.22 116.79 427.2C116.77 427.2 116.75 427.2 116.73 427.2H116.72Z" fill="black"/>
<path d="M116.63 431.86C116.63 431.86 116.61 431.86 116.6 431.86C116.22 431.82 112.87 431.43 112.25 430.2C112.14 429.97 112.05 429.61 112.32 429.16C112.53 428.81 112.84 428.61 113.22 428.58C114.62 428.48 116.66 431.05 116.89 431.34C116.97 431.44 116.98 431.58 116.92 431.69C116.86 431.79 116.76 431.85 116.64 431.85L116.63 431.86ZM113.29 429.22C113.29 429.22 113.26 429.22 113.25 429.22C113.14 429.22 112.99 429.26 112.86 429.49C112.73 429.7 112.77 429.83 112.81 429.92C113.09 430.49 114.6 430.91 115.85 431.12C115.05 430.22 113.95 429.23 113.29 429.23V429.22Z" fill="black"/>
<path d="M83.9301 293.57C83.8801 293.57 83.8301 293.54 83.8001 293.49C83.7501 293.41 83.7701 293.31 83.8501 293.26C90.5501 288.99 96.4301 283.25 100.86 276.65C100.91 276.57 101.01 276.55 101.09 276.61C101.17 276.66 101.19 276.76 101.14 276.84C96.6901 283.47 90.7701 289.25 84.0301 293.54C84.0001 293.56 83.9701 293.57 83.9301 293.57Z" fill="#2D3567"/>
<path d="M93.8001 297.7C93.8001 297.7 93.7201 297.68 93.6901 297.65C93.6201 297.59 93.6201 297.48 93.6901 297.42C98.4301 292.45 102.24 286.45 104.72 280.05C104.75 279.97 104.85 279.92 104.93 279.96C105.02 279.99 105.06 280.09 105.02 280.17C102.52 286.61 98.6801 292.65 93.9201 297.65C93.8901 297.69 93.8401 297.7 93.7901 297.7H93.8001Z" fill="#2D3567"/>
<path d="M125.94 196.65L125.65 196.24C129.35 193.67 130.28 188.55 129.55 184.62C128.75 180.26 126.24 176.29 124.02 172.78L123.74 172.33L124.26 172.39C126.36 172.65 128.11 170.78 128.55 168.92C128.96 167.18 128.57 165.17 127.39 162.94C125.02 158.45 120.66 155.02 115.74 153.78L115.86 153.29C120.92 154.57 125.39 158.09 127.83 162.7C129.07 165.04 129.47 167.17 129.03 169.03C128.58 170.95 126.83 172.87 124.69 172.91C126.86 176.36 129.25 180.24 130.03 184.52C130.78 188.61 129.81 193.95 125.92 196.65H125.94Z" fill="black"/>
<path d="M56.4201 194.12C53.1501 192.87 50.6201 189.7 50.1401 186.23C49.6601 182.84 51.1501 179.18 53.8301 177.06C51.0001 172.49 51.4001 166.22 54.8301 162.06C58.3001 157.84 64.5101 156.26 69.5801 158.3L69.3901 158.77C64.5201 156.81 58.5601 158.34 55.2201 162.39C51.8801 166.44 51.5301 172.58 54.3801 176.99L54.5101 177.19L54.3201 177.33C51.6601 179.32 50.1801 182.88 50.6401 186.17C51.1001 189.46 53.5001 192.47 56.6001 193.66L56.4201 194.13V194.12Z" fill="black"/>
<path d="M84.41 215.52L84.66 220.97C90.36 222.68 96.3 223.08 101.84 222.1L102.24 214.33L84.41 215.52Z" fill="black" stroke="black" stroke-miterlimit="10"/>
<path d="M101.66 225.7L101.84 222.1C96.3 223.09 90.36 222.68 84.66 220.97L84.83 224.66C90.19 226.69 95.9 226.71 101.66 225.7Z" fill="black" stroke="black" stroke-miterlimit="10"/>
<path d="M90.25 234.43C90.25 234.43 91.74 238.48 92.7 248.79C93.46 256.92 90.67 297.97 89.46 314.91C89.14 319.44 87.11 322.43 87.11 322.43C87.11 322.43 62.4 319.02 55.02 304.47C55.02 304.47 57.46 287.89 62.53 263.23C62.53 263.23 69.43 228.41 72.07 228.02C79.9 226.86 81.9 227.27 81.9 227.27L90.24 234.43H90.25Z" fill="white" stroke="black" stroke-width="1.12" stroke-linecap="round" stroke-linejoin="round"/>
<path d="M116.58 231.43C113.33 229 105.05 228.38 105.05 228.38L95.9 234.65C95.9 234.65 94.1 238.58 92.36 248.78C90.98 256.85 89.83 297.33 89.42 313.9C89.24 314.4 92.05 322.11 92.05 322.11C92.05 322.11 118.21 321.4 126.68 307.46C126.68 307.46 127.81 292.29 124.64 267.32C124.64 267.32 124.38 263.15 123.75 257.63" fill="white"/>
<path d="M116.58 231.43C113.33 229 105.05 228.38 105.05 228.38L95.9 234.65C95.9 234.65 94.1 238.58 92.36 248.78C90.98 256.85 89.83 297.33 89.42 313.9C89.24 314.4 92.05 322.11 92.05 322.11C92.05 322.11 118.21 321.4 126.68 307.46C126.68 307.46 127.81 292.29 124.64 267.32C124.64 267.32 124.38 263.15 123.75 257.63" stroke="black" stroke-width="1.12" stroke-linecap="round" stroke-linejoin="round"/>
<path d="M95.97 320.52C95.87 320.52 95.79 320.45 95.76 320.35C95.75 320.3 94.38 315.59 93.6 310.95C93.09 307.93 93.52 294.87 93.98 281.04C94.24 273.33 94.5 265.35 94.61 258.88C94.91 241.02 99.07 234.98 99.25 234.73C99.32 234.63 99.47 234.6 99.57 234.68C99.67 234.75 99.7 234.9 99.62 235C99.58 235.06 95.36 241.21 95.07 258.89C94.96 265.37 94.7 273.35 94.44 281.06C93.98 294.87 93.55 307.91 94.05 310.88C94.83 315.49 96.19 320.18 96.2 320.23C96.24 320.35 96.17 320.48 96.04 320.51C96.02 320.51 95.99 320.52 95.97 320.51V320.52Z" fill="black" stroke="black" stroke-width="0.25" stroke-miterlimit="10"/>
<path d="M56.6601 245.27C53.3401 248.14 49.1101 245.81 41.7601 266.67C34.2501 283.02 26.6401 324.82 26.6401 324.82C24.4401 329.11 20.3301 338.48 21.7301 339.35C23.1301 340.22 26.5601 333.99 26.5601 333.99C26.5601 333.99 22.9901 341.82 24.4001 342.57C25.8101 343.32 29.1801 335.02 29.1801 335.02C29.1801 335.02 26.4101 343.5 27.7001 344.29C29.9301 345.53 32.1201 335.3 32.1201 335.3C32.1201 335.3 31.3401 343.72 33.1501 344.14C34.9701 344.56 35.7501 333.62 35.7501 333.62C35.7501 333.62 36.9001 338.43 38.5301 336.85C40.1601 335.27 37.8301 327.1 37.8301 327.1C37.8301 327.1 51.0601 293.95 56.4701 281.01C57.1701 279.34 57.7401 278.01 58.1301 277.12" fill="white"/>
<path d="M56.6601 245.27C53.3401 248.14 49.1101 245.81 41.7601 266.67C34.2501 283.02 26.6401 324.82 26.6401 324.82C24.4401 329.11 20.3301 338.48 21.7301 339.35C23.1301 340.22 26.5601 333.99 26.5601 333.99C26.5601 333.99 22.9901 341.82 24.4001 342.57C25.8101 343.32 29.1801 335.02 29.1801 335.02C29.1801 335.02 26.4101 343.5 27.7001 344.29C29.9301 345.53 32.1201 335.3 32.1201 335.3C32.1201 335.3 31.3401 343.72 33.1501 344.14C34.9701 344.56 35.7501 333.62 35.7501 333.62C35.7501 333.62 36.9001 338.43 38.5301 336.85C40.1601 335.27 37.8301 327.1 37.8301 327.1C37.8301 327.1 51.0601 293.95 56.4701 281.01C57.1701 279.34 57.7401 278.01 58.1301 277.12" stroke="black" stroke-width="1.12" stroke-linecap="round" stroke-linejoin="round"/>
<path d="M73.64 227.8C73.64 227.8 65.01 228.24 57.55 236.87C37.15 260.46 27.22 323.19 27.22 323.19C27.22 323.19 31.09 322.26 40.3 325.46C40.3 325.46 53.4 293.32 60.81 274.36C60.81 274.36 66.08 264.01 68.48 252.53" fill="white"/>
<path d="M73.64 227.8C73.64 227.8 65.01 228.24 57.55 236.87C37.15 260.46 27.22 323.19 27.22 323.19C27.22 323.19 31.09 322.26 40.3 325.46C40.3 325.46 53.4 293.32 60.81 274.36C60.81 274.36 66.08 264.01 68.48 252.53" stroke="black" stroke-width="1.12" stroke-linecap="round" stroke-linejoin="round"/>
<path d="M101.44 229.88L101.65 225.7C95.8901 226.71 90.1801 226.69 84.8201 224.66L85.0301 229.25" fill="white"/>
<path d="M101.44 229.88L101.65 225.7C95.8901 226.71 90.1801 226.69 84.8201 224.66L85.0301 229.25" stroke="black" stroke-width="1.12" stroke-linecap="round" stroke-linejoin="round"/>
<path d="M113.5 200.06C113.07 197.03 116.38 188.14 116.38 188.14C116.38 188.14 127.02 183.77 128.03 194.82C129.04 205.87 114.61 207.88 113.5 200.05V200.06Z" fill="white" stroke="black" stroke-width="1.12" stroke-linecap="round" stroke-linejoin="round"/>
<path d="M117.31 200.55C117.31 200.55 117.37 200.55 117.4 200.53C117.51 200.47 117.55 200.34 117.5 200.23C117.47 200.18 114.89 194.95 118.5 192.32C119.77 191.4 121.04 191.04 122.29 191.26C124.44 191.64 125.81 193.62 125.82 193.64C125.89 193.74 126.03 193.77 126.13 193.7C126.23 193.63 126.26 193.49 126.19 193.39C126.13 193.3 124.71 191.23 122.37 190.82C121 190.58 119.61 190.96 118.24 191.96C114.32 194.81 117.08 200.37 117.1 200.43C117.14 200.51 117.22 200.55 117.31 200.55Z" fill="black"/>
<path d="M122.6 195.98C122.67 195.98 122.73 195.94 122.77 195.88C122.84 195.78 122.81 195.64 122.71 195.57C122.67 195.54 118.84 192.98 116.19 195.86C116.11 195.95 116.11 196.09 116.2 196.17C116.29 196.25 116.43 196.25 116.51 196.16C118.9 193.56 122.42 195.91 122.46 195.94C122.5 195.97 122.55 195.98 122.59 195.98H122.6Z" fill="black"/>
<path d="M119.99 168.63C122.3 174.44 123.34 177.87 122.91 191.43C122.51 203.98 113.91 219.34 98.64 220.97C84.28 222.5 65.49 214.83 61.17 194.58C57.53 177.52 64.23 160.3 82.37 155.06C100.51 149.82 115.6 157.61 119.99 168.63Z" fill="white" stroke="black" stroke-width="1.12" stroke-linecap="round" stroke-linejoin="round"/>
<path d="M116.27 149.98C119.7 152.05 123.26 154.25 125.58 158.02C127.9 161.79 128.52 167.62 125.92 170.97C126.81 173.85 127.69 176.73 128.58 179.6C129.24 181.73 129.9 183.91 130 186.18C130.1 188.45 129.55 190.87 128.14 192.28C126.33 194.09 123.5 193.73 121.63 191.94C119.76 190.15 118.76 187.23 118.47 184.34C118.18 181.45 118.51 178.54 118.84 175.66C116.09 171.78 113.66 167.55 111.63 163.05C110.59 160.76 109.63 158.25 109.79 155.66C109.95 153.07 111.65 150.48 113.75 150.7" fill="black"/>
<path d="M63.4801 192.5C63.4801 192.5 68.9901 191 69.2701 181.43C69.2701 181.43 73.8901 179.33 75.0401 169.72C75.0401 169.72 100.21 178.03 107.02 173.08C107.02 173.08 109.81 170.84 107.96 167.31C107.96 167.31 112.02 169.86 118.86 167.45C125.7 165.04 121.5 155.28 116.93 154.19C116.93 154.19 118.87 141.12 104.85 143.61C90.8301 146.1 88.4101 143.91 80.2401 144.67C72.0701 145.43 67.3201 150.5 65.3401 154.83C65.3401 154.83 46.4501 166.02 54.1101 177.21C54.1101 177.21 44.9901 187.3 55.0401 192.87C63.2501 197.42 63.4901 192.52 63.4901 192.52L63.4801 192.5Z" fill="black"/>
<path d="M65.2101 159.01C63.2901 157.54 61.5801 155.78 60.1801 153.8C59.8601 153.35 59.61 152.62 60.09 152.35C60.45 152.15 60.8901 152.44 61.1901 152.72C62.3001 153.72 63.4101 154.71 64.5101 155.71C63.2501 153.92 62.3501 151.88 61.8601 149.75C61.6801 148.97 61.6401 147.97 62.3201 147.54C62.8401 147.22 63.55 147.42 63.99 147.84C64.43 148.26 64.66 148.85 64.88 149.41C65.94 152.16 67.0001 154.9 68.0501 157.65" fill="black"/>
<path d="M66.8101 191C66.8101 191 55.8501 187.52 55.7501 198.62C55.6601 208.33 66.7901 210.17 69.8801 205.19" fill="white"/>
<path d="M66.8101 191C66.8101 191 55.8501 187.52 55.7501 198.62C55.6601 208.33 66.7901 210.17 69.8801 205.19" stroke="black" stroke-width="1.12" stroke-linecap="round" stroke-linejoin="round"/>
<path d="M66.9001 203.43C66.9001 203.43 66.8401 203.43 66.8101 203.41C66.7001 203.36 66.6401 203.23 66.6901 203.12C66.7101 203.07 68.8601 197.64 65.0401 195.32C63.7001 194.5 62.4001 194.25 61.1701 194.57C59.0601 195.12 57.8501 197.21 57.8401 197.23C57.7801 197.34 57.6401 197.37 57.5401 197.31C57.4301 197.25 57.4001 197.11 57.4601 197.01C57.5101 196.92 58.7601 194.74 61.0601 194.14C62.4101 193.79 63.8201 194.06 65.2701 194.94C69.4101 197.46 67.1201 203.23 67.1001 203.29C67.0701 203.37 66.9901 203.42 66.9001 203.43Z" fill="black"/>
<path d="M61.2501 199.32C61.1801 199.32 61.1101 199.29 61.0701 199.24C60.9901 199.14 61.0101 199 61.1001 198.93C61.1401 198.9 64.7501 196.03 67.6301 198.68C67.7201 198.76 67.7301 198.9 67.6401 198.99C67.5601 199.08 67.4201 199.09 67.3301 199C64.7301 196.6 61.4201 199.24 61.3801 199.27C61.3401 199.3 61.3001 199.32 61.2501 199.32Z" fill="black"/>
<path d="M76.99 186.31C76.99 186.31 74.7 184.44 79.27 181.79C83.84 179.14 85.5 179.62 86.31 180.81C87.05 181.9 86.05 183.62 83.45 185.06C80.33 186.78 78.24 187.39 76.99 186.31Z" fill="black"/>
<path d="M86.25 193.43C86.31 194.94 85.36 196.21 84.12 196.26C82.88 196.31 81.83 195.13 81.76 193.62C81.7 192.11 82.65 190.84 83.89 190.79C85.13 190.74 86.18 191.92 86.25 193.43Z" fill="#020600"/>
<path d="M115.14 184.74C115.14 184.74 117.27 182.69 112.5 180.42C107.73 178.16 106.11 178.77 105.4 180.02C104.76 181.17 105.89 182.8 108.6 184.02C111.85 185.48 113.99 185.91 115.14 184.73V184.74Z" fill="black"/>
<path d="M105.51 192.64C105.57 194.15 106.63 195.33 107.87 195.28C109.11 195.23 110.06 193.96 110 192.45C109.94 190.94 108.88 189.76 107.64 189.81C106.4 189.86 105.45 191.13 105.51 192.64Z" fill="#020600"/>
<path d="M98.6001 198.41C98.5201 198.41 98.4301 198.37 98.3901 198.29C98.3301 198.18 98.3801 198.05 98.4901 197.99C98.5101 197.99 100.25 197.09 100.97 195.46C101.54 194.19 101.27 192.32 100.41 191.54C99.8901 191.07 99.2201 191.06 98.4501 191.5C98.4301 191.51 98.3901 191.54 98.3401 191.57C95.6701 193.27 94.4101 192.61 93.8201 191.75C92.7401 190.18 93.0901 177.42 93.1401 175.97C93.1401 175.85 93.2501 175.75 93.3701 175.75C93.4901 175.75 93.5901 175.86 93.5901 175.98C93.4701 179.88 93.3501 190.27 94.1901 191.49C94.8901 192.5 96.2001 192.4 98.1001 191.19C98.1601 191.15 98.2001 191.12 98.2301 191.11C99.1601 190.57 100.04 190.6 100.71 191.2C101.71 192.11 102.03 194.17 101.38 195.63C100.59 197.4 98.7701 198.33 98.6901 198.37C98.6601 198.38 98.6301 198.39 98.6001 198.39V198.41Z" fill="black"/>
<path d="M101.55 192.59C101.03 186.02 105.94 180.25 112.51 179.73C119.08 179.21 124.85 184.12 125.37 190.69C125.89 197.26 120.98 203.03 114.41 203.55C107.84 204.07 102.07 199.16 101.55 192.59ZM102.18 192.54C102.68 198.76 108.14 203.41 114.36 202.91C120.58 202.41 125.23 196.95 124.73 190.73C124.23 184.51 118.77 179.86 112.55 180.36C106.33 180.86 101.68 186.32 102.18 192.54Z" fill="black"/>
<path d="M68.99 195.19C68.47 188.62 73.38 182.85 79.95 182.33C86.52 181.81 92.29 186.72 92.81 193.29C93.33 199.86 88.42 205.63 81.85 206.15C75.28 206.67 69.51 201.76 68.99 195.19ZM69.62 195.14C70.12 201.36 75.58 206.01 81.8 205.51C88.02 205.01 92.67 199.55 92.17 193.33C91.67 187.11 86.21 182.46 79.99 182.96C73.77 183.46 69.12 188.92 69.62 195.14Z" fill="black"/>
<path d="M92.39 191.97C92.44 191.97 92.5 191.95 92.55 191.91C96.87 188.89 101.67 191.15 101.72 191.18C101.88 191.26 102.07 191.18 102.14 191.03C102.22 190.87 102.14 190.68 101.99 190.61C101.94 190.59 96.8 188.17 92.18 191.39C92.04 191.49 92 191.69 92.1 191.83C92.17 191.93 92.28 191.97 92.39 191.96V191.97Z" fill="black"/>
<path d="M93.4101 203.09C93.3901 202.17 93.6401 201.45 93.6401 201.45C97.6001 201.62 101.57 203.32 101.57 203.32C101.57 203.32 101.32 204.12 100.75 204.97C99.1301 204.2 96.5201 203.24 93.4101 203.09Z" fill="black" stroke="black" stroke-width="0.5" stroke-miterlimit="10"/>
<path d="M100.75 204.97C99.9901 206.11 98.6501 207.32 96.5701 206.76C94.0001 206.07 93.4401 204.38 93.4101 203.09C96.5201 203.24 99.1301 204.2 100.75 204.97Z" fill="white" stroke="black" stroke-width="0.5" stroke-linecap="round" stroke-linejoin="round"/>
<path d="M28.8801 324.1L31.3901 317.43C31.3901 317.43 37.5201 318.54 42.0601 322.86L39.4001 328.43C39.4001 328.43 33.9401 325.24 28.8701 324.11L28.8801 324.1Z" fill="white" stroke="black" stroke-width="1.12" stroke-linecap="round" stroke-linejoin="round"/>
<path d="M28.88 324.1L28.22 317.38C28.22 317.38 26.5 317.74 25.66 318.4L26.63 324.12C26.63 324.12 27.74 323.87 28.87 324.1H28.88Z" fill="white" stroke="black" stroke-width="1.12" stroke-linecap="round" stroke-linejoin="round"/>
<path d="M84.06 224.67C84.06 224.67 80.42 224.63 79.14 226.06C77.08 228.37 76.02 229.94 76.02 229.94C76.02 229.94 79.23 237.22 86.29 239.72C86.29 239.72 87.93 234.65 90 233.76C90 233.76 85.82 231.76 84.56 229.29C84.08 228.3 84.06 224.66 84.06 224.66V224.67Z" fill="white" stroke="black" stroke-width="1.12" stroke-linecap="round" stroke-linejoin="round"/>
<path d="M102.28 225.18C102.28 225.18 106.34 225.56 107.5 227.09C109.38 229.55 110.31 231.2 110.31 231.2C110.31 231.2 106.56 238.22 99.3201 240.17C99.3201 240.17 98.0701 234.99 96.0701 233.95C96.0701 233.95 100.39 232.28 101.84 229.91C102.39 228.96 102.27 225.18 102.27 225.18H102.28Z" fill="white" stroke="black" stroke-width="1.12" stroke-linecap="round" stroke-linejoin="round"/>
<path d="M110.74 271.54C107.73 271.43 103.47 266.33 103.28 266.11C103.24 266.07 103.23 266.01 103.23 265.96L103.43 255.52C103.43 255.39 103.54 255.29 103.66 255.29L117.4 255.43C117.54 255.45 117.62 255.53 117.63 255.65L117.99 266.5C117.99 266.56 117.97 266.61 117.94 266.66C117.79 266.84 114.2 271.04 111.23 271.52C111.07 271.54 110.91 271.55 110.75 271.55L110.74 271.54ZM103.68 265.88C104.22 266.51 108.54 271.48 111.14 271.06C113.75 270.64 117.04 266.96 117.51 266.42L117.16 255.88L103.87 255.75L103.67 265.88H103.68Z" fill="black" stroke="black" stroke-width="0.5" stroke-miterlimit="10"/>
<path d="M103.9 259.24C103.77 259.24 103.68 259.13 103.68 259C103.68 258.87 103.79 258.77 103.92 258.78L117.46 259.1C117.59 259.1 117.68 259.21 117.68 259.34C117.68 259.47 117.57 259.57 117.44 259.56L103.9 259.24Z" fill="black" stroke="black" stroke-width="0.5" stroke-miterlimit="10"/>
<path d="M96.8101 240.33C96.7901 240.93 96.2801 241.41 95.6701 241.38C95.0601 241.35 94.5901 240.85 94.6201 240.24C94.6401 239.64 95.1501 239.16 95.7601 239.19C96.3601 239.21 96.8401 239.72 96.8101 240.33Z" fill="black"/>
<path d="M94.62 254.56C94.6 255.16 94.09 255.64 93.48 255.61C92.88 255.59 92.4 255.08 92.43 254.47C92.45 253.87 92.96 253.39 93.57 253.42C94.17 253.44 94.65 253.95 94.62 254.56Z" fill="black"/>
<path d="M94.0701 270.61C94.0501 271.21 93.5401 271.69 92.9301 271.66C92.3301 271.64 91.8501 271.13 91.8801 270.52C91.9001 269.92 92.4101 269.44 93.0201 269.47C93.6201 269.49 94.1001 270 94.0701 270.61Z" fill="black"/>
<path d="M93.72 286.46C93.7 287.06 93.19 287.54 92.58 287.51C91.98 287.49 91.5 286.98 91.53 286.37C91.55 285.77 92.06 285.29 92.67 285.32C93.28 285.35 93.75 285.85 93.72 286.46Z" fill="black"/>
<path d="M93.06 304.67C93.04 305.27 92.53 305.75 91.92 305.72C91.32 305.7 90.84 305.19 90.87 304.58C90.89 303.98 91.4 303.5 92.01 303.53C92.61 303.55 93.09 304.06 93.06 304.67Z" fill="black"/>
</g>
<defs>
<clipPath id="clip0_110_405">
<rect width="464" height="464" fill="white"/>
</clipPath>
</defs>
</svg>
