<svg width="95" height="57" viewBox="0 0 95 57" fill="none" xmlns="http://www.w3.org/2000/svg">
<path d="M8.84179 41.8942C8.84179 42.7658 8.51541 43.4383 7.86038 43.9115C7.20535 44.3847 6.23527 44.6201 4.95014 44.6201H0V34.9164H4.74841C5.93608 34.9164 6.86537 35.1337 7.53173 35.5707C8.1981 36.0076 8.53128 36.6257 8.53128 37.4249C8.53128 37.9208 8.39982 38.3509 8.13916 38.7154C7.87851 39.08 7.51133 39.363 7.03762 39.569C8.24116 39.9312 8.84179 40.7078 8.84179 41.8942ZM2.16455 38.969H4.54669C5.72303 38.969 6.31233 38.5638 6.31233 37.751C6.31233 36.9631 5.72303 36.5691 4.54669 36.5691H2.16455V38.969ZM6.64098 41.7493C6.64098 41.3259 6.49592 41.0067 6.20354 40.7961C5.91342 40.5833 5.45784 40.4791 4.83908 40.4791H2.16455V42.9696H4.76655C6.01541 42.9651 6.64098 42.5598 6.64098 41.7493Z" fill="#061819"/>
<path d="M11.0063 32.9262C10.7276 32.6659 10.587 32.3421 10.587 31.955C10.587 31.5678 10.7253 31.244 11.0063 30.9837C11.2851 30.7233 11.6296 30.592 12.0444 30.592C12.4569 30.592 12.8015 30.7165 13.0825 30.9656C13.3613 31.2146 13.5018 31.5271 13.5018 31.9006C13.5018 32.3014 13.3658 32.6364 13.0916 32.9081C12.8196 33.1798 12.4705 33.3179 12.0444 33.3179C11.6296 33.3157 11.2851 33.1866 11.0063 32.9262ZM10.8976 34.9164H13.1709V44.6201H10.8976V34.9164Z" fill="#061819"/>
<path d="M31.0539 35.8695C31.7702 36.5782 32.1283 37.6423 32.1283 39.0596V44.6201H29.8549V39.3494C29.8549 38.5026 29.6668 37.8619 29.2906 37.4317C28.9143 37.0016 28.3749 36.7865 27.6723 36.7865C26.9084 36.7865 26.2965 37.0378 25.8341 37.5404C25.374 38.043 25.1428 38.7607 25.1428 39.6935V44.6179H22.8694V39.3494C22.8694 38.5026 22.6813 37.8619 22.3051 37.4317C21.9288 37.0016 21.3894 36.7865 20.6868 36.7865C19.9093 36.7865 19.2951 37.0355 18.8395 37.5313C18.384 38.0272 18.1573 38.7494 18.1573 39.6935V44.6179H15.8817V34.9141H18.0462V36.1503C18.4112 35.7133 18.8645 35.3805 19.4107 35.1518C19.9569 34.9209 20.5621 34.8077 21.2307 34.8077C21.9583 34.8077 22.6043 34.9435 23.1686 35.2175C23.733 35.4892 24.1772 35.8922 24.5059 36.4265C24.9071 35.9171 25.4216 35.5209 26.0517 35.2356C26.6818 34.9503 27.3799 34.8077 28.1437 34.8077C29.3676 34.8077 30.3377 35.1609 31.0539 35.8695Z" fill="#061819"/>
<path d="M42.3776 35.4258C43.1346 35.8378 43.7239 36.4197 44.1432 37.1714C44.5626 37.923 44.7711 38.7947 44.7711 39.7886C44.7711 40.7689 44.5716 41.6361 44.1704 42.3878C43.7693 43.1394 43.2094 43.7213 42.4887 44.1333C41.7679 44.5454 40.9338 44.7514 39.9864 44.7514C38.6401 44.7514 37.5861 44.3213 36.82 43.4609V48.1498H34.5286V39.809C34.5286 38.8286 34.7461 37.9592 35.1836 37.2008C35.621 36.4446 36.2307 35.8559 37.0127 35.4371C37.7947 35.0182 38.7013 34.8099 39.7326 34.8099C40.7389 34.8077 41.6206 35.0137 42.3776 35.4258ZM41.7135 41.9757C42.2461 41.4119 42.5136 40.6829 42.5136 39.7863C42.5136 38.8898 42.2461 38.1562 41.7135 37.5879C41.1786 37.0197 40.4873 36.7344 39.6396 36.7344C38.7783 36.7344 38.087 37.0129 37.5657 37.5698C37.0444 38.1268 36.7838 38.8603 36.7838 39.7682C36.7838 40.6761 37.0467 41.4119 37.5748 41.9757C38.1029 42.5394 38.7897 42.8202 39.6396 42.8202C40.4896 42.8202 41.1809 42.5394 41.7135 41.9757Z" fill="#061819"/>
<path d="M49.082 44.1107C48.2933 43.6873 47.6791 43.0964 47.2348 42.3379C46.7928 41.5817 46.5707 40.7237 46.5707 39.766C46.5707 38.8083 46.7928 37.9547 47.2348 37.2031C47.6768 36.4514 48.2933 35.865 49.082 35.4393C49.8708 35.016 50.7548 34.8031 51.7384 34.8031C52.7335 34.8031 53.6242 35.016 54.413 35.4393C55.2017 35.8627 55.816 36.4514 56.2602 37.2031C56.7022 37.9547 56.9243 38.8083 56.9243 39.766C56.9243 40.7237 56.7022 41.5795 56.2602 42.3379C55.8182 43.0941 55.2017 43.6851 54.413 44.1107C53.6242 44.5341 52.7335 44.7469 51.7384 44.7469C50.7548 44.7469 49.8708 44.5363 49.082 44.1107ZM53.8123 41.9666C54.3586 41.4097 54.6306 40.6761 54.6306 39.7682C54.6306 38.8603 54.3586 38.1268 53.8123 37.5698C53.2661 37.0129 52.5748 36.7344 51.7384 36.7344C50.9021 36.7344 50.2131 37.0129 49.6736 37.5698C49.1342 38.1268 48.8645 38.8603 48.8645 39.7682C48.8645 40.6761 49.1342 41.4097 49.6736 41.9666C50.2131 42.5236 50.9021 42.8021 51.7384 42.8021C52.5748 42.8021 53.2661 42.5236 53.8123 41.9666Z" fill="#061819"/>
<path d="M68.5834 34.9164V44.6201H66.3101V36.8431H62.6723L62.5816 38.7698C62.5204 40.0535 62.4025 41.1289 62.2258 41.9961C62.049 42.8632 61.752 43.547 61.335 44.0496C60.9157 44.5522 60.3445 44.8035 59.617 44.8035C59.277 44.8035 58.8599 44.7378 58.3613 44.6043L58.4701 42.6957C58.6401 42.7319 58.7851 42.75 58.9075 42.75C59.3676 42.75 59.7144 42.5643 59.9433 42.1953C60.1745 41.8263 60.3219 41.3848 60.3898 40.8686C60.4556 40.3546 60.5145 39.6188 60.5621 38.6611L60.7253 34.9186H68.5834V34.9164Z" fill="#061819"/>
<path d="M73.3137 44.1107C72.5249 43.6873 71.9107 43.0964 71.4664 42.3379C71.0245 41.5817 70.8024 40.7237 70.8024 39.766C70.8024 38.8083 71.0245 37.9547 71.4664 37.2031C71.9084 36.4514 72.5249 35.865 73.3137 35.4393C74.1024 35.016 74.9864 34.8031 75.9701 34.8031C76.9651 34.8031 77.8558 35.016 78.6446 35.4393C79.4334 35.8627 80.0476 36.4514 80.4918 37.2031C80.9338 37.9547 81.1559 38.8083 81.1559 39.766C81.1559 40.7237 80.9338 41.5795 80.4918 42.3379C80.0499 43.0941 79.4334 43.6851 78.6446 44.1107C77.8558 44.5341 76.9651 44.7469 75.9701 44.7469C74.9864 44.7469 74.1024 44.5363 73.3137 44.1107ZM78.044 41.9666C78.5902 41.4097 78.8622 40.6761 78.8622 39.7682C78.8622 38.8603 78.5902 38.1268 78.044 37.5698C77.4977 37.0129 76.8064 36.7344 75.9701 36.7344C75.1337 36.7344 74.4447 37.0129 73.9053 37.5698C73.3658 38.1268 73.0961 38.8603 73.0961 39.7682C73.0961 40.6761 73.3658 41.4097 73.9053 41.9666C74.4447 42.5236 75.1337 42.8021 75.9701 42.8021C76.8064 42.8021 77.4977 42.5236 78.044 41.9666Z" fill="#061819"/>
<path d="M92.9442 44.6201V38.1879L89.6691 43.6036H88.6877L85.4669 38.1698V44.6201H83.393V34.9164H85.7752L89.2316 40.9863L92.8513 34.9164H94.9796L94.9977 44.6201H92.9442Z" fill="#061819"/>
<path d="M14.2928 52.2477C14.5671 52.4017 14.7824 52.6168 14.9365 52.8907C15.0907 53.1647 15.1677 53.4794 15.1677 53.8348C15.1677 54.1994 15.0816 54.5231 14.9116 54.8039C14.7416 55.0846 14.5014 55.3042 14.1931 55.4604C13.8849 55.6167 13.5335 55.6959 13.1414 55.6959C12.4819 55.6959 11.9742 55.4785 11.6138 55.0438C11.2534 54.6091 11.0743 53.982 11.0743 53.1624C11.0743 52.3994 11.2375 51.7972 11.5639 51.3512C11.8903 50.9051 12.3912 50.6131 13.0644 50.4704L14.8277 50.0946L14.9547 50.8893L13.3545 51.2153C12.8944 51.3104 12.5521 51.4712 12.3232 51.6976C12.0966 51.924 11.9628 52.2455 11.9243 52.6553C12.0943 52.4515 12.3005 52.2953 12.5431 52.1843C12.7856 52.0734 13.0508 52.0168 13.3386 52.0168C13.7013 52.0168 14.0186 52.0938 14.2928 52.2477ZM13.9551 54.6612C14.1568 54.4507 14.2566 54.1812 14.2566 53.8552C14.2566 53.5292 14.1568 53.2666 13.9551 53.0673C13.7534 52.8681 13.4905 52.7685 13.1618 52.7685C12.8309 52.7685 12.5635 52.8681 12.3595 53.0673C12.1555 53.2666 12.0535 53.5292 12.0535 53.8552C12.0535 54.1858 12.1555 54.4575 12.3617 54.6658C12.568 54.874 12.8332 54.9782 13.1618 54.9782C13.4905 54.9782 13.7534 54.8718 13.9551 54.6612Z" fill="#164E5F"/>
<path d="M19.7439 51.8311V55.6234H18.8554V52.5851H17.4343L17.398 53.3367C17.3753 53.8394 17.3277 54.2582 17.2597 54.5978C17.1917 54.9374 17.0739 55.2046 16.9107 55.3993C16.7475 55.5963 16.5231 55.6936 16.2398 55.6936C16.1083 55.6936 15.9429 55.6665 15.7502 55.6167L15.7933 54.8718C15.859 54.8854 15.9157 54.8922 15.9633 54.8922C16.1423 54.8922 16.2783 54.8197 16.369 54.6748C16.4597 54.5299 16.5163 54.3578 16.5435 54.1563C16.5684 53.9548 16.5911 53.6673 16.6115 53.2937L16.675 51.8311H19.7439Z" fill="#164E5F"/>
<path d="M23.8146 52.1911C24.1115 52.4583 24.2588 52.8613 24.2588 53.4024V55.6257H23.4202V55.1638C23.3114 55.3291 23.155 55.4559 22.9556 55.5442C22.7561 55.6325 22.5113 55.6755 22.228 55.6755C21.9447 55.6755 21.6954 55.628 21.4823 55.5306C21.2693 55.4333 21.1038 55.2997 20.9882 55.1254C20.8726 54.9533 20.8137 54.7586 20.8137 54.539C20.8137 54.1994 20.9406 53.9254 21.1945 53.7194C21.4483 53.5134 21.8472 53.4115 22.3912 53.4115H23.3726V53.3549C23.3726 53.09 23.2933 52.8862 23.1346 52.7436C22.976 52.6009 22.7403 52.5307 22.4275 52.5307C22.2144 52.5307 22.0036 52.5647 21.7974 52.6304C21.5911 52.696 21.4166 52.7888 21.2761 52.9066L20.927 52.2613C21.1265 52.1096 21.3645 51.9942 21.6455 51.9127C21.9243 51.8334 22.2212 51.7927 22.534 51.7927C23.0893 51.7904 23.5177 51.924 23.8146 52.1911ZM23.0032 54.874C23.1754 54.7722 23.2978 54.6273 23.3704 54.4371V53.9979H22.4524C21.9402 53.9979 21.684 54.1654 21.684 54.5027C21.684 54.6635 21.7475 54.7925 21.8767 54.8854C22.0036 54.9805 22.1827 55.028 22.4093 55.028C22.6337 55.028 22.8309 54.9759 23.0032 54.874Z" fill="#164E5F"/>
<path d="M28.4519 52.5851H26.4257V55.6234H25.5372V51.8311H28.4519V52.5851Z" fill="#164E5F"/>
<path d="M29.7665 55.4242C29.4583 55.2589 29.218 55.028 29.0458 54.7314C28.8735 54.4348 28.7874 54.0997 28.7874 53.7262C28.7874 53.3526 28.8735 53.0198 29.0458 52.7255C29.218 52.4311 29.4583 52.2025 29.7665 52.0372C30.0748 51.8719 30.4216 51.7881 30.8046 51.7881C31.1922 51.7881 31.5413 51.8719 31.8495 52.0372C32.1578 52.2025 32.398 52.4334 32.5703 52.7255C32.7425 53.0198 32.8286 53.3526 32.8286 53.7262C32.8286 54.0997 32.7425 54.4348 32.5703 54.7314C32.398 55.028 32.1578 55.2589 31.8495 55.4242C31.5413 55.5895 31.1922 55.6733 30.8046 55.6733C30.4193 55.6733 30.0748 55.5895 29.7665 55.4242ZM31.6138 54.5865C31.8268 54.3692 31.9334 54.0816 31.9334 53.7284C31.9334 53.373 31.8268 53.0877 31.6138 52.8704C31.4007 52.653 31.131 52.5443 30.8024 52.5443C30.4737 52.5443 30.2063 52.653 29.9955 52.8704C29.7847 53.0877 29.6781 53.3752 29.6781 53.7284C29.6781 54.0839 29.7824 54.3692 29.9955 54.5865C30.2063 54.8039 30.476 54.9125 30.8024 54.9125C31.1287 54.9125 31.4007 54.8039 31.6138 54.5865Z" fill="#164E5F"/>
<path d="M37.8898 54.8718V56.4702H37.058V55.6257H34.1296V56.4702H33.3046V54.8718H33.4814C33.7239 54.8627 33.8871 54.7065 33.9755 54.4076C34.0639 54.1065 34.1206 53.6831 34.15 53.133L34.1999 51.8334H37.3277V54.8718H37.8898ZM34.8549 54.2605C34.8028 54.5344 34.7076 54.7382 34.5716 54.8718H36.4415V52.5851H34.9841L34.9637 53.1964C34.9433 53.6311 34.9071 53.9865 34.8549 54.2605Z" fill="#164E5F"/>
<path d="M39.048 51.0546C38.9393 50.9527 38.8849 50.8259 38.8849 50.6742C38.8849 50.5225 38.9393 50.3957 39.048 50.2939C39.1568 50.192 39.2928 50.1422 39.4538 50.1422C39.6147 50.1422 39.7507 50.1897 39.8595 50.2871C39.9683 50.3844 40.0227 50.5067 40.0227 50.6538C40.0227 50.8101 39.9683 50.9414 39.8617 51.0478C39.7552 51.1542 39.6192 51.2085 39.4538 51.2085C39.2928 51.2063 39.1591 51.1565 39.048 51.0546ZM39.0073 51.8311H39.8957V55.6234H39.0073V51.8311Z" fill="#164E5F"/>
<path d="M41.2738 51.8311H42.1623V54.3307L44.2588 51.8311H45.0703V55.6235H44.1818V53.1239L42.092 55.6235H41.2738V51.8311ZM42.2371 51.118C42.0354 50.9414 41.9334 50.681 41.9288 50.3414H42.5181C42.5227 50.5112 42.5771 50.647 42.6791 50.7467C42.781 50.8463 42.9238 50.8961 43.1097 50.8961C43.2888 50.8961 43.4338 50.8463 43.5403 50.7467C43.6469 50.647 43.7035 50.5112 43.7081 50.3414H44.3132C44.3087 50.681 44.2044 50.9414 44.0005 51.118C43.7965 51.2946 43.5018 51.3851 43.1188 51.3851C42.7357 51.3851 42.4388 51.2968 42.2371 51.118Z" fill="#164E5F"/>
<path d="M46.4415 51.8311H47.33V53.373H49.243V51.8311H50.1315V55.6234H49.243V54.1246H47.33V55.6234H46.4415V51.8311Z" fill="#164E5F"/>
<path d="M51.5027 51.8311H52.3912V54.3307L54.4878 51.8311H55.2969V55.6234H54.4084V53.1239L52.3187 55.6234H51.5005V51.8311H51.5027Z" fill="#164E5F"/>
<path d="M56.6682 51.8311H57.5567V54.3307L59.6532 51.8311H60.4646V55.6235H59.5762V53.1239L57.4864 55.6235H56.6682V51.8311ZM57.6315 51.118C57.4297 50.9414 57.3277 50.681 57.3232 50.3414H57.9125C57.917 50.5112 57.9714 50.647 58.0734 50.7467C58.1754 50.8463 58.3182 50.8961 58.5041 50.8961C58.6831 50.8961 58.8282 50.8463 58.9347 50.7467C59.0412 50.647 59.0979 50.5112 59.1024 50.3414H59.7076C59.7031 50.681 59.5988 50.9414 59.3948 51.118C59.1908 51.2946 58.8962 51.3851 58.5131 51.3851C58.1301 51.3851 57.8332 51.2968 57.6315 51.118Z" fill="#164E5F"/>
<path d="M68.4066 55.105C68.0168 55.4401 67.4569 55.6325 66.7339 55.68V57H65.8953V55.6868C65.17 55.6393 64.6124 55.4469 64.2248 55.1118C63.8373 54.7767 63.6423 54.3126 63.6423 53.7194C63.6423 53.133 63.8373 52.6756 64.2248 52.3451C64.6124 52.0168 65.17 51.8289 65.8953 51.7813V50.355H66.7339V51.7813C67.4592 51.8289 68.0168 52.0191 68.4066 52.3496C68.7987 52.6802 68.9936 53.1375 68.9936 53.7194C68.9936 54.308 68.7987 54.7699 68.4066 55.105ZM64.8527 54.5729C65.0771 54.7767 65.4238 54.899 65.893 54.942V52.5353C65.4238 52.5738 65.0771 52.6915 64.8527 52.8907C64.6283 53.09 64.515 53.3662 64.515 53.7216C64.515 54.0862 64.6283 54.3692 64.8527 54.5729ZM68.1256 53.7216C68.1256 53.3617 68.01 53.0832 67.781 52.8885C67.5521 52.6915 67.2008 52.576 66.7316 52.5375V54.9442C67.6632 54.8559 68.1256 54.4484 68.1256 53.7216Z" fill="#164E5F"/>
<path d="M70.8273 55.4242C70.519 55.2589 70.2788 55.028 70.1065 54.7314C69.9343 54.4348 69.8481 54.0997 69.8481 53.7262C69.8481 53.3526 69.9343 53.0198 70.1065 52.7255C70.2788 52.4311 70.519 52.2025 70.8273 52.0372C71.1355 51.8719 71.48 51.7881 71.8654 51.7881C72.2529 51.7881 72.602 51.8719 72.9102 52.0372C73.2185 52.2025 73.4587 52.4334 73.631 52.7255C73.8033 53.0198 73.8894 53.3526 73.8894 53.7262C73.8894 54.0997 73.8033 54.4348 73.631 54.7314C73.4587 55.028 73.2185 55.2589 72.9102 55.4242C72.602 55.5895 72.2529 55.6733 71.8654 55.6733C71.4823 55.6733 71.1355 55.5895 70.8273 55.4242ZM72.6745 54.5865C72.8876 54.3692 72.9941 54.0816 72.9941 53.7284C72.9941 53.373 72.8876 53.0877 72.6745 52.8704C72.4615 52.653 72.1917 52.5443 71.8631 52.5443C71.5344 52.5443 71.267 52.653 71.0562 52.8704C70.8454 53.0877 70.7389 53.3752 70.7389 53.7284C70.7389 54.0839 70.8431 54.3692 71.0562 54.5865C71.267 54.8039 71.5367 54.9125 71.8631 54.9125C72.1895 54.9125 72.4615 54.8039 72.6745 54.5865Z" fill="#164E5F"/>
<path d="M74.8005 51.8311H75.689V53.373H77.602V51.8311H78.4905V55.6234H77.602V54.1246H75.689V55.6234H74.8005V51.8311Z" fill="#164E5F"/>
<path d="M83.9121 54.8718V56.4702H83.0802V55.6257H80.1519V56.4702H79.3291V54.8718H79.5059C79.7484 54.8627 79.9116 54.7065 80 54.4076C80.0884 54.1065 80.1451 53.6831 80.1745 53.133L80.2244 51.8334H83.3522V54.8718H83.9121ZM80.8772 54.2605C80.825 54.5344 80.7298 54.7382 80.5938 54.8718H82.4637V52.5851H81.0064L80.986 53.1964C80.9656 53.6311 80.9293 53.9865 80.8772 54.2605Z" fill="#164E5F"/>
<path d="M49.0526 0C52.4819 0 55.2629 2.778 55.2629 6.20353C55.2629 9.62905 52.4819 12.4071 49.0526 12.4071V0Z" fill="#164E5F"/>
<path d="M33.5267 12.4048C33.5267 8.97927 36.3078 6.20126 39.7371 6.20126C43.1664 6.20126 45.9474 8.97927 45.9474 12.4048H33.5267Z" fill="#164E5F"/>
<path d="M61.471 15.5066C61.471 18.9321 58.6899 21.7101 55.2607 21.7101C51.8314 21.7101 49.0503 18.9321 49.0503 15.5066H61.471Z" fill="#164E5F"/>
<path d="M45.9474 27.9136C42.5181 27.9136 39.7371 25.1356 39.7371 21.7101C39.7371 18.2846 42.5181 15.5066 45.9474 15.5066V27.9136Z" fill="#164E5F"/>
</svg>
