<svg width="17" height="17" viewBox="0 0 17 17" fill="none" xmlns="http://www.w3.org/2000/svg">
<circle cx="8.5" cy="8.5" r="8.5" fill="#D9D9D9"/>
<path d="M8.29 11.06C8.29 10.668 8.35067 10.332 8.472 10.052C8.60267 9.772 8.76133 9.52467 8.948 9.31C9.144 9.09533 9.34933 8.89467 9.564 8.708C9.788 8.52133 9.998 8.33467 10.194 8.148C10.39 7.952 10.5487 7.742 10.67 7.518C10.7913 7.28467 10.852 7.014 10.852 6.706C10.852 6.202 10.656 5.79133 10.264 5.474C9.872 5.15667 9.31667 4.998 8.598 4.998C8.00067 4.998 7.48267 5.096 7.044 5.292C6.60533 5.47867 6.232 5.75867 5.924 6.132L5.182 5.572C5.55533 5.10533 6.036 4.746 6.624 4.494C7.212 4.242 7.89333 4.116 8.668 4.116C9.32133 4.116 9.886 4.214 10.362 4.41C10.8473 4.606 11.2207 4.886 11.482 5.25C11.7527 5.614 11.888 6.048 11.888 6.552C11.888 6.95333 11.8227 7.29867 11.692 7.588C11.5707 7.868 11.412 8.12 11.216 8.344C11.0293 8.55867 10.824 8.764 10.6 8.96C10.3853 9.14667 10.18 9.338 9.984 9.534C9.788 9.73 9.62933 9.94933 9.508 10.192C9.38667 10.4347 9.326 10.724 9.326 11.06H8.29ZM8.808 14.07C8.612 14.07 8.43933 14 8.29 13.86C8.15 13.7107 8.08 13.538 8.08 13.342C8.08 13.1367 8.15 12.9687 8.29 12.838C8.43933 12.698 8.612 12.628 8.808 12.628C9.02267 12.628 9.2 12.698 9.34 12.838C9.48 12.9687 9.55 13.1367 9.55 13.342C9.55 13.538 9.48 13.7107 9.34 13.86C9.2 14 9.02267 14.07 8.808 14.07Z" fill="white"/>
</svg>
